{"glyphs":{"0":{"ha":840,"x_min":56,"x_max":786,"o":"m 786 458 q 697 99 786 217 q 421 -18 608 -18 q 144 99 232 -18 q 56 454 56 215 q 144 820 56 700 q 421 940 232 940 q 697 821 608 940 q 786 458 786 701 m 569 457 q 554 636 569 569 q 506 732 539 703 q 421 761 474 761 q 335 732 368 761 q 287 635 301 703 q 272 456 272 568 q 287 283 272 347 q 335 190 301 218 q 421 161 368 161 q 506 190 474 161 q 554 283 539 218 q 569 457 569 349 z "},"1":{"ha":840,"x_min":188,"x_max":604,"o":"m 188 860 l 439 924 l 604 924 l 604 0 l 399 0 l 399 725 l 188 674 l 188 860 z "},"2":{"ha":840,"x_min":93,"x_max":742,"o":"m 131 729 l 108 908 q 182 925 139 918 q 277 936 225 932 q 385 940 329 940 q 554 916 476 940 q 679 834 632 892 q 726 674 726 776 q 716 595 726 632 q 682 521 706 558 q 621 439 658 483 q 529 337 583 394 q 403 203 475 279 l 381 179 l 742 179 l 742 0 l 93 0 l 93 169 l 126 203 q 280 356 215 292 q 388 468 344 421 q 456 550 431 515 q 493 613 482 585 q 504 667 504 640 q 487 722 504 701 q 436 752 469 743 q 354 761 403 761 q 274 756 317 761 q 194 744 232 751 q 131 729 156 738 z "},"3":{"ha":840,"x_min":92,"x_max":744,"o":"m 117 924 l 711 924 l 711 763 l 475 546 q 583 524 533 540 q 668 476 632 507 q 724 399 704 446 q 744 285 744 351 q 699 113 744 179 q 572 14 654 46 q 376 -18 489 -18 q 219 -8 289 -18 q 92 19 150 3 l 110 197 q 231 172 168 182 q 357 161 293 161 q 478 187 432 161 q 525 281 525 213 q 513 336 525 314 q 479 373 501 358 q 426 394 457 388 q 354 400 394 400 l 244 400 l 244 539 l 463 749 l 117 749 l 117 924 z "},"4":{"ha":840,"x_min":40,"x_max":801,"o":"m 431 924 l 703 924 l 703 354 l 801 354 l 801 175 l 703 175 l 703 0 l 503 0 l 503 175 l 40 175 l 40 343 l 431 924 m 233 322 l 150 354 l 503 354 l 503 792 l 522 744 l 233 322 z "},"5":{"ha":840,"x_min":103,"x_max":739,"o":"m 699 924 l 699 739 l 339 739 l 325 568 q 341 569 332 569 q 363 570 350 569 q 389 571 375 571 q 586 542 508 571 q 701 451 664 513 q 739 290 739 389 q 699 115 739 183 q 580 14 660 46 q 376 -18 500 -18 q 230 -9 296 -18 q 103 18 164 0 l 119 196 q 244 169 188 178 q 356 161 301 161 q 448 174 411 161 q 503 213 485 186 q 522 282 522 239 q 503 349 522 324 q 444 385 483 374 q 346 396 406 396 q 308 394 333 396 q 246 390 283 393 q 158 381 208 386 l 121 421 l 164 924 l 699 924 z "},"6":{"ha":840,"x_min":72,"x_max":779,"o":"m 286 382 q 292 296 286 336 q 313 225 297 256 q 359 178 328 194 q 440 161 390 161 q 539 196 506 161 q 572 286 572 231 q 539 381 572 351 q 438 411 506 411 q 359 402 400 411 q 286 382 318 393 m 729 915 l 710 739 q 603 756 661 750 q 496 761 546 761 q 338 717 392 761 q 285 561 285 674 q 373 581 321 572 q 472 590 425 590 q 701 519 624 590 q 779 296 779 447 q 693 67 779 151 q 440 -18 607 -18 q 241 28 324 -18 q 115 178 158 75 q 72 451 72 282 q 124 742 72 635 q 269 894 175 849 q 486 940 363 940 q 613 933 544 940 q 729 915 682 926 z "},"7":{"ha":840,"x_min":88,"x_max":753,"o":"m 88 924 l 753 924 l 753 763 l 388 0 l 157 0 l 524 739 l 88 739 l 88 924 z "},"8":{"ha":840,"x_min":58,"x_max":783,"o":"m 421 393 q 306 362 344 393 q 267 269 267 331 q 306 182 267 211 q 421 153 344 153 q 536 182 497 153 q 575 269 575 211 q 536 362 575 331 q 421 393 497 393 m 642 469 q 748 383 713 438 q 783 251 783 328 q 692 50 783 118 q 421 -18 600 -18 q 150 50 242 -18 q 58 251 58 118 q 94 383 58 328 q 199 469 129 438 q 110 549 140 496 q 81 679 81 601 q 167 875 81 810 q 421 940 253 940 q 675 875 589 940 q 761 679 761 810 q 731 549 761 601 q 642 469 701 496 m 421 774 q 290 667 290 774 q 421 547 290 547 q 551 667 551 547 q 421 774 551 774 z "},"9":{"ha":840,"x_min":63,"x_max":769,"o":"m 556 542 q 550 627 556 588 q 528 697 544 667 q 482 744 513 728 q 401 761 451 761 q 303 726 336 761 q 269 636 269 692 q 303 541 269 571 q 404 511 336 511 q 483 520 443 511 q 556 542 524 529 m 113 7 l 132 183 q 238 167 181 174 q 346 161 296 161 q 503 205 450 161 q 557 361 557 249 q 470 341 522 350 q 369 332 418 332 q 140 404 218 332 q 63 626 63 476 q 149 856 63 771 q 401 940 235 940 q 601 894 519 940 q 726 744 683 847 q 769 471 769 642 q 718 181 769 288 q 574 28 667 74 q 356 -18 481 -18 q 228 -10 297 -18 q 113 7 160 -3 z "},"\u0000":{"ha":0,"x_min":0,"x_max":0,"o":""},"\r":{"ha":404,"x_min":0,"x_max":0,"o":""}," ":{"ha":347,"x_min":0,"x_max":0,"o":""}," ":{"ha":347,"x_min":0,"x_max":0,"o":""},"A":{"ha":918,"x_min":86,"x_max":832,"o":"m 300 293 l 300 0 l 86 0 l 86 600 q 121 781 86 706 q 237 899 156 857 q 457 940 318 940 q 679 899 597 940 q 797 781 761 857 q 832 600 832 706 l 832 0 l 614 0 l 614 293 l 300 293 m 300 467 l 614 467 l 614 615 q 576 724 614 688 q 457 761 538 761 q 338 724 376 761 q 300 615 300 688 l 300 467 z "},"B":{"ha":882,"x_min":97,"x_max":828,"o":"m 314 385 l 314 156 q 373 150 342 153 q 426 147 404 147 q 558 178 524 147 q 592 271 592 210 q 556 356 592 326 q 439 385 521 385 l 314 385 m 314 760 l 314 547 l 436 547 q 537 573 501 547 q 572 657 572 599 q 538 737 572 714 q 432 760 504 760 l 314 760 m 97 924 l 425 924 q 621 901 538 924 q 750 826 704 878 q 796 686 796 774 q 757 546 796 597 q 642 471 718 494 q 734 436 692 461 q 802 367 776 411 q 828 254 828 322 q 777 94 828 154 q 638 8 726 35 q 433 -18 549 -18 q 275 -8 363 -18 q 97 19 188 1 l 97 924 z "},"C":{"ha":797,"x_min":63,"x_max":743,"o":"m 739 913 l 717 733 q 614 753 674 746 q 500 761 554 761 q 343 692 397 761 q 289 465 289 622 q 313 282 289 347 q 388 191 338 217 q 518 165 439 165 q 626 176 571 165 q 728 196 682 186 l 743 18 q 637 -7 700 4 q 507 -18 574 -18 q 265 28 364 -18 q 114 180 165 74 q 63 465 63 286 q 113 742 63 638 q 264 893 164 846 q 510 940 364 940 q 638 931 575 940 q 739 913 700 922 z "},"D":{"ha":940,"x_min":97,"x_max":879,"o":"m 97 924 l 449 924 q 767 816 654 924 q 879 475 879 708 q 858 279 879 369 q 785 122 838 189 q 640 19 732 56 q 403 -18 547 -18 q 261 -10 338 -18 q 97 17 185 -1 l 97 924 m 314 749 l 314 169 q 363 163 339 165 q 411 161 388 161 q 560 197 507 161 q 635 301 614 232 q 657 471 657 369 q 603 686 657 624 q 449 749 550 749 l 314 749 z "},"E":{"ha":758,"x_min":89,"x_max":697,"o":"m 89 924 l 681 924 l 681 749 l 306 749 l 306 557 l 654 557 l 654 382 l 306 382 l 306 272 q 341 194 306 214 q 428 175 376 175 l 697 175 l 697 0 l 417 0 q 240 23 313 0 q 128 101 167 46 q 89 253 89 156 l 89 924 z "},"F":{"ha":754,"x_min":97,"x_max":706,"o":"m 97 924 l 706 924 l 706 749 l 314 749 l 314 529 l 656 529 l 656 354 l 314 354 l 314 0 l 97 0 l 97 924 z "},"G":{"ha":911,"x_min":61,"x_max":832,"o":"m 817 911 l 803 732 q 687 752 756 743 q 550 761 618 761 q 401 732 460 761 q 315 638 343 703 q 288 465 288 572 q 313 278 288 344 q 385 187 338 213 q 499 161 433 161 q 563 165 528 161 q 626 174 599 168 l 626 357 l 471 357 l 471 526 l 832 526 l 832 36 q 743 12 796 25 q 631 -10 690 -1 q 511 -18 571 -18 q 322 5 406 -18 q 181 82 239 28 q 92 230 122 136 q 61 465 61 324 q 120 747 61 643 q 288 896 179 851 q 540 940 396 940 q 638 936 585 940 q 738 925 690 932 q 817 911 786 918 z "},"H":{"ha":989,"x_min":97,"x_max":892,"o":"m 97 924 l 314 924 l 314 565 l 675 565 l 675 924 l 892 924 l 892 0 l 675 0 l 675 382 l 314 382 l 314 0 l 97 0 l 97 924 z "},"I":{"ha":411,"x_min":97,"x_max":314,"o":"m 97 924 l 314 924 l 314 0 l 97 0 l 97 924 z "},"J":{"ha":415,"x_min":-74,"x_max":318,"o":"m 100 924 l 318 924 l 318 138 q 292 -14 318 53 q 200 -143 265 -81 q 18 -276 135 -206 l -74 -122 q 31 -38 -7 -76 q 84 42 68 0 q 100 143 100 85 l 100 924 z "},"K":{"ha":943,"x_min":97,"x_max":906,"o":"m 97 924 l 314 924 l 314 493 l 668 924 l 906 924 l 583 536 q 711 447 657 514 q 811 253 765 381 l 904 0 l 661 0 l 599 196 q 551 312 575 271 q 498 370 526 353 q 432 389 469 388 l 314 251 l 314 0 l 97 0 l 97 924 z "},"L":{"ha":718,"x_min":97,"x_max":674,"o":"m 97 924 l 314 924 l 314 175 l 674 175 l 674 0 l 97 0 l 97 924 z "},"M":{"ha":1183,"x_min":97,"x_max":1086,"o":"m 668 256 l 514 256 l 314 593 l 314 0 l 97 0 l 97 924 l 314 924 l 592 474 l 869 924 l 1086 924 l 1086 0 l 868 0 l 868 593 l 668 256 z "},"N":{"ha":1000,"x_min":97,"x_max":903,"o":"m 97 924 l 265 924 l 690 447 l 690 924 l 903 924 l 903 0 l 690 0 l 690 164 l 307 597 l 307 0 l 97 0 l 97 924 z "},"O":{"ha":975,"x_min":63,"x_max":913,"o":"m 488 940 q 808 824 703 940 q 913 460 913 708 q 808 98 913 214 q 488 -18 703 -18 q 168 98 274 -18 q 63 460 63 214 q 168 824 63 708 q 488 940 274 940 m 489 761 q 338 694 388 761 q 289 461 289 628 q 338 228 289 294 q 489 161 388 161 q 637 228 588 161 q 686 461 686 294 q 637 694 686 628 q 489 761 588 761 z "},"P":{"ha":833,"x_min":97,"x_max":782,"o":"m 314 749 l 314 488 q 363 481 340 483 q 407 479 386 479 q 528 512 490 479 q 567 617 567 544 q 528 722 567 694 q 410 749 490 749 l 314 749 m 97 924 l 410 924 q 617 894 535 924 q 741 798 700 865 q 782 617 782 731 q 738 429 782 499 q 618 330 694 360 q 442 300 542 300 q 379 303 411 300 q 314 311 347 306 l 314 0 l 97 0 l 97 924 z "},"Q":{"ha":975,"x_min":63,"x_max":954,"o":"m 411 -226 l 411 -64 q 498 -74 450 -64 q 597 -97 546 -83 q 694 -119 649 -110 q 775 -129 740 -129 q 829 -120 807 -129 q 871 -93 851 -111 l 954 -233 q 887 -283 928 -262 q 781 -304 846 -304 q 683 -292 733 -304 q 583 -265 633 -281 q 490 -238 533 -250 q 411 -226 446 -226 m 488 940 q 808 824 703 940 q 913 460 913 708 q 808 98 913 214 q 488 -18 703 -18 q 168 98 274 -18 q 63 460 63 214 q 168 824 63 708 q 488 940 274 940 m 489 761 q 338 694 388 761 q 289 461 289 628 q 338 228 289 294 q 489 161 388 161 q 637 228 588 161 q 686 461 686 294 q 637 694 686 628 q 489 761 588 761 z "},"R":{"ha":874,"x_min":97,"x_max":833,"o":"m 97 924 l 410 924 q 617 895 535 924 q 741 801 700 867 q 782 622 782 736 q 758 506 782 551 q 697 433 735 460 q 618 392 660 407 q 705 338 669 374 q 763 233 740 303 l 833 0 l 607 0 l 550 186 q 517 262 535 233 q 470 303 499 290 q 394 317 442 317 l 314 317 l 314 0 l 97 0 l 97 924 m 314 749 l 314 493 l 407 493 q 528 523 490 493 q 567 622 567 553 q 528 723 567 697 q 410 749 490 749 l 314 749 z "},"S":{"ha":764,"x_min":60,"x_max":713,"o":"m 671 915 l 656 744 q 550 760 610 753 q 443 768 490 768 q 323 754 364 768 q 282 701 282 740 q 313 638 282 665 q 393 585 344 610 q 497 531 442 560 q 601 464 553 503 q 681 372 650 425 q 713 242 713 318 q 622 44 713 106 q 360 -18 531 -18 q 194 -3 269 -18 q 63 26 119 11 l 81 197 q 208 167 144 179 q 351 154 271 154 q 451 168 413 154 q 490 225 490 182 q 459 297 490 265 q 379 356 428 328 q 275 415 331 385 q 171 485 219 446 q 91 576 122 524 q 60 699 60 628 q 108 844 60 792 q 242 917 156 896 q 444 939 328 939 q 564 931 501 939 q 671 915 626 924 z "},"T":{"ha":867,"x_min":44,"x_max":822,"o":"m 44 924 l 822 924 l 822 749 l 542 749 l 542 0 l 325 0 l 325 749 l 44 749 l 44 924 z "},"U":{"ha":947,"x_min":86,"x_max":850,"o":"m 86 924 l 304 924 l 304 319 q 324 231 304 265 q 383 178 344 196 q 476 161 421 161 q 568 167 526 161 q 633 179 610 174 l 633 924 l 850 924 l 850 40 q 689 2 786 22 q 469 -18 592 -18 q 244 21 328 -18 q 123 133 160 60 q 86 308 86 206 l 86 924 z "},"V":{"ha":963,"x_min":33,"x_max":922,"o":"m 597 0 l 364 0 l 33 924 l 264 924 l 493 243 q 617 537 558 371 q 713 924 676 703 l 922 924 q 845 578 897 740 q 728 272 793 415 q 597 0 663 128 z "},"W":{"ha":1299,"x_min":39,"x_max":1254,"o":"m 471 0 l 261 0 l 39 924 l 264 924 l 397 278 l 561 758 l 740 758 l 913 267 q 992 555 958 392 q 1050 924 1026 718 l 1254 924 q 1214 661 1238 786 q 1161 422 1190 536 q 1097 202 1132 307 q 1021 0 1061 97 l 819 0 l 651 518 l 471 0 z "},"X":{"ha":942,"x_min":36,"x_max":904,"o":"m 297 924 l 514 576 l 578 517 l 904 0 l 653 0 l 429 357 l 369 411 l 46 924 l 297 924 m 353 472 l 471 321 l 263 0 l 36 0 l 353 472 m 585 456 l 467 608 l 678 924 l 904 924 l 585 456 z "},"Y":{"ha":944,"x_min":29,"x_max":908,"o":"m 364 0 l 364 324 l 29 924 l 265 924 l 492 504 q 549 580 518 532 q 608 686 579 628 q 658 806 636 744 q 689 924 679 868 l 908 924 q 830 700 878 813 q 720 492 782 588 q 585 331 658 396 l 585 0 l 364 0 z "},"Z":{"ha":842,"x_min":57,"x_max":785,"o":"m 71 924 l 771 924 l 771 756 l 318 176 l 785 176 l 785 0 l 57 0 l 57 168 l 508 749 l 71 749 l 71 924 z "},"Æ":{"ha":1286,"x_min":86,"x_max":1225,"o":"m 631 924 l 1208 924 l 1208 749 l 833 749 l 833 544 l 1182 544 l 1182 369 l 833 369 l 833 274 q 868 194 833 214 q 954 175 903 175 l 1225 175 l 1225 0 l 943 0 q 766 24 839 0 q 654 102 693 47 q 615 253 615 157 l 615 369 l 300 369 l 300 0 l 86 0 l 86 600 q 120 781 86 704 q 231 899 154 857 q 435 940 307 940 q 552 923 500 940 q 631 872 604 906 l 631 924 m 300 542 l 614 542 l 614 615 q 577 723 614 685 q 457 761 540 761 q 337 723 374 761 q 300 615 300 685 l 300 542 z "},"Œ":{"ha":1344,"x_min":63,"x_max":1283,"o":"m 699 924 l 1267 924 l 1267 749 l 892 749 l 892 557 l 1240 557 l 1240 382 l 892 382 l 892 274 q 926 194 892 214 q 1013 175 961 175 l 1283 175 l 1283 0 l 1001 0 q 852 17 914 0 q 758 74 790 33 l 751 85 q 644 8 711 33 q 481 -18 576 -18 q 167 96 271 -18 q 63 460 63 210 q 167 826 63 711 q 481 940 271 940 q 606 925 551 940 q 699 878 660 910 l 699 924 m 672 461 q 651 640 672 574 q 588 733 629 706 q 482 761 546 761 q 375 733 418 761 q 310 640 332 706 q 289 461 289 574 q 310 283 289 349 q 375 190 332 218 q 482 161 418 161 q 588 190 546 161 q 651 283 629 218 q 672 461 672 349 z "},"Ł":{"ha":788,"x_min":47,"x_max":743,"o":"m 167 924 l 383 924 l 383 585 l 624 679 l 624 492 l 383 397 l 383 175 l 743 175 l 743 0 l 167 0 l 167 314 l 47 267 l 47 454 l 167 500 l 167 924 z "},"Ø":{"ha":975,"x_min":63,"x_max":913,"o":"m 488 940 q 808 824 703 940 q 913 460 913 708 q 808 98 913 214 q 488 -18 703 -18 q 168 98 274 -18 q 63 460 63 214 q 168 824 63 708 q 488 940 274 940 m 489 775 q 378 745 422 775 q 311 647 333 715 q 289 461 289 578 q 311 276 289 344 q 378 177 333 207 q 489 147 422 147 q 599 177 556 147 q 665 276 643 207 q 686 461 686 344 q 665 647 686 578 q 599 745 643 715 q 489 775 556 775 m 907 938 l 208 -118 l 67 -22 l 765 1033 l 907 938 z "},"Ð":{"ha":1004,"x_min":46,"x_max":943,"o":"m 46 382 l 46 557 l 574 557 l 574 382 l 46 382 m 161 924 l 513 924 q 831 816 718 924 q 943 475 943 708 q 922 279 943 369 q 849 122 901 189 q 703 19 796 56 q 467 -18 611 -18 q 325 -10 401 -18 q 161 17 249 -1 l 161 924 m 378 749 l 378 169 q 427 163 403 165 q 475 161 451 161 q 624 197 571 161 q 699 301 678 232 q 721 471 721 369 q 667 686 721 624 q 513 749 614 749 l 378 749 z "},"Þ":{"ha":833,"x_min":97,"x_max":782,"o":"m 314 599 l 314 349 q 363 342 340 344 q 407 340 386 340 q 528 372 490 340 q 567 472 567 404 q 528 572 567 546 q 410 599 490 599 l 314 599 m 314 774 l 410 774 q 617 745 535 774 q 741 651 700 717 q 782 472 782 585 q 738 288 782 357 q 618 190 694 219 q 442 161 542 161 q 379 164 411 161 q 314 172 347 167 l 314 0 l 97 0 l 97 924 l 314 924 l 314 774 z "},"a":{"ha":699,"x_min":31,"x_max":633,"o":"m 431 135 l 431 293 q 385 297 408 296 q 342 299 363 299 q 259 279 290 299 q 228 211 228 260 q 259 144 228 164 q 338 125 290 125 q 386 128 363 125 q 431 135 410 131 m 93 540 l 83 694 q 195 715 132 707 q 317 724 258 724 q 480 701 408 724 q 592 629 551 679 q 633 496 633 579 l 633 26 q 549 6 599 15 q 442 -11 499 -4 q 329 -18 385 -18 q 175 3 243 -18 q 69 77 107 25 q 31 221 31 129 q 69 349 31 303 q 169 415 107 396 q 301 435 232 435 q 367 432 335 435 q 431 424 400 429 l 431 478 q 399 549 431 531 q 303 568 368 568 q 195 560 253 568 q 93 540 138 551 z "},"b":{"ha":781,"x_min":72,"x_max":739,"o":"m 72 1014 l 276 1014 l 276 708 q 347 719 307 715 q 418 724 388 724 q 583 688 511 724 q 697 568 656 651 q 739 343 739 485 q 695 133 739 213 q 574 18 651 54 q 393 -18 496 -18 q 224 -2 311 -18 q 72 36 138 14 l 72 1014 m 276 160 q 331 151 300 154 q 389 149 361 149 q 469 165 438 149 q 517 225 501 182 q 533 346 533 268 q 500 511 533 464 q 393 558 467 558 q 336 553 363 558 q 276 542 310 549 l 276 160 z "},"c":{"ha":617,"x_min":40,"x_max":582,"o":"m 575 707 l 554 542 q 490 553 522 549 q 422 558 458 558 q 326 541 365 558 q 266 478 286 524 q 246 351 246 433 q 287 195 246 243 q 429 147 328 147 q 498 154 465 147 q 564 169 531 161 l 582 7 q 495 -11 547 -4 q 397 -18 443 -18 q 210 20 290 -18 q 85 140 129 58 q 40 354 40 222 q 88 572 40 492 q 220 688 136 653 q 414 724 304 724 q 499 719 454 724 q 575 707 544 714 z "},"d":{"ha":781,"x_min":42,"x_max":708,"o":"m 708 1014 l 708 36 q 556 -2 643 14 q 388 -18 469 -18 q 207 18 285 -18 q 85 133 129 54 q 42 343 42 213 q 83 568 42 485 q 198 688 125 651 q 364 724 271 724 q 435 719 396 724 q 504 708 474 715 l 504 1014 l 708 1014 m 504 160 l 504 542 q 445 553 472 549 q 388 558 418 558 q 281 511 314 558 q 247 346 247 464 q 264 225 247 268 q 313 165 281 182 q 392 149 344 149 q 450 151 419 149 q 504 160 481 154 z "},"e":{"ha":733,"x_min":40,"x_max":685,"o":"m 685 285 l 249 285 q 295 183 251 213 q 443 154 339 154 q 515 158 475 154 q 592 168 554 161 q 653 182 629 175 l 672 15 q 551 -8 621 1 q 410 -18 482 -18 q 218 17 301 -18 q 88 134 135 53 q 40 351 40 215 q 82 569 40 488 q 200 688 124 651 q 379 724 276 724 q 556 683 489 724 q 654 572 624 643 q 685 407 685 500 l 685 285 m 249 424 l 489 424 q 465 529 489 490 q 369 568 440 568 q 276 528 301 568 q 249 424 250 488 z "},"f":{"ha":544,"x_min":22,"x_max":556,"o":"m 22 706 l 126 706 l 126 771 q 162 919 126 861 q 262 1004 197 976 q 414 1032 326 1032 q 488 1028 450 1032 q 556 1018 526 1025 l 538 857 q 489 863 514 861 q 440 865 464 865 q 366 846 394 865 q 338 771 338 826 l 338 706 l 522 706 l 522 543 l 338 543 l 338 0 l 126 0 l 126 543 l 22 543 l 22 706 z "},"g":{"ha":781,"x_min":40,"x_max":707,"o":"m 503 -6 l 503 11 q 433 1 472 6 q 363 -4 394 -4 q 197 31 269 -4 q 82 146 124 65 q 40 363 40 226 q 84 572 40 493 q 206 688 128 651 q 386 724 283 724 q 555 708 468 724 q 707 669 642 693 l 707 25 q 660 -162 707 -96 q 533 -253 614 -228 q 346 -278 451 -278 q 210 -267 278 -278 q 107 -244 143 -256 l 125 -82 q 185 -97 150 -89 q 261 -108 221 -104 q 338 -112 301 -112 q 460 -89 418 -112 q 503 -6 503 -65 m 503 546 q 449 555 479 551 q 390 558 418 558 q 311 542 343 558 q 263 482 279 525 q 246 360 246 439 q 279 206 246 250 q 386 161 313 161 q 444 166 417 161 q 503 178 471 171 l 503 546 z "},"h":{"ha":774,"x_min":74,"x_max":708,"o":"m 279 0 l 74 0 l 74 1014 l 279 1014 l 279 711 q 340 720 308 717 q 401 724 371 724 q 563 700 494 724 q 670 622 632 676 q 708 474 708 568 l 708 0 l 503 0 l 503 447 q 488 515 503 490 q 446 549 472 539 q 385 558 419 558 q 330 555 361 558 q 279 546 299 551 l 279 0 z "},"i":{"ha":353,"x_min":56,"x_max":299,"o":"m 74 706 l 279 706 l 279 0 l 74 0 l 74 706 m 299 914 q 265 833 299 860 q 176 806 232 806 q 89 833 122 806 q 56 914 56 860 q 89 994 56 967 q 176 1022 122 1022 q 265 994 232 1022 q 299 914 299 967 z "},"j":{"ha":354,"x_min":-79,"x_max":300,"o":"m 300 914 q 267 833 300 860 q 178 806 233 806 q 90 833 124 806 q 57 914 57 860 q 90 994 57 967 q 178 1022 124 1022 q 267 994 233 1022 q 300 914 300 967 m 75 706 l 281 706 l 281 113 q 265 -8 281 46 q 218 -108 250 -62 q 137 -195 186 -154 q 19 -278 88 -236 l -79 -132 q -6 -71 -36 -97 q 42 -19 24 -44 q 67 38 60 7 q 75 111 75 68 l 75 706 z "},"k":{"ha":757,"x_min":74,"x_max":735,"o":"m 74 1014 l 279 1014 l 279 411 l 506 706 l 719 706 l 490 418 q 615 353 564 404 q 688 208 667 303 l 735 0 l 515 0 l 475 190 q 426 265 464 247 q 350 285 389 282 l 279 217 l 279 0 l 74 0 l 74 1014 z "},"l":{"ha":353,"x_min":74,"x_max":279,"o":"m 74 1014 l 279 1014 l 279 0 l 74 0 l 74 1014 z "},"m":{"ha":1157,"x_min":74,"x_max":1092,"o":"m 279 0 l 74 0 l 74 669 q 210 706 125 688 q 386 724 294 724 q 544 700 476 724 q 648 622 611 676 q 685 474 685 568 l 685 0 l 479 0 l 479 447 q 467 515 479 490 q 433 549 454 539 q 382 558 411 558 q 329 555 360 558 q 279 546 299 551 l 279 0 m 671 535 l 518 654 q 592 687 549 671 q 688 713 636 703 q 793 724 740 724 q 951 700 883 724 q 1055 622 1018 676 q 1092 474 1092 568 l 1092 0 l 886 0 l 886 447 q 873 515 886 490 q 838 549 860 539 q 785 558 815 558 q 721 552 751 558 q 671 535 690 546 z "},"n":{"ha":774,"x_min":74,"x_max":708,"o":"m 279 0 l 74 0 l 74 669 q 210 706 125 688 q 389 724 296 724 q 558 700 486 724 q 669 622 629 676 q 708 474 708 568 l 708 0 l 503 0 l 503 447 q 488 515 503 490 q 446 549 472 539 q 385 558 419 558 q 330 555 361 558 q 279 546 299 551 l 279 0 z "},"o":{"ha":782,"x_min":42,"x_max":740,"o":"m 740 351 q 651 70 740 158 q 392 -18 561 -18 q 131 70 221 -18 q 42 351 42 158 q 131 635 42 546 q 392 724 221 724 q 651 635 561 724 q 740 351 740 546 m 535 351 q 502 512 535 465 q 392 558 469 558 q 281 512 315 558 q 247 351 247 465 q 281 194 247 240 q 392 147 315 147 q 502 194 469 147 q 535 351 535 240 z "},"p":{"ha":782,"x_min":74,"x_max":740,"o":"m 74 -261 l 74 669 q 226 708 139 693 q 394 724 313 724 q 575 688 497 724 q 697 572 653 651 q 740 363 740 493 q 699 138 740 221 q 584 18 657 54 q 418 -18 511 -18 q 348 -12 388 -18 q 278 -1 308 -7 l 278 -261 l 74 -261 m 278 546 l 278 164 q 338 152 311 157 q 394 147 364 147 q 501 194 468 147 q 535 360 535 242 q 518 482 535 439 q 469 542 501 525 q 390 558 438 558 q 332 555 363 558 q 278 546 301 551 z "},"q":{"ha":782,"x_min":42,"x_max":708,"o":"m 708 -261 l 504 -261 l 504 -1 q 435 -12 474 -7 q 364 -18 396 -18 q 198 18 271 -18 q 83 138 125 54 q 42 363 42 221 q 85 572 42 493 q 207 688 129 651 q 388 724 285 724 q 556 708 469 724 q 708 669 643 693 l 708 -261 m 504 546 q 450 555 481 551 q 392 558 419 558 q 313 542 344 558 q 264 482 281 525 q 247 360 247 439 q 281 194 247 242 q 388 147 314 147 q 445 152 418 147 q 504 164 472 157 l 504 546 z "},"r":{"ha":501,"x_min":74,"x_max":481,"o":"m 481 724 l 481 558 q 378 555 429 558 q 278 544 328 551 l 278 0 l 74 0 l 74 669 q 278 713 172 701 q 481 724 383 724 z "},"s":{"ha":631,"x_min":42,"x_max":597,"o":"m 564 706 l 553 544 q 468 558 511 553 q 372 563 425 563 q 283 553 311 563 q 256 521 256 544 q 281 482 256 499 q 344 449 306 465 q 426 415 383 433 q 508 369 469 396 q 572 303 547 342 q 597 208 597 264 q 557 76 597 126 q 448 4 517 26 q 294 -18 379 -18 q 147 -7 211 -18 q 42 18 83 4 l 60 176 q 160 156 101 167 q 269 146 218 146 q 353 158 331 146 q 375 197 375 171 q 351 238 375 221 q 289 272 326 256 q 209 307 251 288 q 129 353 167 326 q 67 419 92 379 q 43 515 43 458 q 82 642 43 597 q 194 706 121 688 q 369 724 267 724 q 476 718 428 724 q 564 706 525 713 z "},"t":{"ha":561,"x_min":22,"x_max":519,"o":"m 164 861 l 332 861 l 332 706 l 519 706 l 519 543 l 332 543 l 332 218 q 356 169 332 182 q 413 156 381 156 q 467 160 439 156 q 514 169 494 164 l 519 6 q 444 -12 483 -7 q 365 -18 404 -18 q 190 38 254 -18 q 126 203 126 93 l 126 543 l 22 543 l 22 706 l 126 706 l 164 861 z "},"u":{"ha":761,"x_min":64,"x_max":689,"o":"m 483 706 l 689 706 l 689 36 q 556 0 639 18 q 382 -18 472 -18 q 215 6 286 -18 q 103 84 143 29 q 64 232 64 139 l 64 706 l 269 706 l 269 258 q 285 191 269 215 q 326 157 300 167 q 386 147 353 147 q 437 151 408 147 q 483 160 465 154 l 483 706 z "},"v":{"ha":751,"x_min":11,"x_max":732,"o":"m 232 706 l 382 183 q 438 329 410 253 q 490 498 465 406 q 533 706 515 590 l 732 706 q 642 352 706 529 q 489 0 578 175 l 249 0 l 11 706 l 232 706 z "},"w":{"ha":1103,"x_min":17,"x_max":1074,"o":"m 660 706 l 790 208 q 847 425 825 307 q 878 706 868 543 l 1074 706 q 1045 470 1065 588 q 992 236 1025 353 q 907 0 958 119 l 679 0 l 556 490 l 431 0 l 185 0 l 17 706 l 243 706 l 333 210 l 454 706 l 660 706 z "},"x":{"ha":735,"x_min":15,"x_max":719,"o":"m 265 706 l 400 481 l 490 378 l 719 0 l 481 0 l 329 253 l 251 336 l 26 706 l 265 706 m 501 360 l 381 476 l 508 706 l 714 706 l 501 360 m 239 367 l 358 250 l 219 0 l 15 0 l 239 367 z "},"y":{"ha":761,"x_min":63,"x_max":688,"o":"m 483 -6 l 483 7 q 433 1 458 3 q 381 -1 407 -1 q 213 22 285 -1 q 102 100 142 46 q 63 247 63 154 l 63 706 l 268 706 l 268 275 q 283 208 268 232 q 325 174 299 183 q 385 164 351 164 q 436 167 408 164 q 482 176 464 171 l 482 706 l 688 706 l 688 25 q 641 -162 688 -96 q 514 -253 594 -228 q 328 -278 433 -278 q 237 -273 283 -278 q 151 -260 190 -268 q 89 -244 113 -251 l 107 -92 q 167 -106 131 -99 q 243 -119 203 -114 q 319 -124 283 -124 q 441 -98 399 -124 q 483 -6 483 -72 z "},"z":{"ha":672,"x_min":38,"x_max":635,"o":"m 53 706 l 619 706 l 619 560 l 307 163 l 635 163 l 635 0 l 38 0 l 38 146 l 358 543 l 53 543 l 53 706 z "},"æ":{"ha":1114,"x_min":31,"x_max":1065,"o":"m 93 539 l 83 693 q 195 714 132 706 q 317 722 258 722 q 450 706 390 722 q 551 654 510 690 q 643 706 590 690 q 760 722 696 722 q 937 682 869 722 q 1035 571 1004 642 q 1065 407 1065 500 l 1065 285 l 629 285 q 651 209 632 238 q 713 168 671 181 q 824 156 754 156 q 895 159 856 156 q 972 169 935 163 q 1033 183 1010 176 l 1053 17 q 932 -7 1001 3 q 790 -17 863 -17 q 683 -5 733 -17 q 592 32 632 7 q 468 0 539 17 q 329 -17 397 -17 q 175 5 243 -17 q 69 78 107 26 q 31 221 31 129 q 69 349 31 303 q 169 415 107 396 q 301 435 232 435 q 367 432 335 435 q 431 424 400 429 l 431 478 q 399 549 431 531 q 303 567 368 567 q 195 558 253 567 q 93 539 138 550 m 629 424 l 869 424 q 845 528 869 490 q 750 567 821 567 q 656 527 682 567 q 629 424 631 488 m 457 140 q 442 210 449 164 q 431 293 435 256 q 385 297 408 296 q 342 299 363 299 q 259 279 290 299 q 228 211 228 260 q 259 145 228 164 q 338 126 290 126 q 402 131 374 126 q 457 140 431 135 z "},"œ":{"ha":1206,"x_min":42,"x_max":1157,"o":"m 1157 285 l 735 285 q 780 184 738 213 q 922 156 822 156 q 991 159 953 156 q 1065 169 1029 163 q 1125 183 1101 176 l 1144 17 q 1026 -7 1093 3 q 889 -17 958 -17 q 708 19 788 -17 q 585 135 629 54 q 540 351 540 217 q 579 569 540 488 q 690 686 618 650 q 860 722 763 722 q 1032 682 967 722 q 1127 571 1097 642 q 1157 407 1157 500 l 1157 285 m 735 424 l 961 424 q 938 528 961 490 q 850 567 915 567 q 761 527 786 567 q 735 424 736 488 m 713 351 q 629 72 713 160 q 385 -17 546 -17 q 129 72 217 -17 q 42 351 42 160 q 129 635 42 546 q 385 724 217 724 q 629 635 546 724 q 713 351 713 546 m 521 351 q 490 512 521 465 q 385 558 458 558 q 280 512 313 558 q 247 351 247 465 q 280 195 247 242 q 385 149 313 149 q 490 195 458 149 q 521 351 521 242 z "},"ł":{"ha":460,"x_min":29,"x_max":432,"o":"m 128 1014 l 333 1014 l 333 628 l 432 667 l 432 492 l 333 451 l 333 0 l 128 0 l 128 369 l 29 332 l 29 507 l 128 546 l 128 1014 z "},"ø":{"ha":782,"x_min":42,"x_max":740,"o":"m 740 351 q 651 72 740 160 q 392 -17 561 -17 q 131 72 221 -17 q 42 351 42 160 q 131 635 42 546 q 392 724 221 724 q 651 635 561 724 q 740 351 740 546 m 540 351 q 506 512 540 465 q 392 558 472 558 q 276 512 311 558 q 242 351 242 465 q 276 195 242 242 q 392 149 311 149 q 506 195 472 149 q 540 351 540 242 m 179 -118 l 44 -42 l 603 822 l 738 746 l 179 -118 z "},"ð":{"ha":758,"x_min":40,"x_max":710,"o":"m 507 669 q 484 723 500 692 q 449 786 468 754 l 244 729 l 244 868 l 374 904 q 328 960 351 932 q 281 1014 304 988 l 486 1014 q 509 981 497 997 q 532 947 521 964 l 707 996 l 707 857 l 608 829 q 678 667 657 744 q 704 519 699 589 q 710 383 710 449 q 673 175 710 265 q 561 34 636 85 q 374 -17 486 -17 q 126 74 213 -17 q 40 344 40 165 q 119 615 40 522 q 346 707 197 707 q 441 697 397 707 q 507 669 485 688 m 496 344 q 483 465 496 421 q 442 528 469 510 q 372 547 415 547 q 302 528 329 547 q 262 465 275 510 q 249 344 249 421 q 262 227 249 271 q 302 165 275 183 q 372 147 329 147 q 442 165 415 147 q 483 227 469 183 q 496 344 496 271 z "},"þ":{"ha":782,"x_min":74,"x_max":740,"o":"m 74 -261 l 74 1014 l 278 1014 l 278 715 q 337 722 307 719 q 394 724 367 724 q 575 688 497 724 q 697 572 653 651 q 740 363 740 493 q 717 183 740 256 q 649 65 693 110 q 547 1 606 21 q 418 -18 488 -18 q 348 -12 388 -18 q 278 0 308 -7 l 278 -261 l 74 -261 m 278 546 l 278 165 q 338 153 311 158 q 394 147 364 147 q 475 167 444 147 q 520 234 506 188 q 535 360 535 281 q 518 482 535 439 q 469 542 501 525 q 390 558 438 558 q 332 555 363 558 q 278 546 301 551 z "},"ß":{"ha":786,"x_min":79,"x_max":757,"o":"m 468 769 q 444 846 468 826 q 379 865 419 865 q 311 846 338 865 q 285 771 285 826 l 285 0 l 79 0 l 79 771 q 159 969 79 907 q 378 1032 239 1032 q 597 972 515 1032 q 678 782 678 913 q 667 709 678 740 q 640 653 656 678 q 607 609 624 629 q 579 570 590 589 q 568 529 568 551 q 587 476 568 500 q 634 426 606 451 q 691 371 663 401 q 738 299 719 340 q 757 200 757 257 q 697 38 757 93 q 522 -18 638 -18 q 433 -13 478 -18 q 357 -3 389 -8 l 364 151 q 419 145 390 149 q 472 142 447 142 q 538 151 517 142 q 558 192 558 161 q 540 256 558 229 q 493 304 521 282 q 438 353 465 326 q 391 417 410 379 q 372 513 372 456 q 382 576 372 549 q 406 625 392 603 q 435 668 421 647 q 458 713 449 689 q 468 769 468 738 z "},"ı":{"ha":353,"x_min":74,"x_max":279,"o":"m 74 706 l 279 706 l 279 0 l 74 0 l 74 706 z "},"ȷ":{"ha":354,"x_min":-79,"x_max":281,"o":"m 75 706 l 281 706 l 281 113 q 265 -8 281 46 q 218 -108 250 -62 q 137 -195 186 -154 q 19 -278 88 -236 l -79 -132 q -6 -71 -36 -97 q 42 -19 24 -44 q 67 38 60 7 q 75 111 75 68 l 75 706 z "},"Á":{"ha":918,"x_min":86,"x_max":832,"o":"m 300 293 l 300 0 l 86 0 l 86 600 q 121 781 86 706 q 237 899 156 857 q 457 940 318 940 q 679 899 597 940 q 797 781 761 857 q 832 600 832 706 l 832 0 l 614 0 l 614 293 l 300 293 m 300 467 l 614 467 l 614 615 q 576 724 614 688 q 457 761 538 761 q 338 724 376 761 q 300 615 300 688 l 300 467 m 450 1231 l 671 1231 l 489 1007 l 333 1007 l 450 1231 z "},"Â":{"ha":918,"x_min":86,"x_max":832,"o":"m 300 293 l 300 0 l 86 0 l 86 600 q 121 781 86 706 q 237 899 156 857 q 457 940 318 940 q 679 899 597 940 q 797 781 761 857 q 832 600 832 706 l 832 0 l 614 0 l 614 293 l 300 293 m 300 467 l 614 467 l 614 615 q 576 724 614 688 q 457 761 538 761 q 338 724 376 761 q 300 615 300 688 l 300 467 m 361 1231 l 538 1231 l 689 1007 l 514 1007 l 450 1124 l 385 1007 l 210 1007 l 361 1231 z "},"Ä":{"ha":918,"x_min":86,"x_max":832,"o":"m 300 293 l 300 0 l 86 0 l 86 600 q 121 781 86 706 q 237 899 156 857 q 457 940 318 940 q 679 899 597 940 q 797 781 761 857 q 832 600 832 706 l 832 0 l 614 0 l 614 293 l 300 293 m 300 467 l 614 467 l 614 615 q 576 724 614 688 q 457 761 538 761 q 338 724 376 761 q 300 615 300 688 l 300 467 m 422 1125 q 394 1047 422 1074 q 319 1021 365 1021 q 244 1047 272 1021 q 217 1125 217 1074 q 244 1203 217 1176 q 318 1229 272 1229 q 394 1203 365 1229 q 422 1125 422 1176 m 683 1125 q 655 1047 683 1074 q 579 1021 626 1021 q 506 1047 533 1021 q 478 1125 478 1074 q 506 1203 478 1176 q 579 1229 533 1229 q 655 1203 626 1229 q 683 1125 683 1176 z "},"À":{"ha":918,"x_min":86,"x_max":832,"o":"m 300 293 l 300 0 l 86 0 l 86 600 q 121 781 86 706 q 237 899 156 857 q 457 940 318 940 q 679 899 597 940 q 797 781 761 857 q 832 600 832 706 l 832 0 l 614 0 l 614 293 l 300 293 m 300 467 l 614 467 l 614 615 q 576 724 614 688 q 457 761 538 761 q 338 724 376 761 q 300 615 300 688 l 300 467 m 218 1231 l 440 1231 l 554 1007 l 401 1007 l 218 1231 z "},"Å":{"ha":918,"x_min":86,"x_max":832,"o":"m 300 293 l 300 0 l 86 0 l 86 600 q 121 781 86 706 q 237 899 156 857 q 457 940 318 940 q 679 899 597 940 q 797 781 761 857 q 832 600 832 706 l 832 0 l 614 0 l 614 293 l 300 293 m 300 467 l 614 467 l 614 615 q 576 724 614 688 q 457 761 538 761 q 338 724 376 761 q 300 615 300 688 l 300 467 m 450 1172 q 413 1161 428 1172 q 399 1125 399 1150 q 413 1089 399 1100 q 450 1078 428 1078 q 488 1089 474 1078 q 501 1125 501 1100 q 488 1161 501 1150 q 450 1172 474 1172 m 450 1265 q 576 1232 526 1265 q 625 1125 625 1199 q 576 1018 625 1051 q 450 985 526 985 q 324 1018 374 985 q 275 1125 275 1051 q 324 1232 275 1199 q 450 1265 374 1265 z "},"Ã":{"ha":918,"x_min":86,"x_max":832,"o":"m 300 293 l 300 0 l 86 0 l 86 600 q 121 781 86 706 q 237 899 156 857 q 457 940 318 940 q 679 899 597 940 q 797 781 761 857 q 832 600 832 706 l 832 0 l 614 0 l 614 293 l 300 293 m 300 467 l 614 467 l 614 615 q 576 724 614 688 q 457 761 538 761 q 338 724 376 761 q 300 615 300 688 l 300 467 m 328 1018 l 193 1071 q 246 1172 208 1129 q 349 1214 283 1214 q 415 1199 385 1214 q 470 1170 446 1185 q 514 1156 494 1156 q 551 1174 542 1156 q 569 1218 561 1192 l 706 1168 q 644 1060 682 1101 q 546 1018 607 1018 q 481 1033 511 1018 q 427 1065 451 1049 q 385 1081 403 1081 q 346 1060 357 1081 q 328 1018 335 1040 z "},"Ă":{"ha":918,"x_min":86,"x_max":832,"o":"m 300 293 l 300 0 l 86 0 l 86 600 q 121 781 86 706 q 237 899 156 857 q 457 940 318 940 q 679 899 597 940 q 797 781 761 857 q 832 600 832 706 l 832 0 l 614 0 l 614 293 l 300 293 m 300 467 l 614 467 l 614 615 q 576 724 614 688 q 457 761 538 761 q 338 724 376 761 q 300 615 300 688 l 300 467 m 221 1192 l 381 1192 q 401 1135 382 1153 q 450 1117 419 1117 q 500 1135 482 1117 q 519 1192 518 1153 l 678 1192 q 610 1034 672 1078 q 450 990 549 990 q 290 1034 351 990 q 221 1192 228 1078 z "},"Ā":{"ha":918,"x_min":86,"x_max":832,"o":"m 300 293 l 300 0 l 86 0 l 86 600 q 121 781 86 706 q 237 899 156 857 q 457 940 318 940 q 679 899 597 940 q 797 781 761 857 q 832 600 832 706 l 832 0 l 614 0 l 614 293 l 300 293 m 300 467 l 614 467 l 614 615 q 576 724 614 688 q 457 761 538 761 q 338 724 376 761 q 300 615 300 688 l 300 467 m 240 1167 l 660 1167 l 660 1028 l 240 1028 l 240 1167 z "},"Ą":{"ha":918,"x_min":86,"x_max":846,"o":"m 826 -139 l 846 -249 q 793 -267 821 -261 q 732 -272 765 -272 q 624 -245 667 -272 q 581 -160 581 -218 q 598 -94 581 -125 q 641 -39 615 -62 q 692 0 667 -15 l 832 0 q 790 -35 813 -15 q 752 -74 768 -54 q 736 -114 736 -94 q 745 -142 736 -132 q 774 -151 754 -151 q 803 -148 790 -151 q 826 -139 817 -144 m 300 293 l 300 0 l 86 0 l 86 600 q 121 781 86 706 q 237 899 156 857 q 457 940 318 940 q 679 899 597 940 q 797 781 761 857 q 832 600 832 706 l 832 0 l 614 0 l 614 293 l 300 293 m 300 467 l 614 467 l 614 615 q 576 724 614 688 q 457 761 538 761 q 338 724 376 761 q 300 615 300 688 l 300 467 z "},"Ǻ":{"ha":918,"x_min":86,"x_max":832,"o":"m 638 1160 q 590 1060 638 1089 q 463 1031 542 1031 q 335 1060 383 1031 q 288 1160 288 1089 q 315 1242 288 1213 q 389 1282 342 1271 l 468 1407 l 658 1407 l 538 1281 q 611 1242 585 1271 q 638 1160 638 1213 m 514 1160 q 501 1194 514 1183 q 463 1204 489 1204 q 424 1194 436 1204 q 411 1160 411 1183 q 424 1126 411 1136 q 463 1115 436 1115 q 501 1126 489 1115 q 514 1160 514 1136 m 300 293 l 300 0 l 86 0 l 86 600 q 121 781 86 706 q 237 899 156 857 q 457 940 318 940 q 679 899 597 940 q 797 781 761 857 q 832 600 832 706 l 832 0 l 614 0 l 614 293 l 300 293 m 300 467 l 614 467 l 614 615 q 576 724 614 688 q 457 761 538 761 q 338 724 376 761 q 300 615 300 688 l 300 467 z "},"Ç":{"ha":797,"x_min":63,"x_max":743,"o":"m 739 913 l 717 733 q 614 753 674 746 q 500 761 554 761 q 343 692 397 761 q 289 465 289 622 q 313 282 289 347 q 388 191 338 217 q 518 165 439 165 q 626 176 571 165 q 728 196 682 186 l 743 18 q 637 -7 700 4 q 507 -18 574 -18 q 265 28 364 -18 q 114 180 165 74 q 63 465 63 286 q 113 742 63 638 q 264 893 164 846 q 510 940 364 940 q 638 931 575 940 q 739 913 700 922 m 396 -46 l 535 -46 q 568 -97 554 -69 q 582 -156 582 -125 q 547 -244 582 -211 q 425 -278 511 -278 q 354 -272 390 -278 q 286 -256 318 -267 l 308 -144 q 344 -153 322 -149 q 381 -157 367 -157 q 416 -147 407 -157 q 425 -118 425 -137 q 417 -83 425 -101 q 396 -46 408 -64 z "},"Ć":{"ha":797,"x_min":63,"x_max":743,"o":"m 739 913 l 717 733 q 614 753 674 746 q 500 761 554 761 q 343 692 397 761 q 289 465 289 622 q 313 282 289 347 q 388 191 338 217 q 518 165 439 165 q 626 176 571 165 q 728 196 682 186 l 743 18 q 637 -7 700 4 q 507 -18 574 -18 q 265 28 364 -18 q 114 180 165 74 q 63 465 63 286 q 113 742 63 638 q 264 893 164 846 q 510 940 364 940 q 638 931 575 940 q 739 913 700 922 m 481 1231 l 701 1231 l 519 1007 l 364 1007 l 481 1231 z "},"Č":{"ha":797,"x_min":63,"x_max":743,"o":"m 739 913 l 717 733 q 614 753 674 746 q 500 761 554 761 q 343 692 397 761 q 289 465 289 622 q 313 282 289 347 q 388 191 338 217 q 518 165 439 165 q 626 176 571 165 q 728 196 682 186 l 743 18 q 637 -7 700 4 q 507 -18 574 -18 q 265 28 364 -18 q 114 180 165 74 q 63 465 63 286 q 113 742 63 638 q 264 893 164 846 q 510 940 364 940 q 638 931 575 940 q 739 913 700 922 m 371 1007 l 219 1231 l 394 1231 l 460 1114 l 524 1231 l 699 1231 l 547 1007 l 371 1007 z "},"Ĉ":{"ha":797,"x_min":63,"x_max":743,"o":"m 739 913 l 717 733 q 614 753 674 746 q 500 761 554 761 q 343 692 397 761 q 289 465 289 622 q 313 282 289 347 q 388 191 338 217 q 518 165 439 165 q 626 176 571 165 q 728 196 682 186 l 743 18 q 637 -7 700 4 q 507 -18 574 -18 q 265 28 364 -18 q 114 180 165 74 q 63 465 63 286 q 113 742 63 638 q 264 893 164 846 q 510 940 364 940 q 638 931 575 940 q 739 913 700 922 m 392 1231 l 568 1231 l 719 1007 l 544 1007 l 481 1124 l 415 1007 l 240 1007 l 392 1231 z "},"Ċ":{"ha":797,"x_min":63,"x_max":743,"o":"m 739 913 l 717 733 q 614 753 674 746 q 500 761 554 761 q 343 692 397 761 q 289 465 289 622 q 313 282 289 347 q 388 191 338 217 q 518 165 439 165 q 626 176 571 165 q 728 196 682 186 l 743 18 q 637 -7 700 4 q 507 -18 574 -18 q 265 28 364 -18 q 114 180 165 74 q 63 465 63 286 q 113 742 63 638 q 264 893 164 846 q 510 940 364 940 q 638 931 575 940 q 739 913 700 922 m 603 1122 q 569 1041 603 1068 q 481 1014 536 1014 q 393 1041 426 1014 q 360 1122 360 1068 q 393 1203 360 1175 q 481 1231 426 1231 q 569 1203 536 1231 q 603 1122 603 1175 z "},"Ď":{"ha":940,"x_min":97,"x_max":879,"o":"m 97 924 l 449 924 q 767 816 654 924 q 879 475 879 708 q 858 279 879 369 q 785 122 838 189 q 640 19 732 56 q 403 -18 547 -18 q 261 -10 338 -18 q 97 17 185 -1 l 97 924 m 314 749 l 314 169 q 363 163 339 165 q 411 161 388 161 q 560 197 507 161 q 635 301 614 232 q 657 471 657 369 q 603 686 657 624 q 449 749 550 749 l 314 749 m 322 1007 l 171 1231 l 346 1231 l 411 1114 l 475 1231 l 650 1231 l 499 1007 l 322 1007 z "},"Đ":{"ha":1004,"x_min":46,"x_max":943,"o":"m 46 382 l 46 557 l 574 557 l 574 382 l 46 382 m 161 924 l 513 924 q 831 816 718 924 q 943 475 943 708 q 922 279 943 369 q 849 122 901 189 q 703 19 796 56 q 467 -18 611 -18 q 325 -10 401 -18 q 161 17 249 -1 l 161 924 m 378 749 l 378 169 q 427 163 403 165 q 475 161 451 161 q 624 197 571 161 q 699 301 678 232 q 721 471 721 369 q 667 686 721 624 q 513 749 614 749 l 378 749 z "},"É":{"ha":758,"x_min":89,"x_max":697,"o":"m 89 924 l 681 924 l 681 749 l 306 749 l 306 557 l 654 557 l 654 382 l 306 382 l 306 272 q 341 194 306 214 q 428 175 376 175 l 697 175 l 697 0 l 417 0 q 240 23 313 0 q 128 101 167 46 q 89 253 89 156 l 89 924 m 411 1231 l 632 1231 l 450 1007 l 294 1007 l 411 1231 z "},"Ê":{"ha":758,"x_min":89,"x_max":697,"o":"m 89 924 l 681 924 l 681 749 l 306 749 l 306 557 l 654 557 l 654 382 l 306 382 l 306 272 q 341 194 306 214 q 428 175 376 175 l 697 175 l 697 0 l 417 0 q 240 23 313 0 q 128 101 167 46 q 89 253 89 156 l 89 924 m 322 1231 l 499 1231 l 650 1007 l 475 1007 l 411 1124 l 346 1007 l 171 1007 l 322 1231 z "},"Ë":{"ha":758,"x_min":89,"x_max":697,"o":"m 89 924 l 681 924 l 681 749 l 306 749 l 306 557 l 654 557 l 654 382 l 306 382 l 306 272 q 341 194 306 214 q 428 175 376 175 l 697 175 l 697 0 l 417 0 q 240 23 313 0 q 128 101 167 46 q 89 253 89 156 l 89 924 m 383 1125 q 355 1047 383 1074 q 281 1021 326 1021 q 206 1047 233 1021 q 178 1125 178 1074 q 206 1203 178 1176 q 279 1229 233 1229 q 355 1203 326 1229 q 383 1125 383 1176 m 644 1125 q 616 1047 644 1074 q 540 1021 588 1021 q 467 1047 494 1021 q 439 1125 439 1074 q 467 1203 439 1176 q 540 1229 494 1229 q 616 1203 588 1229 q 644 1125 644 1176 z "},"È":{"ha":758,"x_min":89,"x_max":697,"o":"m 89 924 l 681 924 l 681 749 l 306 749 l 306 557 l 654 557 l 654 382 l 306 382 l 306 272 q 341 194 306 214 q 428 175 376 175 l 697 175 l 697 0 l 417 0 q 240 23 313 0 q 128 101 167 46 q 89 253 89 156 l 89 924 m 179 1231 l 401 1231 l 515 1007 l 363 1007 l 179 1231 z "},"Ĕ":{"ha":758,"x_min":89,"x_max":697,"o":"m 89 924 l 681 924 l 681 749 l 306 749 l 306 557 l 654 557 l 654 382 l 306 382 l 306 272 q 341 194 306 214 q 428 175 376 175 l 697 175 l 697 0 l 417 0 q 240 23 313 0 q 128 101 167 46 q 89 253 89 156 l 89 924 m 182 1192 l 342 1192 q 362 1135 343 1153 q 411 1117 381 1117 q 461 1135 443 1117 q 481 1192 479 1153 l 639 1192 q 572 1034 633 1078 q 411 990 510 990 q 251 1034 313 990 q 182 1192 189 1078 z "},"Ě":{"ha":758,"x_min":89,"x_max":697,"o":"m 89 924 l 681 924 l 681 749 l 306 749 l 306 557 l 654 557 l 654 382 l 306 382 l 306 272 q 341 194 306 214 q 428 175 376 175 l 697 175 l 697 0 l 417 0 q 240 23 313 0 q 128 101 167 46 q 89 253 89 156 l 89 924 m 322 1007 l 171 1231 l 346 1231 l 411 1114 l 475 1231 l 650 1231 l 499 1007 l 322 1007 z "},"Ė":{"ha":758,"x_min":89,"x_max":697,"o":"m 89 924 l 681 924 l 681 749 l 306 749 l 306 557 l 654 557 l 654 382 l 306 382 l 306 272 q 341 194 306 214 q 428 175 376 175 l 697 175 l 697 0 l 417 0 q 240 23 313 0 q 128 101 167 46 q 89 253 89 156 l 89 924 m 533 1122 q 500 1041 533 1068 q 411 1014 467 1014 q 324 1041 357 1014 q 290 1122 290 1068 q 324 1203 290 1175 q 411 1231 357 1231 q 500 1203 467 1231 q 533 1122 533 1175 z "},"Ē":{"ha":758,"x_min":89,"x_max":697,"o":"m 89 924 l 681 924 l 681 749 l 306 749 l 306 557 l 654 557 l 654 382 l 306 382 l 306 272 q 341 194 306 214 q 428 175 376 175 l 697 175 l 697 0 l 417 0 q 240 23 313 0 q 128 101 167 46 q 89 253 89 156 l 89 924 m 201 1167 l 621 1167 l 621 1028 l 201 1028 l 201 1167 z "},"Ę":{"ha":764,"x_min":89,"x_max":703,"o":"m 683 -139 l 703 -249 q 647 -266 676 -260 q 588 -272 618 -272 q 483 -243 526 -272 q 440 -151 440 -214 q 458 -90 440 -118 q 501 -40 475 -62 q 557 0 528 -17 l 697 0 q 651 -37 675 -18 q 612 -76 628 -57 q 596 -115 596 -96 q 606 -143 596 -135 q 635 -151 617 -151 q 658 -148 646 -151 q 683 -139 669 -144 m 89 924 l 681 924 l 681 749 l 306 749 l 306 557 l 654 557 l 654 382 l 306 382 l 306 272 q 341 194 306 214 q 428 175 376 175 l 697 175 l 697 0 l 417 0 q 240 23 313 0 q 128 101 167 46 q 89 253 89 156 l 89 924 z "},"Ǽ":{"ha":1286,"x_min":86,"x_max":1225,"o":"m 772 1231 l 993 1231 l 811 1007 l 656 1007 l 772 1231 m 631 924 l 1208 924 l 1208 749 l 833 749 l 833 544 l 1182 544 l 1182 369 l 833 369 l 833 274 q 868 194 833 214 q 954 175 903 175 l 1225 175 l 1225 0 l 943 0 q 766 24 839 0 q 654 102 693 47 q 615 253 615 157 l 615 369 l 300 369 l 300 0 l 86 0 l 86 600 q 120 781 86 704 q 231 899 154 857 q 435 940 307 940 q 552 923 500 940 q 631 872 604 906 l 631 924 m 300 542 l 614 542 l 614 615 q 577 723 614 685 q 457 761 540 761 q 337 723 374 761 q 300 615 300 685 l 300 542 z "},"Ğ":{"ha":911,"x_min":61,"x_max":832,"o":"m 817 911 l 803 732 q 687 752 756 743 q 550 761 618 761 q 401 732 460 761 q 315 638 343 703 q 288 465 288 572 q 313 278 288 344 q 385 187 338 213 q 499 161 433 161 q 563 165 528 161 q 626 174 599 168 l 626 357 l 471 357 l 471 526 l 832 526 l 832 36 q 743 12 796 25 q 631 -10 690 -1 q 511 -18 571 -18 q 322 5 406 -18 q 181 82 239 28 q 92 230 122 136 q 61 465 61 324 q 120 747 61 643 q 288 896 179 851 q 540 940 396 940 q 638 936 585 940 q 738 925 690 932 q 817 911 786 918 m 261 1192 l 421 1192 q 441 1135 422 1153 q 490 1117 460 1117 q 540 1135 522 1117 q 560 1192 558 1153 l 718 1192 q 651 1034 713 1078 q 490 990 589 990 q 330 1034 392 990 q 261 1192 268 1078 z "},"Ĝ":{"ha":911,"x_min":61,"x_max":832,"o":"m 817 911 l 803 732 q 687 752 756 743 q 550 761 618 761 q 401 732 460 761 q 315 638 343 703 q 288 465 288 572 q 313 278 288 344 q 385 187 338 213 q 499 161 433 161 q 563 165 528 161 q 626 174 599 168 l 626 357 l 471 357 l 471 526 l 832 526 l 832 36 q 743 12 796 25 q 631 -10 690 -1 q 511 -18 571 -18 q 322 5 406 -18 q 181 82 239 28 q 92 230 122 136 q 61 465 61 324 q 120 747 61 643 q 288 896 179 851 q 540 940 396 940 q 638 936 585 940 q 738 925 690 932 q 817 911 786 918 m 401 1231 l 578 1231 l 729 1007 l 554 1007 l 490 1124 l 425 1007 l 250 1007 l 401 1231 z "},"Ģ":{"ha":911,"x_min":61,"x_max":832,"o":"m 817 911 l 803 732 q 687 752 756 743 q 550 761 618 761 q 401 732 460 761 q 315 638 343 703 q 288 465 288 572 q 313 278 288 344 q 385 187 338 213 q 499 161 433 161 q 563 165 528 161 q 626 174 599 168 l 626 357 l 471 357 l 471 526 l 832 526 l 832 36 q 743 12 796 25 q 631 -10 690 -1 q 511 -18 571 -18 q 322 5 406 -18 q 181 82 239 28 q 92 230 122 136 q 61 465 61 324 q 120 747 61 643 q 288 896 179 851 q 540 940 396 940 q 638 936 585 940 q 738 925 690 932 q 817 911 786 918 m 389 -64 l 593 -64 l 451 -261 l 303 -261 l 389 -64 z "},"Ġ":{"ha":911,"x_min":61,"x_max":832,"o":"m 817 911 l 803 732 q 687 752 756 743 q 550 761 618 761 q 401 732 460 761 q 315 638 343 703 q 288 465 288 572 q 313 278 288 344 q 385 187 338 213 q 499 161 433 161 q 563 165 528 161 q 626 174 599 168 l 626 357 l 471 357 l 471 526 l 832 526 l 832 36 q 743 12 796 25 q 631 -10 690 -1 q 511 -18 571 -18 q 322 5 406 -18 q 181 82 239 28 q 92 230 122 136 q 61 465 61 324 q 120 747 61 643 q 288 896 179 851 q 540 940 396 940 q 638 936 585 940 q 738 925 690 932 q 817 911 786 918 m 613 1122 q 579 1041 613 1068 q 490 1014 546 1014 q 403 1041 436 1014 q 369 1122 369 1068 q 403 1203 369 1175 q 490 1231 436 1231 q 579 1203 546 1231 q 613 1122 613 1175 z "},"Ħ":{"ha":989,"x_min":-19,"x_max":1008,"o":"m 97 924 l 314 924 l 314 529 l 675 529 l 675 924 l 892 924 l 892 0 l 675 0 l 675 346 l 314 346 l 314 0 l 97 0 l 97 924 m -19 643 l -19 799 l 1008 799 l 1008 643 l -19 643 z "},"Ĥ":{"ha":989,"x_min":97,"x_max":892,"o":"m 97 924 l 314 924 l 314 565 l 675 565 l 675 924 l 892 924 l 892 0 l 675 0 l 675 382 l 314 382 l 314 0 l 97 0 l 97 924 m 393 1231 l 569 1231 l 721 1007 l 546 1007 l 482 1124 l 417 1007 l 242 1007 l 393 1231 z "},"Í":{"ha":411,"x_min":97,"x_max":457,"o":"m 97 924 l 314 924 l 314 0 l 97 0 l 97 924 m 236 1231 l 457 1231 l 275 1007 l 119 1007 l 236 1231 z "},"Î":{"ha":411,"x_min":-36,"x_max":443,"o":"m 97 924 l 314 924 l 314 0 l 97 0 l 97 924 m 115 1231 l 292 1231 l 443 1007 l 268 1007 l 204 1124 l 139 1007 l -36 1007 l 115 1231 z "},"Ï":{"ha":411,"x_min":-29,"x_max":438,"o":"m 97 924 l 314 924 l 314 0 l 97 0 l 97 924 m 176 1125 q 148 1047 176 1074 q 74 1021 119 1021 q -1 1047 26 1021 q -29 1125 -29 1074 q -1 1203 -29 1176 q 72 1229 26 1229 q 148 1203 119 1229 q 176 1125 176 1176 m 438 1125 q 409 1047 438 1074 q 333 1021 381 1021 q 260 1047 288 1021 q 232 1125 232 1074 q 260 1203 232 1176 q 333 1229 288 1229 q 409 1203 381 1229 q 438 1125 438 1176 z "},"Ì":{"ha":411,"x_min":-28,"x_max":314,"o":"m 97 924 l 314 924 l 314 0 l 97 0 l 97 924 m -28 1231 l 194 1231 l 308 1007 l 156 1007 l -28 1231 z "},"Ĭ":{"ha":411,"x_min":-25,"x_max":432,"o":"m 97 924 l 314 924 l 314 0 l 97 0 l 97 924 m -25 1192 l 135 1192 q 155 1135 136 1153 q 204 1117 174 1117 q 254 1135 236 1117 q 274 1192 272 1153 l 432 1192 q 365 1034 426 1078 q 204 990 303 990 q 44 1034 106 990 q -25 1192 -18 1078 z "},"İ":{"ha":411,"x_min":83,"x_max":326,"o":"m 97 924 l 314 924 l 314 0 l 97 0 l 97 924 m 326 1122 q 293 1041 326 1068 q 204 1014 260 1014 q 117 1041 150 1014 q 83 1122 83 1068 q 117 1203 83 1175 q 204 1231 150 1231 q 293 1203 260 1231 q 326 1122 326 1175 z "},"Ī":{"ha":411,"x_min":-6,"x_max":414,"o":"m 97 924 l 314 924 l 314 0 l 97 0 l 97 924 m -6 1167 l 414 1167 l 414 1028 l -6 1028 l -6 1167 z "},"Į":{"ha":411,"x_min":81,"x_max":371,"o":"m 97 924 l 314 924 l 314 0 l 97 0 l 97 924 m 351 -136 l 371 -246 q 308 -265 342 -258 q 240 -272 275 -272 q 127 -243 174 -272 q 81 -151 81 -214 q 109 -62 81 -101 q 174 0 138 -22 l 314 0 q 261 -51 286 -22 q 236 -108 236 -81 q 249 -142 236 -132 q 283 -151 261 -151 q 317 -148 300 -151 q 351 -136 333 -144 z "},"Ĩ":{"ha":411,"x_min":-53,"x_max":460,"o":"m 97 924 l 314 924 l 314 0 l 97 0 l 97 924 m 82 1018 l -53 1071 q 0 1172 -37 1129 q 103 1214 38 1214 q 169 1199 139 1214 q 224 1170 200 1185 q 268 1156 249 1156 q 306 1174 296 1156 q 324 1218 315 1192 l 460 1168 q 399 1060 436 1101 q 300 1018 361 1018 q 235 1033 265 1018 q 181 1065 206 1049 q 139 1081 157 1081 q 100 1060 111 1081 q 82 1018 89 1040 z "},"Ĵ":{"ha":415,"x_min":-74,"x_max":443,"o":"m 100 924 l 318 924 l 318 138 q 292 -14 318 53 q 200 -143 265 -81 q 18 -276 135 -206 l -74 -122 q 31 -38 -7 -76 q 84 42 68 0 q 100 143 100 85 l 100 924 m 115 1274 l 292 1274 l 443 1050 l 268 1050 l 204 1167 l 139 1050 l -36 1050 l 115 1274 z "},"Ķ":{"ha":943,"x_min":97,"x_max":906,"o":"m 97 924 l 314 924 l 314 493 l 668 924 l 906 924 l 583 536 q 711 447 657 514 q 811 253 765 381 l 904 0 l 661 0 l 599 196 q 551 312 575 271 q 498 370 526 353 q 432 389 469 388 l 314 251 l 314 0 l 97 0 l 97 924 m 406 -64 l 610 -64 l 468 -261 l 319 -261 l 406 -64 z "},"Ĺ":{"ha":718,"x_min":97,"x_max":674,"o":"m 97 924 l 314 924 l 314 175 l 674 175 l 674 0 l 97 0 l 97 924 m 222 1231 l 443 1231 l 261 1007 l 106 1007 l 222 1231 z "},"Ľ":{"ha":718,"x_min":97,"x_max":674,"o":"m 97 924 l 314 924 l 314 175 l 674 175 l 674 0 l 97 0 l 97 924 m 439 924 l 658 924 l 544 628 l 388 628 l 439 924 z "},"Ļ":{"ha":718,"x_min":97,"x_max":674,"o":"m 97 924 l 314 924 l 314 175 l 674 175 l 674 0 l 97 0 l 97 924 m 288 -64 l 492 -64 l 350 -261 l 201 -261 l 288 -64 z "},"Ŀ":{"ha":718,"x_min":97,"x_max":685,"o":"m 97 924 l 314 924 l 314 175 l 674 175 l 674 0 l 97 0 l 97 924 m 685 483 q 651 403 685 431 q 564 375 618 375 q 476 403 510 375 q 443 483 443 431 q 476 564 443 536 q 564 592 510 592 q 651 564 618 592 q 685 483 685 536 z "},"Ñ":{"ha":1000,"x_min":97,"x_max":903,"o":"m 97 924 l 265 924 l 690 447 l 690 924 l 903 924 l 903 0 l 690 0 l 690 164 l 307 597 l 307 0 l 97 0 l 97 924 m 364 1018 l 229 1071 q 282 1172 244 1129 q 385 1214 319 1214 q 451 1199 421 1214 q 506 1170 482 1185 q 550 1156 531 1156 q 588 1174 578 1156 q 606 1218 597 1192 l 742 1168 q 681 1060 718 1101 q 582 1018 643 1018 q 517 1033 547 1018 q 463 1065 488 1049 q 421 1081 439 1081 q 382 1060 393 1081 q 364 1018 371 1040 z "},"Ń":{"ha":1000,"x_min":97,"x_max":903,"o":"m 97 924 l 265 924 l 690 447 l 690 924 l 903 924 l 903 0 l 690 0 l 690 164 l 307 597 l 307 0 l 97 0 l 97 924 m 486 1231 l 707 1231 l 525 1007 l 369 1007 l 486 1231 z "},"Ň":{"ha":1000,"x_min":97,"x_max":903,"o":"m 97 924 l 265 924 l 690 447 l 690 924 l 903 924 l 903 0 l 690 0 l 690 164 l 307 597 l 307 0 l 97 0 l 97 924 m 397 1007 l 246 1231 l 421 1231 l 486 1114 l 550 1231 l 725 1231 l 574 1007 l 397 1007 z "},"Ņ":{"ha":1000,"x_min":97,"x_max":903,"o":"m 97 924 l 265 924 l 690 447 l 690 924 l 903 924 l 903 0 l 690 0 l 690 164 l 307 597 l 307 0 l 97 0 l 97 924 m 424 -64 l 628 -64 l 486 -261 l 338 -261 l 424 -64 z "},"Ŋ":{"ha":1000,"x_min":97,"x_max":903,"o":"m 97 924 l 265 924 l 690 447 l 690 924 l 903 924 l 903 278 l 690 278 l 690 164 l 307 597 l 307 0 l 97 0 l 97 924 m 690 924 l 903 924 l 903 138 q 876 -14 903 53 q 785 -143 850 -81 q 603 -276 719 -206 l 511 -122 q 618 -37 579 -75 q 674 42 657 0 q 690 143 690 85 l 690 924 z "},"Ó":{"ha":975,"x_min":63,"x_max":913,"o":"m 488 940 q 808 824 703 940 q 913 460 913 708 q 808 98 913 214 q 488 -18 703 -18 q 168 98 274 -18 q 63 460 63 214 q 168 824 63 708 q 488 940 274 940 m 489 761 q 338 694 388 761 q 289 461 289 628 q 338 228 289 294 q 489 161 388 161 q 637 228 588 161 q 686 461 686 294 q 637 694 686 628 q 489 761 588 761 m 485 1231 l 706 1231 l 524 1007 l 368 1007 l 485 1231 z "},"Ô":{"ha":975,"x_min":63,"x_max":913,"o":"m 488 940 q 808 824 703 940 q 913 460 913 708 q 808 98 913 214 q 488 -18 703 -18 q 168 98 274 -18 q 63 460 63 214 q 168 824 63 708 q 488 940 274 940 m 489 761 q 338 694 388 761 q 289 461 289 628 q 338 228 289 294 q 489 161 388 161 q 637 228 588 161 q 686 461 686 294 q 637 694 686 628 q 489 761 588 761 m 396 1231 l 572 1231 l 724 1007 l 549 1007 l 485 1124 l 419 1007 l 244 1007 l 396 1231 z "},"Ö":{"ha":975,"x_min":63,"x_max":913,"o":"m 488 940 q 808 824 703 940 q 913 460 913 708 q 808 98 913 214 q 488 -18 703 -18 q 168 98 274 -18 q 63 460 63 214 q 168 824 63 708 q 488 940 274 940 m 489 761 q 338 694 388 761 q 289 461 289 628 q 338 228 289 294 q 489 161 388 161 q 637 228 588 161 q 686 461 686 294 q 637 694 686 628 q 489 761 588 761 m 457 1125 q 428 1047 457 1074 q 354 1021 400 1021 q 279 1047 307 1021 q 251 1125 251 1074 q 279 1203 251 1176 q 353 1229 307 1229 q 428 1203 400 1229 q 457 1125 457 1176 m 718 1125 q 690 1047 718 1074 q 614 1021 661 1021 q 540 1047 568 1021 q 513 1125 513 1074 q 540 1203 513 1176 q 614 1229 568 1229 q 690 1203 661 1229 q 718 1125 718 1176 z "},"Ò":{"ha":975,"x_min":63,"x_max":913,"o":"m 488 940 q 808 824 703 940 q 913 460 913 708 q 808 98 913 214 q 488 -18 703 -18 q 168 98 274 -18 q 63 460 63 214 q 168 824 63 708 q 488 940 274 940 m 489 761 q 338 694 388 761 q 289 461 289 628 q 338 228 289 294 q 489 161 388 161 q 637 228 588 161 q 686 461 686 294 q 637 694 686 628 q 489 761 588 761 m 253 1231 l 475 1231 l 589 1007 l 436 1007 l 253 1231 z "},"Õ":{"ha":975,"x_min":63,"x_max":913,"o":"m 488 940 q 808 824 703 940 q 913 460 913 708 q 808 98 913 214 q 488 -18 703 -18 q 168 98 274 -18 q 63 460 63 214 q 168 824 63 708 q 488 940 274 940 m 489 761 q 338 694 388 761 q 289 461 289 628 q 338 228 289 294 q 489 161 388 161 q 637 228 588 161 q 686 461 686 294 q 637 694 686 628 q 489 761 588 761 m 363 1018 l 228 1071 q 281 1172 243 1129 q 383 1214 318 1214 q 450 1199 419 1214 q 505 1170 481 1185 q 549 1156 529 1156 q 586 1174 576 1156 q 604 1218 596 1192 l 740 1168 q 679 1060 717 1101 q 581 1018 642 1018 q 516 1033 546 1018 q 462 1065 486 1049 q 419 1081 438 1081 q 381 1060 392 1081 q 363 1018 369 1040 z "},"Ŏ":{"ha":975,"x_min":63,"x_max":913,"o":"m 488 940 q 808 824 703 940 q 913 460 913 708 q 808 98 913 214 q 488 -18 703 -18 q 168 98 274 -18 q 63 460 63 214 q 168 824 63 708 q 488 940 274 940 m 489 761 q 338 694 388 761 q 289 461 289 628 q 338 228 289 294 q 489 161 388 161 q 637 228 588 161 q 686 461 686 294 q 637 694 686 628 q 489 761 588 761 m 256 1192 l 415 1192 q 435 1135 417 1153 q 485 1117 454 1117 q 535 1135 517 1117 q 554 1192 553 1153 l 713 1192 q 645 1034 707 1078 q 485 990 583 990 q 324 1034 386 990 q 256 1192 263 1078 z "},"Ő":{"ha":975,"x_min":63,"x_max":913,"o":"m 488 940 q 808 824 703 940 q 913 460 913 708 q 808 98 913 214 q 488 -18 703 -18 q 168 98 274 -18 q 63 460 63 214 q 168 824 63 708 q 488 940 274 940 m 489 761 q 338 694 388 761 q 289 461 289 628 q 338 228 289 294 q 489 161 388 161 q 637 228 588 161 q 686 461 686 294 q 637 694 686 628 q 489 761 588 761 m 353 1231 l 522 1231 l 442 1007 l 315 1007 l 353 1231 m 569 1231 l 754 1231 l 640 1007 l 511 1007 l 569 1231 z "},"Ō":{"ha":975,"x_min":63,"x_max":913,"o":"m 488 940 q 808 824 703 940 q 913 460 913 708 q 808 98 913 214 q 488 -18 703 -18 q 168 98 274 -18 q 63 460 63 214 q 168 824 63 708 q 488 940 274 940 m 489 761 q 338 694 388 761 q 289 461 289 628 q 338 228 289 294 q 489 161 388 161 q 637 228 588 161 q 686 461 686 294 q 637 694 686 628 q 489 761 588 761 m 275 1167 l 694 1167 l 694 1028 l 275 1028 l 275 1167 z "},"Ǿ":{"ha":975,"x_min":63,"x_max":913,"o":"m 488 940 q 808 824 703 940 q 913 460 913 708 q 808 98 913 214 q 488 -18 703 -18 q 168 98 274 -18 q 63 460 63 214 q 168 824 63 708 q 488 940 274 940 m 489 775 q 378 745 422 775 q 311 647 333 715 q 289 461 289 578 q 311 276 289 344 q 378 177 333 207 q 489 147 422 147 q 599 177 556 147 q 665 276 643 207 q 686 461 686 344 q 665 647 686 578 q 599 745 643 715 q 489 775 556 775 m 907 938 l 208 -118 l 67 -22 l 765 1033 l 907 938 m 485 1231 l 706 1231 l 524 1007 l 368 1007 l 485 1231 z "},"Ŕ":{"ha":874,"x_min":97,"x_max":833,"o":"m 97 924 l 410 924 q 617 895 535 924 q 741 801 700 867 q 782 622 782 736 q 758 506 782 551 q 697 433 735 460 q 618 392 660 407 q 705 338 669 374 q 763 233 740 303 l 833 0 l 607 0 l 550 186 q 517 262 535 233 q 470 303 499 290 q 394 317 442 317 l 314 317 l 314 0 l 97 0 l 97 924 m 314 749 l 314 493 l 407 493 q 528 523 490 493 q 567 622 567 553 q 528 723 567 697 q 410 749 490 749 l 314 749 m 406 1231 l 626 1231 l 444 1007 l 289 1007 l 406 1231 z "},"Ř":{"ha":874,"x_min":97,"x_max":833,"o":"m 97 924 l 410 924 q 617 895 535 924 q 741 801 700 867 q 782 622 782 736 q 758 506 782 551 q 697 433 735 460 q 618 392 660 407 q 705 338 669 374 q 763 233 740 303 l 833 0 l 607 0 l 550 186 q 517 262 535 233 q 470 303 499 290 q 394 317 442 317 l 314 317 l 314 0 l 97 0 l 97 924 m 314 749 l 314 493 l 407 493 q 528 523 490 493 q 567 622 567 553 q 528 723 567 697 q 410 749 490 749 l 314 749 m 317 1007 l 165 1231 l 340 1231 l 406 1114 l 469 1231 l 644 1231 l 493 1007 l 317 1007 z "},"Ŗ":{"ha":874,"x_min":97,"x_max":833,"o":"m 97 924 l 410 924 q 617 895 535 924 q 741 801 700 867 q 782 622 782 736 q 758 506 782 551 q 697 433 735 460 q 618 392 660 407 q 705 338 669 374 q 763 233 740 303 l 833 0 l 607 0 l 550 186 q 517 262 535 233 q 470 303 499 290 q 394 317 442 317 l 314 317 l 314 0 l 97 0 l 97 924 m 314 749 l 314 493 l 407 493 q 528 523 490 493 q 567 622 567 553 q 528 723 567 697 q 410 749 490 749 l 314 749 m 365 -64 l 569 -64 l 428 -261 l 279 -261 l 365 -64 z "},"Š":{"ha":764,"x_min":60,"x_max":713,"o":"m 671 915 l 656 744 q 550 760 610 753 q 443 768 490 768 q 323 754 364 768 q 282 701 282 740 q 313 638 282 665 q 393 585 344 610 q 497 531 442 560 q 601 464 553 503 q 681 372 650 425 q 713 242 713 318 q 622 44 713 106 q 360 -18 531 -18 q 194 -3 269 -18 q 63 26 119 11 l 81 197 q 208 167 144 179 q 351 154 271 154 q 451 168 413 154 q 490 225 490 182 q 459 297 490 265 q 379 356 428 328 q 275 415 331 385 q 171 485 219 446 q 91 576 122 524 q 60 699 60 628 q 108 844 60 792 q 242 917 156 896 q 444 939 328 939 q 564 931 501 939 q 671 915 626 924 m 311 1007 l 160 1231 l 335 1231 l 400 1114 l 464 1231 l 639 1231 l 488 1007 l 311 1007 z "},"Ś":{"ha":764,"x_min":60,"x_max":713,"o":"m 671 915 l 656 744 q 550 760 610 753 q 443 768 490 768 q 323 754 364 768 q 282 701 282 740 q 313 638 282 665 q 393 585 344 610 q 497 531 442 560 q 601 464 553 503 q 681 372 650 425 q 713 242 713 318 q 622 44 713 106 q 360 -18 531 -18 q 194 -3 269 -18 q 63 26 119 11 l 81 197 q 208 167 144 179 q 351 154 271 154 q 451 168 413 154 q 490 225 490 182 q 459 297 490 265 q 379 356 428 328 q 275 415 331 385 q 171 485 219 446 q 91 576 122 524 q 60 699 60 628 q 108 844 60 792 q 242 917 156 896 q 444 939 328 939 q 564 931 501 939 q 671 915 626 924 m 400 1231 l 621 1231 l 439 1007 l 283 1007 l 400 1231 z "},"Ş":{"ha":764,"x_min":60,"x_max":713,"o":"m 671 915 l 656 744 q 550 760 610 753 q 443 768 490 768 q 323 754 364 768 q 282 701 282 740 q 313 638 282 665 q 393 585 344 610 q 497 531 442 560 q 601 464 553 503 q 681 372 650 425 q 713 242 713 318 q 622 44 713 106 q 360 -18 531 -18 q 194 -3 269 -18 q 63 26 119 11 l 81 197 q 208 167 144 179 q 351 154 271 154 q 451 168 413 154 q 490 225 490 182 q 459 297 490 265 q 379 356 428 328 q 275 415 331 385 q 171 485 219 446 q 91 576 122 524 q 60 699 60 628 q 108 844 60 792 q 242 917 156 896 q 444 939 328 939 q 564 931 501 939 q 671 915 626 924 m 313 -46 l 451 -46 q 485 -97 471 -69 q 499 -156 499 -125 q 463 -244 499 -211 q 342 -278 428 -278 q 271 -272 307 -278 q 203 -256 235 -267 l 225 -144 q 261 -153 239 -149 q 297 -157 283 -157 q 333 -147 324 -157 q 342 -118 342 -137 q 333 -83 342 -101 q 313 -46 325 -64 z "},"Ŝ":{"ha":764,"x_min":60,"x_max":713,"o":"m 671 915 l 656 744 q 550 760 610 753 q 443 768 490 768 q 323 754 364 768 q 282 701 282 740 q 313 638 282 665 q 393 585 344 610 q 497 531 442 560 q 601 464 553 503 q 681 372 650 425 q 713 242 713 318 q 622 44 713 106 q 360 -18 531 -18 q 194 -3 269 -18 q 63 26 119 11 l 81 197 q 208 167 144 179 q 351 154 271 154 q 451 168 413 154 q 490 225 490 182 q 459 297 490 265 q 379 356 428 328 q 275 415 331 385 q 171 485 219 446 q 91 576 122 524 q 60 699 60 628 q 108 844 60 792 q 242 917 156 896 q 444 939 328 939 q 564 931 501 939 q 671 915 626 924 m 311 1231 l 488 1231 l 639 1007 l 464 1007 l 400 1124 l 335 1007 l 160 1007 l 311 1231 z "},"Ș":{"ha":764,"x_min":60,"x_max":713,"o":"m 671 915 l 656 744 q 550 760 610 753 q 443 768 490 768 q 323 754 364 768 q 282 701 282 740 q 313 638 282 665 q 393 585 344 610 q 497 531 442 560 q 601 464 553 503 q 681 372 650 425 q 713 242 713 318 q 622 44 713 106 q 360 -18 531 -18 q 194 -3 269 -18 q 63 26 119 11 l 81 197 q 208 167 144 179 q 351 154 271 154 q 451 168 413 154 q 490 225 490 182 q 459 297 490 265 q 379 356 428 328 q 275 415 331 385 q 171 485 219 446 q 91 576 122 524 q 60 699 60 628 q 108 844 60 792 q 242 917 156 896 q 444 939 328 939 q 564 931 501 939 q 671 915 626 924 m 264 -64 l 468 -64 l 326 -261 l 178 -261 l 264 -64 z "},"Ţ":{"ha":867,"x_min":44,"x_max":822,"o":"m 44 924 l 822 924 l 822 749 l 542 749 l 542 0 l 325 0 l 325 749 l 44 749 l 44 924 m 329 -64 l 533 -64 l 392 -261 l 243 -261 l 329 -64 z "},"Ŧ":{"ha":875,"x_min":44,"x_max":831,"o":"m 44 924 l 831 924 l 831 760 l 557 760 l 557 0 l 318 0 l 318 760 l 44 760 l 44 924 m 747 357 l 128 357 l 128 521 l 747 521 l 747 357 z "},"Ť":{"ha":867,"x_min":44,"x_max":822,"o":"m 44 924 l 822 924 l 822 749 l 542 749 l 542 0 l 325 0 l 325 749 l 44 749 l 44 924 m 342 1007 l 190 1231 l 365 1231 l 431 1114 l 494 1231 l 669 1231 l 518 1007 l 342 1007 z "},"Ú":{"ha":947,"x_min":86,"x_max":850,"o":"m 86 924 l 304 924 l 304 319 q 324 231 304 265 q 383 178 344 196 q 476 161 421 161 q 568 167 526 161 q 633 179 610 174 l 633 924 l 850 924 l 850 40 q 689 2 786 22 q 469 -18 592 -18 q 244 21 328 -18 q 123 133 160 60 q 86 308 86 206 l 86 924 m 468 1231 l 689 1231 l 507 1007 l 351 1007 l 468 1231 z "},"Û":{"ha":947,"x_min":86,"x_max":850,"o":"m 86 924 l 304 924 l 304 319 q 324 231 304 265 q 383 178 344 196 q 476 161 421 161 q 568 167 526 161 q 633 179 610 174 l 633 924 l 850 924 l 850 40 q 689 2 786 22 q 469 -18 592 -18 q 244 21 328 -18 q 123 133 160 60 q 86 308 86 206 l 86 924 m 379 1231 l 556 1231 l 707 1007 l 532 1007 l 468 1124 l 403 1007 l 228 1007 l 379 1231 z "},"Ü":{"ha":947,"x_min":86,"x_max":850,"o":"m 86 924 l 304 924 l 304 319 q 324 231 304 265 q 383 178 344 196 q 476 161 421 161 q 568 167 526 161 q 633 179 610 174 l 633 924 l 850 924 l 850 40 q 689 2 786 22 q 469 -18 592 -18 q 244 21 328 -18 q 123 133 160 60 q 86 308 86 206 l 86 924 m 440 1125 q 412 1047 440 1074 q 338 1021 383 1021 q 263 1047 290 1021 q 235 1125 235 1074 q 263 1203 235 1176 q 336 1229 290 1229 q 412 1203 383 1229 q 440 1125 440 1176 m 701 1125 q 673 1047 701 1074 q 597 1021 644 1021 q 524 1047 551 1021 q 496 1125 496 1074 q 524 1203 496 1176 q 597 1229 551 1229 q 673 1203 644 1229 q 701 1125 701 1176 z "},"Ù":{"ha":947,"x_min":86,"x_max":850,"o":"m 86 924 l 304 924 l 304 319 q 324 231 304 265 q 383 178 344 196 q 476 161 421 161 q 568 167 526 161 q 633 179 610 174 l 633 924 l 850 924 l 850 40 q 689 2 786 22 q 469 -18 592 -18 q 244 21 328 -18 q 123 133 160 60 q 86 308 86 206 l 86 924 m 236 1231 l 458 1231 l 572 1007 l 419 1007 l 236 1231 z "},"Ŭ":{"ha":947,"x_min":86,"x_max":850,"o":"m 86 924 l 304 924 l 304 319 q 324 231 304 265 q 383 178 344 196 q 476 161 421 161 q 568 167 526 161 q 633 179 610 174 l 633 924 l 850 924 l 850 40 q 689 2 786 22 q 469 -18 592 -18 q 244 21 328 -18 q 123 133 160 60 q 86 308 86 206 l 86 924 m 239 1192 l 399 1192 q 419 1135 400 1153 q 468 1117 438 1117 q 518 1135 500 1117 q 538 1192 536 1153 l 696 1192 q 628 1034 690 1078 q 468 990 567 990 q 308 1034 369 990 q 239 1192 246 1078 z "},"Ű":{"ha":947,"x_min":86,"x_max":850,"o":"m 86 924 l 304 924 l 304 319 q 324 231 304 265 q 383 178 344 196 q 476 161 421 161 q 568 167 526 161 q 633 179 610 174 l 633 924 l 850 924 l 850 40 q 689 2 786 22 q 469 -18 592 -18 q 244 21 328 -18 q 123 133 160 60 q 86 308 86 206 l 86 924 m 336 1231 l 506 1231 l 425 1007 l 299 1007 l 336 1231 m 553 1231 l 738 1231 l 624 1007 l 494 1007 l 553 1231 z "},"Ū":{"ha":947,"x_min":86,"x_max":850,"o":"m 86 924 l 304 924 l 304 319 q 324 231 304 265 q 383 178 344 196 q 476 161 421 161 q 568 167 526 161 q 633 179 610 174 l 633 924 l 850 924 l 850 40 q 689 2 786 22 q 469 -18 592 -18 q 244 21 328 -18 q 123 133 160 60 q 86 308 86 206 l 86 924 m 258 1167 l 678 1167 l 678 1028 l 258 1028 l 258 1167 z "},"Ų":{"ha":954,"x_min":86,"x_max":857,"o":"m 838 -99 l 857 -208 q 801 -226 831 -219 q 740 -232 771 -232 q 638 -204 681 -232 q 594 -118 594 -176 q 611 -53 594 -83 q 654 -1 628 -24 q 710 40 681 22 l 850 40 q 803 3 826 22 q 765 -37 781 -17 q 750 -79 750 -58 q 759 -104 750 -97 q 783 -111 768 -111 q 810 -108 797 -111 q 838 -99 822 -104 m 86 924 l 304 924 l 304 319 q 324 231 304 265 q 383 178 344 196 q 476 161 421 161 q 568 167 526 161 q 633 179 610 174 l 633 924 l 850 924 l 850 40 q 689 2 786 22 q 469 -18 592 -18 q 244 21 328 -18 q 123 133 160 60 q 86 308 86 206 l 86 924 z "},"Ů":{"ha":947,"x_min":86,"x_max":850,"o":"m 86 924 l 304 924 l 304 319 q 324 231 304 265 q 383 178 344 196 q 476 161 421 161 q 568 167 526 161 q 633 179 610 174 l 633 924 l 850 924 l 850 40 q 689 2 786 22 q 469 -18 592 -18 q 244 21 328 -18 q 123 133 160 60 q 86 308 86 206 l 86 924 m 468 1172 q 431 1161 446 1172 q 417 1125 417 1150 q 431 1089 417 1100 q 468 1078 446 1078 q 506 1089 492 1078 q 519 1125 519 1100 q 506 1161 519 1150 q 468 1172 492 1172 m 468 1265 q 594 1232 544 1265 q 643 1125 643 1199 q 594 1018 643 1051 q 468 985 544 985 q 342 1018 392 985 q 293 1125 293 1051 q 342 1232 293 1199 q 468 1265 392 1265 z "},"Ũ":{"ha":947,"x_min":86,"x_max":850,"o":"m 86 924 l 304 924 l 304 319 q 324 231 304 265 q 383 178 344 196 q 476 161 421 161 q 568 167 526 161 q 633 179 610 174 l 633 924 l 850 924 l 850 40 q 689 2 786 22 q 469 -18 592 -18 q 244 21 328 -18 q 123 133 160 60 q 86 308 86 206 l 86 924 m 346 1018 l 211 1071 q 264 1172 226 1129 q 367 1214 301 1214 q 433 1199 403 1214 q 488 1170 464 1185 q 532 1156 513 1156 q 569 1174 560 1156 q 588 1218 579 1192 l 724 1168 q 663 1060 700 1101 q 564 1018 625 1018 q 499 1033 529 1018 q 445 1065 469 1049 q 403 1081 421 1081 q 364 1060 375 1081 q 346 1018 353 1040 z "},"Ẃ":{"ha":1299,"x_min":39,"x_max":1254,"o":"m 471 0 l 261 0 l 39 924 l 264 924 l 397 278 l 561 758 l 740 758 l 913 267 q 992 555 958 392 q 1050 924 1026 718 l 1254 924 q 1214 661 1238 786 q 1161 422 1190 536 q 1097 202 1132 307 q 1021 0 1061 97 l 819 0 l 651 518 l 471 0 m 653 1231 l 874 1231 l 692 1007 l 536 1007 l 653 1231 z "},"Ŵ":{"ha":1299,"x_min":39,"x_max":1254,"o":"m 471 0 l 261 0 l 39 924 l 264 924 l 397 278 l 561 758 l 740 758 l 913 267 q 992 555 958 392 q 1050 924 1026 718 l 1254 924 q 1214 661 1238 786 q 1161 422 1190 536 q 1097 202 1132 307 q 1021 0 1061 97 l 819 0 l 651 518 l 471 0 m 564 1231 l 740 1231 l 892 1007 l 717 1007 l 653 1124 l 588 1007 l 413 1007 l 564 1231 z "},"Ẅ":{"ha":1299,"x_min":39,"x_max":1254,"o":"m 471 0 l 261 0 l 39 924 l 264 924 l 397 278 l 561 758 l 740 758 l 913 267 q 992 555 958 392 q 1050 924 1026 718 l 1254 924 q 1214 661 1238 786 q 1161 422 1190 536 q 1097 202 1132 307 q 1021 0 1061 97 l 819 0 l 651 518 l 471 0 m 625 1125 q 597 1047 625 1074 q 522 1021 568 1021 q 447 1047 475 1021 q 419 1125 419 1074 q 447 1203 419 1176 q 521 1229 475 1229 q 597 1203 568 1229 q 625 1125 625 1176 m 886 1125 q 858 1047 886 1074 q 782 1021 829 1021 q 708 1047 736 1021 q 681 1125 681 1074 q 708 1203 681 1176 q 782 1229 736 1229 q 858 1203 829 1229 q 886 1125 886 1176 z "},"Ẁ":{"ha":1299,"x_min":39,"x_max":1254,"o":"m 471 0 l 261 0 l 39 924 l 264 924 l 397 278 l 561 758 l 740 758 l 913 267 q 992 555 958 392 q 1050 924 1026 718 l 1254 924 q 1214 661 1238 786 q 1161 422 1190 536 q 1097 202 1132 307 q 1021 0 1061 97 l 819 0 l 651 518 l 471 0 m 421 1231 l 643 1231 l 757 1007 l 604 1007 l 421 1231 z "},"Ý":{"ha":944,"x_min":29,"x_max":908,"o":"m 364 0 l 364 324 l 29 924 l 265 924 l 492 504 q 549 580 518 532 q 608 686 579 628 q 658 806 636 744 q 689 924 679 868 l 908 924 q 830 700 878 813 q 720 492 782 588 q 585 331 658 396 l 585 0 l 364 0 m 471 1231 l 692 1231 l 510 1007 l 354 1007 l 471 1231 z "},"Ÿ":{"ha":944,"x_min":29,"x_max":908,"o":"m 364 0 l 364 324 l 29 924 l 265 924 l 492 504 q 549 580 518 532 q 608 686 579 628 q 658 806 636 744 q 689 924 679 868 l 908 924 q 830 700 878 813 q 720 492 782 588 q 585 331 658 396 l 585 0 l 364 0 m 443 1125 q 415 1047 443 1074 q 340 1021 386 1021 q 265 1047 293 1021 q 238 1125 238 1074 q 265 1203 238 1176 q 339 1229 293 1229 q 415 1203 386 1229 q 443 1125 443 1176 m 704 1125 q 676 1047 704 1074 q 600 1021 647 1021 q 526 1047 554 1021 q 499 1125 499 1074 q 526 1203 499 1176 q 600 1229 554 1229 q 676 1203 647 1229 q 704 1125 704 1176 z "},"Ŷ":{"ha":944,"x_min":29,"x_max":908,"o":"m 364 0 l 364 324 l 29 924 l 265 924 l 492 504 q 549 580 518 532 q 608 686 579 628 q 658 806 636 744 q 689 924 679 868 l 908 924 q 830 700 878 813 q 720 492 782 588 q 585 331 658 396 l 585 0 l 364 0 m 382 1231 l 558 1231 l 710 1007 l 535 1007 l 471 1124 l 406 1007 l 231 1007 l 382 1231 z "},"Ỳ":{"ha":944,"x_min":29,"x_max":908,"o":"m 364 0 l 364 324 l 29 924 l 265 924 l 492 504 q 549 580 518 532 q 608 686 579 628 q 658 806 636 744 q 689 924 679 868 l 908 924 q 830 700 878 813 q 720 492 782 588 q 585 331 658 396 l 585 0 l 364 0 m 239 1231 l 461 1231 l 575 1007 l 422 1007 l 239 1231 z "},"Ž":{"ha":842,"x_min":57,"x_max":785,"o":"m 71 924 l 771 924 l 771 756 l 318 176 l 785 176 l 785 0 l 57 0 l 57 168 l 508 749 l 71 749 l 71 924 m 328 1007 l 176 1231 l 351 1231 l 417 1114 l 481 1231 l 656 1231 l 504 1007 l 328 1007 z "},"Ź":{"ha":842,"x_min":57,"x_max":785,"o":"m 71 924 l 771 924 l 771 756 l 318 176 l 785 176 l 785 0 l 57 0 l 57 168 l 508 749 l 71 749 l 71 924 m 417 1231 l 638 1231 l 456 1007 l 300 1007 l 417 1231 z "},"Ż":{"ha":842,"x_min":57,"x_max":785,"o":"m 71 924 l 771 924 l 771 756 l 318 176 l 785 176 l 785 0 l 57 0 l 57 168 l 508 749 l 71 749 l 71 924 m 539 1122 q 506 1041 539 1068 q 417 1014 472 1014 q 329 1041 363 1014 q 296 1122 296 1068 q 329 1203 296 1175 q 417 1231 363 1231 q 506 1203 472 1231 q 539 1122 539 1175 z "},"á":{"ha":699,"x_min":31,"x_max":633,"o":"m 431 135 l 431 293 q 385 297 408 296 q 342 299 363 299 q 259 279 290 299 q 228 211 228 260 q 259 144 228 164 q 338 125 290 125 q 386 128 363 125 q 431 135 410 131 m 93 540 l 83 694 q 195 715 132 707 q 317 724 258 724 q 480 701 408 724 q 592 629 551 679 q 633 496 633 579 l 633 26 q 549 6 599 15 q 442 -11 499 -4 q 329 -18 385 -18 q 175 3 243 -18 q 69 77 107 25 q 31 221 31 129 q 69 349 31 303 q 169 415 107 396 q 301 435 232 435 q 367 432 335 435 q 431 424 400 429 l 431 478 q 399 549 431 531 q 303 568 368 568 q 195 560 253 568 q 93 540 138 551 m 333 1014 l 554 1014 l 372 790 l 217 790 l 333 1014 z "},"â":{"ha":699,"x_min":31,"x_max":633,"o":"m 431 135 l 431 293 q 385 297 408 296 q 342 299 363 299 q 259 279 290 299 q 228 211 228 260 q 259 144 228 164 q 338 125 290 125 q 386 128 363 125 q 431 135 410 131 m 93 540 l 83 694 q 195 715 132 707 q 317 724 258 724 q 480 701 408 724 q 592 629 551 679 q 633 496 633 579 l 633 26 q 549 6 599 15 q 442 -11 499 -4 q 329 -18 385 -18 q 175 3 243 -18 q 69 77 107 25 q 31 221 31 129 q 69 349 31 303 q 169 415 107 396 q 301 435 232 435 q 367 432 335 435 q 431 424 400 429 l 431 478 q 399 549 431 531 q 303 568 368 568 q 195 560 253 568 q 93 540 138 551 m 244 1014 l 421 1014 l 572 790 l 397 790 l 333 907 l 268 790 l 93 790 l 244 1014 z "},"ä":{"ha":699,"x_min":31,"x_max":633,"o":"m 431 135 l 431 293 q 385 297 408 296 q 342 299 363 299 q 259 279 290 299 q 228 211 228 260 q 259 144 228 164 q 338 125 290 125 q 386 128 363 125 q 431 135 410 131 m 93 540 l 83 694 q 195 715 132 707 q 317 724 258 724 q 480 701 408 724 q 592 629 551 679 q 633 496 633 579 l 633 26 q 549 6 599 15 q 442 -11 499 -4 q 329 -18 385 -18 q 175 3 243 -18 q 69 77 107 25 q 31 221 31 129 q 69 349 31 303 q 169 415 107 396 q 301 435 232 435 q 367 432 335 435 q 431 424 400 429 l 431 478 q 399 549 431 531 q 303 568 368 568 q 195 560 253 568 q 93 540 138 551 m 306 908 q 277 831 306 857 q 203 804 249 804 q 128 831 156 804 q 100 908 100 857 q 128 986 100 960 q 201 1013 156 1013 q 277 986 249 1013 q 306 908 306 960 m 567 908 q 538 831 567 857 q 463 804 510 804 q 389 831 417 804 q 361 908 361 857 q 389 986 361 960 q 463 1013 417 1013 q 538 986 510 1013 q 567 908 567 960 z "},"à":{"ha":699,"x_min":31,"x_max":633,"o":"m 431 135 l 431 293 q 385 297 408 296 q 342 299 363 299 q 259 279 290 299 q 228 211 228 260 q 259 144 228 164 q 338 125 290 125 q 386 128 363 125 q 431 135 410 131 m 93 540 l 83 694 q 195 715 132 707 q 317 724 258 724 q 480 701 408 724 q 592 629 551 679 q 633 496 633 579 l 633 26 q 549 6 599 15 q 442 -11 499 -4 q 329 -18 385 -18 q 175 3 243 -18 q 69 77 107 25 q 31 221 31 129 q 69 349 31 303 q 169 415 107 396 q 301 435 232 435 q 367 432 335 435 q 431 424 400 429 l 431 478 q 399 549 431 531 q 303 568 368 568 q 195 560 253 568 q 93 540 138 551 m 101 1014 l 324 1014 l 438 790 l 285 790 l 101 1014 z "},"å":{"ha":699,"x_min":31,"x_max":633,"o":"m 431 135 l 431 293 q 385 297 408 296 q 342 299 363 299 q 259 279 290 299 q 228 211 228 260 q 259 144 228 164 q 338 125 290 125 q 386 128 363 125 q 431 135 410 131 m 93 540 l 83 694 q 195 715 132 707 q 317 724 258 724 q 480 701 408 724 q 592 629 551 679 q 633 496 633 579 l 633 26 q 549 6 599 15 q 442 -11 499 -4 q 329 -18 385 -18 q 175 3 243 -18 q 69 77 107 25 q 31 221 31 129 q 69 349 31 303 q 169 415 107 396 q 301 435 232 435 q 367 432 335 435 q 431 424 400 429 l 431 478 q 399 549 431 531 q 303 568 368 568 q 195 560 253 568 q 93 540 138 551 m 333 956 q 297 944 311 956 q 282 908 282 933 q 297 872 282 883 q 333 861 311 861 q 371 872 357 861 q 385 908 385 883 q 371 944 385 933 q 333 956 357 956 m 333 1049 q 459 1015 410 1049 q 508 908 508 982 q 459 801 508 835 q 333 768 410 768 q 208 801 257 768 q 158 908 158 835 q 208 1015 158 982 q 333 1049 257 1049 z "},"ã":{"ha":699,"x_min":31,"x_max":633,"o":"m 431 135 l 431 293 q 385 297 408 296 q 342 299 363 299 q 259 279 290 299 q 228 211 228 260 q 259 144 228 164 q 338 125 290 125 q 386 128 363 125 q 431 135 410 131 m 93 540 l 83 694 q 195 715 132 707 q 317 724 258 724 q 480 701 408 724 q 592 629 551 679 q 633 496 633 579 l 633 26 q 549 6 599 15 q 442 -11 499 -4 q 329 -18 385 -18 q 175 3 243 -18 q 69 77 107 25 q 31 221 31 129 q 69 349 31 303 q 169 415 107 396 q 301 435 232 435 q 367 432 335 435 q 431 424 400 429 l 431 478 q 399 549 431 531 q 303 568 368 568 q 195 560 253 568 q 93 540 138 551 m 211 801 l 76 854 q 129 955 92 913 q 232 997 167 997 q 299 983 268 997 q 353 953 329 968 q 397 939 378 939 q 435 957 425 939 q 453 1001 444 975 l 589 951 q 528 843 565 885 q 429 801 490 801 q 365 817 394 801 q 310 848 335 832 q 268 864 286 864 q 229 844 240 864 q 211 801 218 824 z "},"ă":{"ha":699,"x_min":31,"x_max":633,"o":"m 431 135 l 431 293 q 385 297 408 296 q 342 299 363 299 q 259 279 290 299 q 228 211 228 260 q 259 144 228 164 q 338 125 290 125 q 386 128 363 125 q 431 135 410 131 m 93 540 l 83 694 q 195 715 132 707 q 317 724 258 724 q 480 701 408 724 q 592 629 551 679 q 633 496 633 579 l 633 26 q 549 6 599 15 q 442 -11 499 -4 q 329 -18 385 -18 q 175 3 243 -18 q 69 77 107 25 q 31 221 31 129 q 69 349 31 303 q 169 415 107 396 q 301 435 232 435 q 367 432 335 435 q 431 424 400 429 l 431 478 q 399 549 431 531 q 303 568 368 568 q 195 560 253 568 q 93 540 138 551 m 104 975 l 264 975 q 284 918 265 936 q 333 900 303 900 q 383 918 365 900 q 403 975 401 936 l 561 975 q 494 817 556 861 q 333 774 432 774 q 173 817 235 774 q 104 975 111 861 z "},"ā":{"ha":699,"x_min":31,"x_max":633,"o":"m 431 135 l 431 293 q 385 297 408 296 q 342 299 363 299 q 259 279 290 299 q 228 211 228 260 q 259 144 228 164 q 338 125 290 125 q 386 128 363 125 q 431 135 410 131 m 93 540 l 83 694 q 195 715 132 707 q 317 724 258 724 q 480 701 408 724 q 592 629 551 679 q 633 496 633 579 l 633 26 q 549 6 599 15 q 442 -11 499 -4 q 329 -18 385 -18 q 175 3 243 -18 q 69 77 107 25 q 31 221 31 129 q 69 349 31 303 q 169 415 107 396 q 301 435 232 435 q 367 432 335 435 q 431 424 400 429 l 431 478 q 399 549 431 531 q 303 568 368 568 q 195 560 253 568 q 93 540 138 551 m 124 950 l 543 950 l 543 811 l 124 811 l 124 950 z "},"ą":{"ha":699,"x_min":31,"x_max":647,"o":"m 628 -112 l 647 -222 q 590 -240 621 -233 q 528 -246 560 -246 q 422 -219 465 -246 q 379 -132 379 -192 q 396 -67 379 -97 q 438 -14 413 -37 q 493 26 464 10 l 633 26 q 588 -11 611 8 q 550 -51 565 -31 q 535 -90 535 -71 q 544 -117 535 -110 q 572 -125 554 -125 q 599 -122 586 -125 q 628 -112 613 -119 m 431 135 l 431 293 q 385 297 408 296 q 342 299 363 299 q 259 279 290 299 q 228 211 228 260 q 259 144 228 164 q 338 125 290 125 q 386 128 363 125 q 431 135 410 131 m 93 540 l 83 694 q 195 715 132 707 q 317 724 258 724 q 480 701 408 724 q 592 629 551 679 q 633 496 633 579 l 633 26 q 549 6 599 15 q 442 -11 499 -4 q 329 -18 385 -18 q 175 3 243 -18 q 69 77 107 25 q 31 221 31 129 q 69 349 31 303 q 169 415 107 396 q 301 435 232 435 q 367 432 335 435 q 431 424 400 429 l 431 478 q 399 549 431 531 q 303 568 368 568 q 195 560 253 568 q 93 540 138 551 z "},"ǻ":{"ha":699,"x_min":31,"x_max":633,"o":"m 538 901 q 490 801 538 831 q 363 772 442 772 q 235 801 283 772 q 188 901 188 831 q 215 983 188 954 q 289 1024 242 1013 l 368 1149 l 558 1149 l 438 1022 q 511 983 485 1013 q 538 901 538 954 m 414 901 q 401 935 414 925 q 363 946 389 946 q 324 935 336 946 q 311 901 311 925 q 324 867 311 878 q 363 857 336 857 q 401 867 389 857 q 414 901 414 878 m 431 135 l 431 293 q 385 297 408 296 q 342 299 363 299 q 259 279 290 299 q 228 211 228 260 q 259 144 228 164 q 338 125 290 125 q 386 128 363 125 q 431 135 410 131 m 93 540 l 83 694 q 195 715 132 707 q 317 724 258 724 q 480 701 408 724 q 592 629 551 679 q 633 496 633 579 l 633 26 q 549 6 599 17 q 442 -11 499 -4 q 329 -18 385 -18 q 175 3 243 -18 q 69 77 107 25 q 31 221 31 129 q 69 349 31 303 q 169 415 107 396 q 301 435 232 435 q 367 432 335 435 q 431 424 400 429 l 431 478 q 399 549 431 531 q 303 568 368 568 q 195 560 253 568 q 93 540 138 551 z "},"ç":{"ha":617,"x_min":40,"x_max":582,"o":"m 575 707 l 554 542 q 490 553 522 549 q 422 558 458 558 q 326 541 365 558 q 266 478 286 524 q 246 351 246 433 q 287 195 246 243 q 429 147 328 147 q 498 154 465 147 q 564 169 531 161 l 582 7 q 495 -11 547 -4 q 397 -18 443 -18 q 210 20 290 -18 q 85 140 129 58 q 40 354 40 222 q 88 572 40 492 q 220 688 136 653 q 414 724 304 724 q 499 719 454 724 q 575 707 544 714 m 288 -44 l 426 -44 q 460 -96 446 -68 q 474 -154 474 -124 q 438 -243 474 -210 q 317 -276 403 -276 q 246 -271 282 -276 q 178 -254 210 -265 l 200 -143 q 236 -151 214 -147 q 272 -156 258 -156 q 308 -146 299 -156 q 317 -117 317 -136 q 308 -81 317 -100 q 288 -44 300 -62 z "},"ć":{"ha":617,"x_min":40,"x_max":594,"o":"m 575 707 l 554 542 q 490 553 522 549 q 422 558 458 558 q 326 541 365 558 q 266 478 286 524 q 246 351 246 433 q 287 195 246 243 q 429 147 328 147 q 498 154 465 147 q 564 169 531 161 l 582 7 q 495 -11 547 -4 q 397 -18 443 -18 q 210 20 290 -18 q 85 140 129 58 q 40 354 40 222 q 88 572 40 492 q 220 688 136 653 q 414 724 304 724 q 499 719 454 724 q 575 707 544 714 m 374 1014 l 594 1014 l 413 790 l 257 790 l 374 1014 z "},"č":{"ha":617,"x_min":40,"x_max":613,"o":"m 575 707 l 554 542 q 490 553 522 549 q 422 558 458 558 q 326 541 365 558 q 266 478 286 524 q 246 351 246 433 q 287 195 246 243 q 429 147 328 147 q 498 154 465 147 q 564 169 531 161 l 582 7 q 495 -11 547 -4 q 397 -18 443 -18 q 210 20 290 -18 q 85 140 129 58 q 40 354 40 222 q 88 572 40 492 q 220 688 136 653 q 414 724 304 724 q 499 719 454 724 q 575 707 544 714 m 285 790 l 133 1014 l 308 1014 l 374 897 l 438 1014 l 613 1014 l 461 790 l 285 790 z "},"ĉ":{"ha":617,"x_min":40,"x_max":613,"o":"m 575 707 l 554 542 q 490 553 522 549 q 422 558 458 558 q 326 541 365 558 q 266 478 286 524 q 246 351 246 433 q 287 195 246 243 q 429 147 328 147 q 498 154 465 147 q 564 169 531 161 l 582 7 q 495 -11 547 -4 q 397 -18 443 -18 q 210 20 290 -18 q 85 140 129 58 q 40 354 40 222 q 88 572 40 492 q 220 688 136 653 q 414 724 304 724 q 499 719 454 724 q 575 707 544 714 m 285 1014 l 461 1014 l 613 790 l 438 790 l 374 907 l 308 790 l 133 790 l 285 1014 z "},"ċ":{"ha":617,"x_min":40,"x_max":582,"o":"m 575 707 l 554 542 q 490 553 522 549 q 422 558 458 558 q 326 541 365 558 q 266 478 286 524 q 246 351 246 433 q 287 195 246 243 q 429 147 328 147 q 498 154 465 147 q 564 169 531 161 l 582 7 q 495 -11 547 -4 q 397 -18 443 -18 q 210 20 290 -18 q 85 140 129 58 q 40 354 40 222 q 88 572 40 492 q 220 688 136 653 q 414 724 304 724 q 499 719 454 724 q 575 707 544 714 m 496 906 q 463 824 496 851 q 374 797 429 797 q 286 824 319 797 q 253 906 253 851 q 286 986 253 958 q 374 1014 319 1014 q 463 986 429 1014 q 496 906 496 958 z "},"ď":{"ha":1021,"x_min":42,"x_max":1021,"o":"m 708 1014 l 708 36 q 556 -2 643 14 q 388 -18 469 -18 q 207 18 285 -18 q 85 133 129 54 q 42 343 42 213 q 83 568 42 485 q 198 688 125 651 q 364 724 271 724 q 435 719 396 724 q 504 708 474 715 l 504 1014 l 708 1014 m 504 160 l 504 542 q 445 553 472 549 q 388 558 418 558 q 281 511 314 558 q 247 346 247 464 q 264 225 247 268 q 313 165 281 182 q 392 149 344 149 q 450 151 419 149 q 504 160 481 154 m 801 1014 l 1021 1014 l 907 718 l 750 718 l 801 1014 z "},"đ":{"ha":851,"x_min":42,"x_max":824,"o":"m 299 790 l 299 924 l 824 924 l 824 790 l 299 790 m 708 1014 l 708 36 q 556 -2 643 14 q 388 -18 469 -18 q 207 18 285 -18 q 85 133 129 54 q 42 343 42 213 q 83 568 42 485 q 198 688 125 651 q 364 724 271 724 q 435 719 396 724 q 504 708 474 715 l 504 1014 l 708 1014 m 504 160 l 504 542 q 445 553 472 549 q 388 558 418 558 q 281 511 314 558 q 247 346 247 464 q 264 225 247 268 q 313 165 281 182 q 392 149 344 149 q 450 151 419 149 q 504 160 481 154 z "},"é":{"ha":733,"x_min":40,"x_max":685,"o":"m 685 285 l 249 285 q 295 183 251 213 q 443 154 339 154 q 515 158 475 154 q 592 168 554 161 q 653 182 629 175 l 672 15 q 551 -8 621 1 q 410 -18 482 -18 q 218 17 301 -18 q 88 134 135 53 q 40 351 40 215 q 82 569 40 488 q 200 688 124 651 q 379 724 276 724 q 556 683 489 724 q 654 572 624 643 q 685 407 685 500 l 685 285 m 249 424 l 489 424 q 465 529 489 490 q 369 568 440 568 q 276 528 301 568 q 249 424 250 488 m 369 1014 l 590 1014 l 408 790 l 253 790 l 369 1014 z "},"ê":{"ha":733,"x_min":40,"x_max":685,"o":"m 685 285 l 249 285 q 295 183 251 213 q 443 154 339 154 q 515 158 475 154 q 592 168 554 161 q 653 182 629 175 l 672 15 q 551 -8 621 1 q 410 -18 482 -18 q 218 17 301 -18 q 88 134 135 53 q 40 351 40 215 q 82 569 40 488 q 200 688 124 651 q 379 724 276 724 q 556 683 489 724 q 654 572 624 643 q 685 407 685 500 l 685 285 m 249 424 l 489 424 q 465 529 489 490 q 369 568 440 568 q 276 528 301 568 q 249 424 250 488 m 281 1014 l 457 1014 l 608 790 l 433 790 l 369 907 l 304 790 l 129 790 l 281 1014 z "},"ë":{"ha":733,"x_min":40,"x_max":685,"o":"m 685 285 l 249 285 q 295 183 251 213 q 443 154 339 154 q 515 158 475 154 q 592 168 554 161 q 653 182 629 175 l 672 15 q 551 -8 621 1 q 410 -18 482 -18 q 218 17 301 -18 q 88 134 135 53 q 40 351 40 215 q 82 569 40 488 q 200 688 124 651 q 379 724 276 724 q 556 683 489 724 q 654 572 624 643 q 685 407 685 500 l 685 285 m 249 424 l 489 424 q 465 529 489 490 q 369 568 440 568 q 276 528 301 568 q 249 424 250 488 m 342 908 q 313 831 342 857 q 239 804 285 804 q 164 831 192 804 q 136 908 136 857 q 164 986 136 960 q 238 1013 192 1013 q 313 986 285 1013 q 342 908 342 960 m 603 908 q 574 831 603 857 q 499 804 546 804 q 425 831 453 804 q 397 908 397 857 q 425 986 397 960 q 499 1013 453 1013 q 574 986 546 1013 q 603 908 603 960 z "},"è":{"ha":733,"x_min":40,"x_max":685,"o":"m 685 285 l 249 285 q 295 183 251 213 q 443 154 339 154 q 515 158 475 154 q 592 168 554 161 q 653 182 629 175 l 672 15 q 551 -8 621 1 q 410 -18 482 -18 q 218 17 301 -18 q 88 134 135 53 q 40 351 40 215 q 82 569 40 488 q 200 688 124 651 q 379 724 276 724 q 556 683 489 724 q 654 572 624 643 q 685 407 685 500 l 685 285 m 249 424 l 489 424 q 465 529 489 490 q 369 568 440 568 q 276 528 301 568 q 249 424 250 488 m 138 1014 l 360 1014 l 474 790 l 321 790 l 138 1014 z "},"ĕ":{"ha":733,"x_min":40,"x_max":685,"o":"m 685 285 l 249 285 q 295 183 251 213 q 443 154 339 154 q 515 158 475 154 q 592 168 554 161 q 653 182 629 175 l 672 15 q 551 -8 621 1 q 410 -18 482 -18 q 218 17 301 -18 q 88 134 135 53 q 40 351 40 215 q 82 569 40 488 q 200 688 124 651 q 379 724 276 724 q 556 683 489 724 q 654 572 624 643 q 685 407 685 500 l 685 285 m 249 424 l 489 424 q 465 529 489 490 q 369 568 440 568 q 276 528 301 568 q 249 424 250 488 m 140 975 l 300 975 q 320 918 301 936 q 369 900 339 900 q 419 918 401 900 q 439 975 438 936 l 597 975 q 530 817 592 861 q 369 774 468 774 q 209 817 271 774 q 140 975 147 861 z "},"ě":{"ha":733,"x_min":40,"x_max":685,"o":"m 685 285 l 249 285 q 295 183 251 213 q 443 154 339 154 q 515 158 475 154 q 592 168 554 161 q 653 182 629 175 l 672 15 q 551 -8 621 1 q 410 -18 482 -18 q 218 17 301 -18 q 88 134 135 53 q 40 351 40 215 q 82 569 40 488 q 200 688 124 651 q 379 724 276 724 q 556 683 489 724 q 654 572 624 643 q 685 407 685 500 l 685 285 m 249 424 l 489 424 q 465 529 489 490 q 369 568 440 568 q 276 528 301 568 q 249 424 250 488 m 281 790 l 129 1014 l 304 1014 l 369 897 l 433 1014 l 608 1014 l 457 790 l 281 790 z "},"ė":{"ha":733,"x_min":40,"x_max":685,"o":"m 685 285 l 249 285 q 295 183 251 213 q 443 154 339 154 q 515 158 475 154 q 592 168 554 161 q 653 182 629 175 l 672 15 q 551 -8 621 1 q 410 -18 482 -18 q 218 17 301 -18 q 88 134 135 53 q 40 351 40 215 q 82 569 40 488 q 200 688 124 651 q 379 724 276 724 q 556 683 489 724 q 654 572 624 643 q 685 407 685 500 l 685 285 m 249 424 l 489 424 q 465 529 489 490 q 369 568 440 568 q 276 528 301 568 q 249 424 250 488 m 492 906 q 458 824 492 851 q 369 797 425 797 q 282 824 315 797 q 249 906 249 851 q 282 986 249 958 q 369 1014 315 1014 q 458 986 425 1014 q 492 906 492 958 z "},"ē":{"ha":733,"x_min":40,"x_max":685,"o":"m 685 285 l 249 285 q 295 183 251 213 q 443 154 339 154 q 515 158 475 154 q 592 168 554 161 q 653 182 629 175 l 672 15 q 551 -8 621 1 q 410 -18 482 -18 q 218 17 301 -18 q 88 134 135 53 q 40 351 40 215 q 82 569 40 488 q 200 688 124 651 q 379 724 276 724 q 556 683 489 724 q 654 572 624 643 q 685 407 685 500 l 685 285 m 249 424 l 489 424 q 465 529 489 490 q 369 568 440 568 q 276 528 301 568 q 249 424 250 488 m 160 950 l 579 950 l 579 811 l 160 811 l 160 950 z "},"ę":{"ha":733,"x_min":40,"x_max":685,"o":"m 663 -125 l 682 -235 q 630 -251 657 -244 q 574 -257 603 -257 q 467 -228 511 -257 q 424 -140 424 -200 q 440 -76 424 -106 q 480 -24 456 -47 q 532 15 504 -1 l 672 15 q 630 -21 651 -1 q 594 -60 608 -40 q 579 -99 579 -79 q 589 -128 579 -119 q 617 -136 599 -136 q 639 -133 628 -136 q 663 -125 650 -131 m 685 285 l 249 285 q 295 183 251 213 q 443 154 339 154 q 515 158 475 154 q 592 168 554 161 q 653 182 629 175 l 672 15 q 551 -8 621 1 q 410 -18 482 -18 q 218 17 301 -18 q 88 134 135 53 q 40 351 40 215 q 82 569 40 488 q 200 688 124 651 q 379 724 276 724 q 556 683 489 724 q 654 572 624 643 q 685 407 685 500 l 685 285 m 249 424 l 489 424 q 465 529 489 490 q 369 568 440 568 q 276 528 301 568 q 249 424 250 488 z "},"ǽ":{"ha":1114,"x_min":31,"x_max":1065,"o":"m 93 539 l 83 693 q 195 714 132 706 q 317 722 258 722 q 450 706 390 722 q 551 654 510 690 q 643 706 590 690 q 760 722 696 722 q 937 682 869 722 q 1035 571 1004 642 q 1065 407 1065 500 l 1065 285 l 629 285 q 651 209 632 238 q 713 168 671 181 q 824 156 754 156 q 895 159 856 156 q 972 169 935 163 q 1033 183 1010 176 l 1053 17 q 932 -7 1001 3 q 790 -17 863 -17 q 683 -5 733 -17 q 592 32 632 7 q 468 0 539 17 q 329 -17 397 -17 q 175 5 243 -17 q 69 78 107 26 q 31 221 31 129 q 69 349 31 303 q 169 415 107 396 q 301 435 232 435 q 367 432 335 435 q 431 424 400 429 l 431 478 q 399 549 431 531 q 303 567 368 567 q 195 558 253 567 q 93 539 138 550 m 629 424 l 869 424 q 845 528 869 490 q 750 567 821 567 q 656 527 682 567 q 629 424 631 488 m 457 140 q 442 210 449 164 q 431 293 435 256 q 385 297 408 296 q 342 299 363 299 q 259 279 290 299 q 228 211 228 260 q 259 145 228 164 q 338 126 290 126 q 402 131 374 126 q 457 140 431 135 m 564 1014 l 785 1014 l 603 790 l 447 790 l 564 1014 z "},"ğ":{"ha":781,"x_min":40,"x_max":707,"o":"m 503 -6 l 503 11 q 433 1 472 6 q 363 -4 394 -4 q 197 31 269 -4 q 82 146 124 65 q 40 363 40 226 q 84 572 40 493 q 206 688 128 651 q 386 724 283 724 q 555 708 468 724 q 707 669 642 693 l 707 25 q 660 -162 707 -96 q 533 -253 614 -228 q 346 -278 451 -278 q 210 -267 278 -278 q 107 -244 143 -256 l 125 -82 q 185 -97 150 -89 q 261 -108 221 -104 q 338 -112 301 -112 q 460 -89 418 -112 q 503 -6 503 -65 m 503 546 q 449 555 479 551 q 390 558 418 558 q 311 542 343 558 q 263 482 279 525 q 246 360 246 439 q 279 206 246 250 q 386 161 313 161 q 444 166 417 161 q 503 178 471 171 l 503 546 m 168 975 l 328 975 q 348 918 329 936 q 397 900 367 900 q 447 918 429 900 q 467 975 465 936 l 625 975 q 558 817 619 861 q 397 774 496 774 q 237 817 299 774 q 168 975 175 861 z "},"ĝ":{"ha":781,"x_min":40,"x_max":707,"o":"m 503 -6 l 503 11 q 433 1 472 6 q 363 -4 394 -4 q 197 31 269 -4 q 82 146 124 65 q 40 363 40 226 q 84 572 40 493 q 206 688 128 651 q 386 724 283 724 q 555 708 468 724 q 707 669 642 693 l 707 25 q 660 -162 707 -96 q 533 -253 614 -228 q 346 -278 451 -278 q 210 -267 278 -278 q 107 -244 143 -256 l 125 -82 q 185 -97 150 -89 q 261 -108 221 -104 q 338 -112 301 -112 q 460 -89 418 -112 q 503 -6 503 -65 m 503 546 q 449 555 479 551 q 390 558 418 558 q 311 542 343 558 q 263 482 279 525 q 246 360 246 439 q 279 206 246 250 q 386 161 313 161 q 444 166 417 161 q 503 178 471 171 l 503 546 m 308 1014 l 485 1014 l 636 790 l 461 790 l 397 907 l 332 790 l 157 790 l 308 1014 z "},"ģ":{"ha":781,"x_min":40,"x_max":707,"o":"m 503 -6 l 503 11 q 433 1 472 6 q 363 -4 394 -4 q 197 31 269 -4 q 82 146 124 65 q 40 363 40 226 q 84 572 40 493 q 206 688 128 651 q 386 724 283 724 q 555 708 468 724 q 707 669 642 693 l 707 25 q 660 -162 707 -96 q 533 -253 614 -228 q 346 -278 451 -278 q 210 -267 278 -278 q 107 -244 143 -256 l 125 -82 q 185 -97 150 -89 q 261 -108 221 -104 q 338 -112 301 -112 q 460 -89 418 -112 q 503 -6 503 -65 m 503 546 q 449 555 479 551 q 390 558 418 558 q 311 542 343 558 q 263 482 279 525 q 246 360 246 439 q 279 206 246 250 q 386 161 313 161 q 444 166 417 161 q 503 178 471 171 l 503 546 m 413 1006 l 617 1006 l 475 808 l 326 808 l 413 1006 z "},"ġ":{"ha":781,"x_min":40,"x_max":707,"o":"m 503 -6 l 503 11 q 433 1 472 6 q 363 -4 394 -4 q 197 31 269 -4 q 82 146 124 65 q 40 363 40 226 q 84 572 40 493 q 206 688 128 651 q 386 724 283 724 q 555 708 468 724 q 707 669 642 693 l 707 25 q 660 -162 707 -96 q 533 -253 614 -228 q 346 -278 451 -278 q 210 -267 278 -278 q 107 -244 143 -256 l 125 -82 q 185 -97 150 -89 q 261 -108 221 -104 q 338 -112 301 -112 q 460 -89 418 -112 q 503 -6 503 -65 m 503 546 q 449 555 479 551 q 390 558 418 558 q 311 542 343 558 q 263 482 279 525 q 246 360 246 439 q 279 206 246 250 q 386 161 313 161 q 444 166 417 161 q 503 178 471 171 l 503 546 m 519 906 q 486 824 519 851 q 397 797 453 797 q 310 824 343 797 q 276 906 276 851 q 310 986 276 958 q 397 1014 343 1014 q 486 986 453 1014 q 519 906 519 958 z "},"ħ":{"ha":867,"x_min":28,"x_max":778,"o":"m 553 790 l 28 790 l 28 924 l 553 924 l 553 790 m 349 0 l 143 0 l 143 1014 l 349 1014 l 349 711 q 409 720 378 717 q 471 724 440 724 q 633 700 564 724 q 740 622 701 676 q 778 474 778 568 l 778 0 l 572 0 l 572 447 q 557 515 572 490 q 515 549 542 539 q 454 558 489 558 q 399 555 431 558 q 349 546 368 551 l 349 0 z "},"ĥ":{"ha":774,"x_min":74,"x_max":708,"o":"m 279 0 l 74 0 l 74 1014 l 279 1014 l 279 711 q 340 720 308 717 q 401 724 371 724 q 563 700 494 724 q 670 622 632 676 q 708 474 708 568 l 708 0 l 503 0 l 503 447 q 488 515 503 490 q 446 549 472 539 q 385 558 419 558 q 330 555 361 558 q 279 546 299 551 l 279 0 m 303 1303 l 479 1303 l 631 1079 l 456 1079 l 392 1196 l 326 1079 l 151 1079 l 303 1303 z "},"í":{"ha":353,"x_min":63,"x_max":400,"o":"m 74 706 l 279 706 l 279 0 l 74 0 l 74 706 m 179 1014 l 400 1014 l 218 790 l 63 790 l 179 1014 z "},"î":{"ha":353,"x_min":-61,"x_max":418,"o":"m 74 706 l 279 706 l 279 0 l 74 0 l 74 706 m 90 1014 l 267 1014 l 418 790 l 243 790 l 179 907 l 114 790 l -61 790 l 90 1014 z "},"ï":{"ha":353,"x_min":-54,"x_max":413,"o":"m 74 706 l 279 706 l 279 0 l 74 0 l 74 706 m 151 908 q 123 831 151 857 q 49 804 94 804 q -26 831 1 804 q -54 908 -54 857 q -26 986 -54 960 q 47 1013 1 1013 q 123 986 94 1013 q 151 908 151 960 m 413 908 q 384 831 413 857 q 308 804 356 804 q 235 831 263 804 q 207 908 207 857 q 235 986 207 960 q 308 1013 263 1013 q 384 986 356 1013 q 413 908 413 960 z "},"ì":{"ha":353,"x_min":-53,"x_max":283,"o":"m 74 706 l 279 706 l 279 0 l 74 0 l 74 706 m -53 1014 l 169 1014 l 283 790 l 131 790 l -53 1014 z "},"ĭ":{"ha":353,"x_min":-50,"x_max":407,"o":"m 74 706 l 279 706 l 279 0 l 74 0 l 74 706 m -50 975 l 110 975 q 130 918 111 936 q 179 900 149 900 q 229 918 211 900 q 249 975 247 936 l 407 975 q 340 817 401 861 q 179 774 278 774 q 19 817 81 774 q -50 975 -43 861 z "},"ī":{"ha":353,"x_min":-31,"x_max":389,"o":"m 74 706 l 279 706 l 279 0 l 74 0 l 74 706 m -31 950 l 389 950 l 389 811 l -31 811 l -31 950 z "},"į":{"ha":353,"x_min":46,"x_max":336,"o":"m 74 706 l 279 706 l 279 0 l 74 0 l 74 706 m 299 914 q 265 833 299 860 q 176 806 232 806 q 89 833 122 806 q 56 914 56 860 q 89 994 56 967 q 176 1022 122 1022 q 265 994 232 1022 q 299 914 299 967 m 317 -136 l 336 -246 q 274 -265 307 -258 q 206 -272 240 -272 q 92 -243 139 -272 q 46 -151 46 -214 q 74 -62 46 -101 q 139 0 103 -22 l 279 0 q 226 -51 251 -22 q 201 -108 201 -81 q 214 -142 201 -132 q 249 -151 226 -151 q 282 -148 265 -151 q 317 -136 299 -144 z "},"ĩ":{"ha":353,"x_min":-78,"x_max":435,"o":"m 74 706 l 279 706 l 279 0 l 74 0 l 74 706 m 57 801 l -78 854 q -25 955 -62 913 q 78 997 13 997 q 144 983 114 997 q 199 953 175 968 q 243 939 224 939 q 281 957 271 939 q 299 1001 290 975 l 435 951 q 374 843 411 885 q 275 801 336 801 q 210 817 240 801 q 156 848 181 832 q 114 864 132 864 q 75 844 86 864 q 57 801 64 824 z "},"ĵ":{"ha":354,"x_min":-79,"x_max":407,"o":"m 75 706 l 281 706 l 281 113 q 265 -8 281 46 q 218 -108 250 -62 q 137 -195 186 -154 q 19 -278 88 -236 l -79 -132 q -6 -71 -36 -97 q 42 -19 24 -44 q 67 38 60 7 q 75 111 75 68 l 75 706 m 79 1014 l 256 1014 l 407 790 l 232 790 l 168 907 l 103 790 l -72 790 l 79 1014 z "},"ķ":{"ha":757,"x_min":74,"x_max":735,"o":"m 74 1014 l 279 1014 l 279 411 l 506 706 l 719 706 l 490 418 q 615 353 564 404 q 688 208 667 303 l 735 0 l 515 0 l 475 190 q 426 265 464 247 q 350 285 389 282 l 279 217 l 279 0 l 74 0 l 74 1014 m 307 -64 l 511 -64 l 369 -261 l 221 -261 l 307 -64 z "},"ĸ":{"ha":757,"x_min":74,"x_max":735,"o":"m 74 706 l 279 706 l 279 411 l 506 706 l 719 706 l 490 418 q 615 353 564 404 q 688 208 667 303 l 735 0 l 515 0 l 475 190 q 426 265 464 247 q 350 285 389 282 l 279 217 l 279 0 l 74 0 l 74 706 z "},"ĺ":{"ha":399,"x_min":74,"x_max":440,"o":"m 74 1014 l 279 1014 l 279 0 l 74 0 l 74 1014 m 219 1289 l 440 1289 l 258 1065 l 103 1065 l 219 1289 z "},"ľ":{"ha":592,"x_min":74,"x_max":592,"o":"m 74 1014 l 279 1014 l 279 0 l 74 0 l 74 1014 m 372 1014 l 592 1014 l 478 718 l 321 718 l 372 1014 z "},"ļ":{"ha":353,"x_min":-14,"x_max":279,"o":"m 74 1014 l 279 1014 l 279 0 l 74 0 l 74 1014 m 72 -64 l 276 -64 l 135 -261 l -14 -261 l 72 -64 z "},"ŀ":{"ha":633,"x_min":74,"x_max":601,"o":"m 74 1014 l 279 1014 l 279 0 l 74 0 l 74 1014 m 601 472 q 568 392 601 419 q 481 364 535 364 q 393 392 426 364 q 360 472 360 419 q 393 553 360 525 q 481 581 426 581 q 568 553 535 581 q 601 472 601 525 z "},"ñ":{"ha":774,"x_min":74,"x_max":708,"o":"m 279 0 l 74 0 l 74 669 q 210 706 125 688 q 389 724 296 724 q 558 700 486 724 q 669 622 629 676 q 708 474 708 568 l 708 0 l 503 0 l 503 447 q 488 515 503 490 q 446 549 472 539 q 385 558 419 558 q 330 555 361 558 q 279 546 299 551 l 279 0 m 260 801 l 125 854 q 178 955 140 913 q 281 997 215 997 q 347 983 317 997 q 402 953 378 968 q 446 939 426 939 q 483 957 474 939 q 501 1001 493 975 l 638 951 q 576 843 614 885 q 478 801 539 801 q 413 817 443 801 q 359 848 383 832 q 317 864 335 864 q 278 844 289 864 q 260 801 267 824 z "},"ń":{"ha":774,"x_min":74,"x_max":708,"o":"m 279 0 l 74 0 l 74 669 q 210 706 125 688 q 389 724 296 724 q 558 700 486 724 q 669 622 629 676 q 708 474 708 568 l 708 0 l 503 0 l 503 447 q 488 515 503 490 q 446 549 472 539 q 385 558 419 558 q 330 555 361 558 q 279 546 299 551 l 279 0 m 382 1014 l 603 1014 l 421 790 l 265 790 l 382 1014 z "},"ň":{"ha":774,"x_min":74,"x_max":708,"o":"m 279 0 l 74 0 l 74 669 q 210 706 125 688 q 389 724 296 724 q 558 700 486 724 q 669 622 629 676 q 708 474 708 568 l 708 0 l 503 0 l 503 447 q 488 515 503 490 q 446 549 472 539 q 385 558 419 558 q 330 555 361 558 q 279 546 299 551 l 279 0 m 293 790 l 142 1014 l 317 1014 l 382 897 l 446 1014 l 621 1014 l 469 790 l 293 790 z "},"ņ":{"ha":774,"x_min":74,"x_max":708,"o":"m 279 0 l 74 0 l 74 669 q 210 706 125 688 q 389 724 296 724 q 558 700 486 724 q 669 622 629 676 q 708 474 708 568 l 708 0 l 503 0 l 503 447 q 488 515 503 490 q 446 549 472 539 q 385 558 419 558 q 330 555 361 558 q 279 546 299 551 l 279 0 m 304 -64 l 508 -64 l 367 -261 l 218 -261 l 304 -64 z "},"ŋ":{"ha":774,"x_min":74,"x_max":708,"o":"m 279 0 l 74 0 l 74 669 q 210 706 125 688 q 389 724 296 724 q 558 700 486 724 q 669 622 629 676 q 708 474 708 568 l 708 113 q 693 -8 708 46 q 646 -108 678 -62 q 565 -195 614 -154 q 447 -278 515 -236 l 349 -132 q 422 -71 392 -97 q 469 -19 451 -44 q 495 38 488 7 q 503 111 503 68 l 503 447 q 488 515 503 490 q 446 549 472 539 q 385 558 419 558 q 330 555 361 558 q 279 546 299 551 l 279 0 z "},"ó":{"ha":782,"x_min":42,"x_max":740,"o":"m 740 351 q 651 70 740 158 q 392 -18 561 -18 q 131 70 221 -18 q 42 351 42 158 q 131 635 42 546 q 392 724 221 724 q 651 635 561 724 q 740 351 740 546 m 535 351 q 502 512 535 465 q 392 558 469 558 q 281 512 315 558 q 247 351 247 465 q 281 194 247 240 q 392 147 315 147 q 502 194 469 147 q 535 351 535 240 m 399 1014 l 619 1014 l 438 790 l 282 790 l 399 1014 z "},"ô":{"ha":782,"x_min":42,"x_max":740,"o":"m 740 351 q 651 70 740 158 q 392 -18 561 -18 q 131 70 221 -18 q 42 351 42 158 q 131 635 42 546 q 392 724 221 724 q 651 635 561 724 q 740 351 740 546 m 535 351 q 502 512 535 465 q 392 558 469 558 q 281 512 315 558 q 247 351 247 465 q 281 194 247 240 q 392 147 315 147 q 502 194 469 147 q 535 351 535 240 m 299 1014 l 475 1014 l 626 790 l 451 790 l 388 907 l 322 790 l 147 790 l 299 1014 z "},"ö":{"ha":782,"x_min":42,"x_max":740,"o":"m 740 351 q 651 70 740 158 q 392 -18 561 -18 q 131 70 221 -18 q 42 351 42 158 q 131 635 42 546 q 392 724 221 724 q 651 635 561 724 q 740 351 740 546 m 535 351 q 502 512 535 465 q 392 558 469 558 q 281 512 315 558 q 247 351 247 465 q 281 194 247 240 q 392 147 315 147 q 502 194 469 147 q 535 351 535 240 m 357 908 q 328 831 357 857 q 254 804 300 804 q 179 831 207 804 q 151 908 151 857 q 179 986 151 960 q 253 1013 207 1013 q 328 986 300 1013 q 357 908 357 960 m 618 908 q 590 831 618 857 q 514 804 561 804 q 440 831 468 804 q 413 908 413 857 q 440 986 413 960 q 514 1013 468 1013 q 590 986 561 1013 q 618 908 618 960 z "},"ò":{"ha":782,"x_min":42,"x_max":740,"o":"m 740 351 q 651 70 740 158 q 392 -18 561 -18 q 131 70 221 -18 q 42 351 42 158 q 131 635 42 546 q 392 724 221 724 q 651 635 561 724 q 740 351 740 546 m 535 351 q 502 512 535 465 q 392 558 469 558 q 281 512 315 558 q 247 351 247 465 q 281 194 247 240 q 392 147 315 147 q 502 194 469 147 q 535 351 535 240 m 153 1014 l 375 1014 l 489 790 l 336 790 l 153 1014 z "},"õ":{"ha":782,"x_min":42,"x_max":740,"o":"m 740 351 q 651 70 740 158 q 392 -18 561 -18 q 131 70 221 -18 q 42 351 42 158 q 131 635 42 546 q 392 724 221 724 q 651 635 561 724 q 740 351 740 546 m 535 351 q 502 512 535 465 q 392 558 469 558 q 281 512 315 558 q 247 351 247 465 q 281 194 247 240 q 392 147 315 147 q 502 194 469 147 q 535 351 535 240 m 263 801 l 128 854 q 181 955 143 913 q 283 997 218 997 q 350 983 319 997 q 405 953 381 968 q 449 939 429 939 q 486 957 476 939 q 504 1001 496 975 l 640 951 q 579 843 617 885 q 481 801 542 801 q 416 817 446 801 q 362 848 386 832 q 319 864 338 864 q 281 844 292 864 q 263 801 269 824 z "},"ŏ":{"ha":782,"x_min":42,"x_max":740,"o":"m 740 351 q 651 70 740 158 q 392 -18 561 -18 q 131 70 221 -18 q 42 351 42 158 q 131 635 42 546 q 392 724 221 724 q 651 635 561 724 q 740 351 740 546 m 535 351 q 502 512 535 465 q 392 558 469 558 q 281 512 315 558 q 247 351 247 465 q 281 194 247 240 q 392 147 315 147 q 502 194 469 147 q 535 351 535 240 m 156 975 l 315 975 q 335 918 317 936 q 385 900 354 900 q 435 918 417 900 q 454 975 453 936 l 613 975 q 545 817 607 861 q 385 774 483 774 q 224 817 286 774 q 156 975 163 861 z "},"ő":{"ha":782,"x_min":42,"x_max":740,"o":"m 740 351 q 651 70 740 158 q 392 -18 561 -18 q 131 70 221 -18 q 42 351 42 158 q 131 635 42 546 q 392 724 221 724 q 651 635 561 724 q 740 351 740 546 m 535 351 q 502 512 535 465 q 392 558 469 558 q 281 512 315 558 q 247 351 247 465 q 281 194 247 240 q 392 147 315 147 q 502 194 469 147 q 535 351 535 240 m 249 1014 l 418 1014 l 338 790 l 211 790 l 249 1014 m 465 1014 l 650 1014 l 536 790 l 407 790 l 465 1014 z "},"ō":{"ha":782,"x_min":42,"x_max":740,"o":"m 740 351 q 651 70 740 158 q 392 -18 561 -18 q 131 70 221 -18 q 42 351 42 158 q 131 635 42 546 q 392 724 221 724 q 651 635 561 724 q 740 351 740 546 m 535 351 q 502 512 535 465 q 392 558 469 558 q 281 512 315 558 q 247 351 247 465 q 281 194 247 240 q 392 147 315 147 q 502 194 469 147 q 535 351 535 240 m 175 950 l 594 950 l 594 811 l 175 811 l 175 950 z "},"ǿ":{"ha":782,"x_min":42,"x_max":740,"o":"m 740 351 q 651 72 740 160 q 392 -17 561 -17 q 131 72 221 -17 q 42 351 42 160 q 131 635 42 546 q 392 724 221 724 q 651 635 561 724 q 740 351 740 546 m 540 351 q 506 512 540 465 q 392 558 472 558 q 276 512 311 558 q 242 351 242 465 q 276 195 242 242 q 392 149 311 149 q 506 195 472 149 q 540 351 540 242 m 179 -118 l 44 -42 l 603 822 l 738 746 l 179 -118 m 411 1014 l 632 1014 l 450 790 l 294 790 l 411 1014 z "},"ŕ":{"ha":501,"x_min":74,"x_max":507,"o":"m 481 724 l 481 558 q 378 555 429 558 q 278 544 328 551 l 278 0 l 74 0 l 74 669 q 278 713 172 701 q 481 724 383 724 m 286 1014 l 507 1014 l 325 790 l 169 790 l 286 1014 z "},"ř":{"ha":501,"x_min":46,"x_max":525,"o":"m 481 724 l 481 558 q 378 555 429 558 q 278 544 328 551 l 278 0 l 74 0 l 74 669 q 278 713 172 701 q 481 724 383 724 m 197 790 l 46 1014 l 221 1014 l 286 897 l 350 1014 l 525 1014 l 374 790 l 197 790 z "},"ŗ":{"ha":501,"x_min":-17,"x_max":481,"o":"m 481 724 l 481 558 q 378 555 429 558 q 278 544 328 551 l 278 0 l 74 0 l 74 669 q 278 713 172 701 q 481 724 383 724 m 69 -64 l 274 -64 l 132 -261 l -17 -261 l 69 -64 z "},"š":{"ha":631,"x_min":42,"x_max":597,"o":"m 564 706 l 553 544 q 468 558 511 553 q 372 563 425 563 q 283 553 311 563 q 256 521 256 544 q 281 482 256 499 q 344 449 306 465 q 426 415 383 433 q 508 369 469 396 q 572 303 547 342 q 597 208 597 264 q 557 76 597 126 q 448 4 517 26 q 294 -18 379 -18 q 147 -7 211 -18 q 42 18 83 4 l 60 176 q 160 156 101 167 q 269 146 218 146 q 353 158 331 146 q 375 197 375 171 q 351 238 375 221 q 289 272 326 256 q 209 307 251 288 q 129 353 167 326 q 67 419 92 379 q 43 515 43 458 q 82 642 43 597 q 194 706 121 688 q 369 724 267 724 q 476 718 428 724 q 564 706 525 713 m 243 790 l 92 1014 l 267 1014 l 332 897 l 396 1014 l 571 1014 l 419 790 l 243 790 z "},"ś":{"ha":631,"x_min":42,"x_max":597,"o":"m 564 706 l 553 544 q 468 558 511 553 q 372 563 425 563 q 283 553 311 563 q 256 521 256 544 q 281 482 256 499 q 344 449 306 465 q 426 415 383 433 q 508 369 469 396 q 572 303 547 342 q 597 208 597 264 q 557 76 597 126 q 448 4 517 26 q 294 -18 379 -18 q 147 -7 211 -18 q 42 18 83 4 l 60 176 q 160 156 101 167 q 269 146 218 146 q 353 158 331 146 q 375 197 375 171 q 351 238 375 221 q 289 272 326 256 q 209 307 251 288 q 129 353 167 326 q 67 419 92 379 q 43 515 43 458 q 82 642 43 597 q 194 706 121 688 q 369 724 267 724 q 476 718 428 724 q 564 706 525 713 m 332 1014 l 553 1014 l 371 790 l 215 790 l 332 1014 z "},"ş":{"ha":631,"x_min":42,"x_max":597,"o":"m 564 706 l 553 544 q 468 558 511 553 q 372 563 425 563 q 283 553 311 563 q 256 521 256 544 q 281 482 256 499 q 344 449 306 465 q 426 415 383 433 q 508 369 469 396 q 572 303 547 342 q 597 208 597 264 q 557 76 597 126 q 448 4 517 26 q 294 -18 379 -18 q 147 -7 211 -18 q 42 18 83 4 l 60 176 q 160 156 101 167 q 269 146 218 146 q 353 158 331 146 q 375 197 375 171 q 351 238 375 221 q 289 272 326 256 q 209 307 251 288 q 129 353 167 326 q 67 419 92 379 q 43 515 43 458 q 82 642 43 597 q 194 706 121 688 q 369 724 267 724 q 476 718 428 724 q 564 706 525 713 m 251 -50 l 390 -50 q 424 -101 410 -74 q 438 -160 438 -129 q 402 -249 438 -215 q 281 -282 367 -282 q 210 -276 246 -282 q 142 -260 174 -271 l 164 -149 q 200 -157 178 -153 q 236 -161 222 -161 q 272 -151 263 -161 q 281 -122 281 -142 q 272 -87 281 -106 q 251 -50 264 -68 z "},"ŝ":{"ha":631,"x_min":42,"x_max":597,"o":"m 564 706 l 553 544 q 468 558 511 553 q 372 563 425 563 q 283 553 311 563 q 256 521 256 544 q 281 482 256 499 q 344 449 306 465 q 426 415 383 433 q 508 369 469 396 q 572 303 547 342 q 597 208 597 264 q 557 76 597 126 q 448 4 517 26 q 294 -18 379 -18 q 147 -7 211 -18 q 42 18 83 4 l 60 176 q 160 156 101 167 q 269 146 218 146 q 353 158 331 146 q 375 197 375 171 q 351 238 375 221 q 289 272 326 256 q 209 307 251 288 q 129 353 167 326 q 67 419 92 379 q 43 515 43 458 q 82 642 43 597 q 194 706 121 688 q 369 724 267 724 q 476 718 428 724 q 564 706 525 713 m 243 1014 l 419 1014 l 571 790 l 396 790 l 332 907 l 267 790 l 92 790 l 243 1014 z "},"ș":{"ha":631,"x_min":42,"x_max":597,"o":"m 564 706 l 553 544 q 468 558 511 553 q 372 563 425 563 q 283 553 311 563 q 256 521 256 544 q 281 482 256 499 q 344 449 306 465 q 426 415 383 433 q 508 369 469 396 q 572 303 547 342 q 597 208 597 264 q 557 76 597 126 q 448 4 517 26 q 294 -18 379 -18 q 147 -7 211 -18 q 42 18 83 4 l 60 176 q 160 156 101 167 q 269 146 218 146 q 353 158 331 146 q 375 197 375 171 q 351 238 375 221 q 289 272 326 256 q 209 307 251 288 q 129 353 167 326 q 67 419 92 379 q 43 515 43 458 q 82 642 43 597 q 194 706 121 688 q 369 724 267 724 q 476 718 428 724 q 564 706 525 713 m 203 -64 l 407 -64 l 265 -261 l 117 -261 l 203 -64 z "},"ţ":{"ha":561,"x_min":22,"x_max":519,"o":"m 164 861 l 332 861 l 332 706 l 519 706 l 519 543 l 332 543 l 332 218 q 356 169 332 182 q 413 156 381 156 q 467 160 439 156 q 514 169 494 164 l 519 6 q 444 -12 483 -7 q 365 -18 404 -18 q 190 38 254 -18 q 126 203 126 93 l 126 543 l 22 543 l 22 706 l 126 706 l 164 861 m 194 -64 l 399 -64 l 257 -261 l 108 -261 l 194 -64 z "},"ț":{"ha":561,"x_min":22,"x_max":519,"o":"m 164 861 l 332 861 l 332 706 l 519 706 l 519 543 l 332 543 l 332 218 q 356 169 332 182 q 413 156 381 156 q 467 160 439 156 q 514 169 494 164 l 519 6 q 444 -12 483 -7 q 365 -18 404 -18 q 190 38 254 -18 q 126 203 126 93 l 126 543 l 22 543 l 22 706 l 126 706 l 164 861 m 194 -64 l 399 -64 l 257 -261 l 108 -261 l 194 -64 z "},"ŧ":{"ha":561,"x_min":22,"x_max":519,"o":"m 22 293 l 22 436 l 482 436 l 482 293 l 22 293 m 164 861 l 332 861 l 332 706 l 519 706 l 519 543 l 332 543 l 332 218 q 356 169 332 182 q 413 156 381 156 q 467 160 439 156 q 514 169 494 164 l 519 6 q 444 -12 483 -7 q 365 -18 404 -18 q 190 38 254 -18 q 126 203 126 93 l 126 543 l 22 543 l 22 706 l 126 706 l 164 861 z "},"ť":{"ha":589,"x_min":22,"x_max":626,"o":"m 435 1014 l 626 1014 l 514 774 l 385 774 l 435 1014 m 164 861 l 332 861 l 332 706 l 519 706 l 519 543 l 332 543 l 332 218 q 356 169 332 182 q 413 156 381 156 q 467 160 439 156 q 514 169 494 164 l 519 6 q 444 -12 483 -7 q 365 -18 404 -18 q 190 38 254 -18 q 126 203 126 93 l 126 543 l 22 543 l 22 706 l 126 706 l 164 861 z "},"ú":{"ha":761,"x_min":64,"x_max":689,"o":"m 483 706 l 689 706 l 689 36 q 556 0 639 18 q 382 -18 472 -18 q 215 6 286 -18 q 103 84 143 29 q 64 232 64 139 l 64 706 l 269 706 l 269 258 q 285 191 269 215 q 326 157 300 167 q 386 147 353 147 q 437 151 408 147 q 483 160 465 154 l 483 706 m 389 1014 l 610 1014 l 428 790 l 272 790 l 389 1014 z "},"û":{"ha":761,"x_min":64,"x_max":689,"o":"m 483 706 l 689 706 l 689 36 q 556 0 639 18 q 382 -18 472 -18 q 215 6 286 -18 q 103 84 143 29 q 64 232 64 139 l 64 706 l 269 706 l 269 258 q 285 191 269 215 q 326 157 300 167 q 386 147 353 147 q 437 151 408 147 q 483 160 465 154 l 483 706 m 290 1014 l 467 1014 l 618 790 l 443 790 l 379 907 l 314 790 l 139 790 l 290 1014 z "},"ü":{"ha":761,"x_min":64,"x_max":689,"o":"m 483 706 l 689 706 l 689 36 q 556 0 639 18 q 382 -18 472 -18 q 215 6 286 -18 q 103 84 143 29 q 64 232 64 139 l 64 706 l 269 706 l 269 258 q 285 191 269 215 q 326 157 300 167 q 386 147 353 147 q 437 151 408 147 q 483 160 465 154 l 483 706 m 361 908 q 333 831 361 857 q 258 804 304 804 q 183 831 211 804 q 156 908 156 857 q 183 986 156 960 q 257 1013 211 1013 q 333 986 304 1013 q 361 908 361 960 m 622 908 q 594 831 622 857 q 518 804 565 804 q 444 831 472 804 q 417 908 417 857 q 444 986 417 960 q 518 1013 472 1013 q 594 986 565 1013 q 622 908 622 960 z "},"ù":{"ha":761,"x_min":64,"x_max":689,"o":"m 483 706 l 689 706 l 689 36 q 556 0 639 18 q 382 -18 472 -18 q 215 6 286 -18 q 103 84 143 29 q 64 232 64 139 l 64 706 l 269 706 l 269 258 q 285 191 269 215 q 326 157 300 167 q 386 147 353 147 q 437 151 408 147 q 483 160 465 154 l 483 706 m 143 1014 l 365 1014 l 479 790 l 326 790 l 143 1014 z "},"ŭ":{"ha":761,"x_min":64,"x_max":689,"o":"m 483 706 l 689 706 l 689 36 q 556 0 639 18 q 382 -18 472 -18 q 215 6 286 -18 q 103 84 143 29 q 64 232 64 139 l 64 706 l 269 706 l 269 258 q 285 191 269 215 q 326 157 300 167 q 386 147 353 147 q 437 151 408 147 q 483 160 465 154 l 483 706 m 154 975 l 314 975 q 334 918 315 936 q 383 900 353 900 q 433 918 415 900 q 453 975 451 936 l 611 975 q 544 817 606 861 q 383 774 482 774 q 223 817 285 774 q 154 975 161 861 z "},"ű":{"ha":761,"x_min":64,"x_max":689,"o":"m 483 706 l 689 706 l 689 36 q 556 0 639 18 q 382 -18 472 -18 q 215 6 286 -18 q 103 84 143 29 q 64 232 64 139 l 64 706 l 269 706 l 269 258 q 285 191 269 215 q 326 157 300 167 q 386 147 353 147 q 437 151 408 147 q 483 160 465 154 l 483 706 m 254 1014 l 424 1014 l 343 790 l 217 790 l 254 1014 m 471 1014 l 656 1014 l 542 790 l 413 790 l 471 1014 z "},"ū":{"ha":761,"x_min":64,"x_max":689,"o":"m 483 706 l 689 706 l 689 36 q 556 0 639 18 q 382 -18 472 -18 q 215 6 286 -18 q 103 84 143 29 q 64 232 64 139 l 64 706 l 269 706 l 269 258 q 285 191 269 215 q 326 157 300 167 q 386 147 353 147 q 437 151 408 147 q 483 160 465 154 l 483 706 m 172 950 l 592 950 l 592 811 l 172 811 l 172 950 z "},"ų":{"ha":761,"x_min":64,"x_max":690,"o":"m 671 -101 l 690 -211 q 632 -230 663 -224 q 567 -236 601 -236 q 465 -208 507 -236 q 424 -122 424 -181 q 442 -58 424 -87 q 489 -6 460 -29 q 549 36 518 18 l 689 36 q 639 -3 664 17 q 597 -42 614 -22 q 579 -82 579 -62 q 589 -108 579 -100 q 617 -115 599 -115 q 644 -111 632 -115 q 671 -101 657 -107 m 483 706 l 689 706 l 689 36 q 556 0 639 18 q 382 -18 472 -18 q 215 6 286 -18 q 103 84 143 29 q 64 232 64 139 l 64 706 l 269 706 l 269 258 q 285 191 269 215 q 326 157 300 167 q 386 147 353 147 q 437 151 408 147 q 483 160 465 154 l 483 706 z "},"ů":{"ha":761,"x_min":64,"x_max":689,"o":"m 483 706 l 689 706 l 689 36 q 556 0 639 18 q 382 -18 472 -18 q 215 6 286 -18 q 103 84 143 29 q 64 232 64 139 l 64 706 l 269 706 l 269 258 q 285 191 269 215 q 326 157 300 167 q 386 147 353 147 q 437 151 408 147 q 483 160 465 154 l 483 706 m 374 956 q 337 944 351 956 q 322 908 322 933 q 337 872 322 883 q 374 861 351 861 q 411 872 397 861 q 425 908 425 883 q 411 944 425 933 q 374 956 397 956 m 374 1049 q 499 1015 450 1049 q 549 908 549 982 q 499 801 549 835 q 374 768 450 768 q 248 801 297 768 q 199 908 199 835 q 248 1015 199 982 q 374 1049 297 1049 z "},"ũ":{"ha":761,"x_min":64,"x_max":689,"o":"m 483 706 l 689 706 l 689 36 q 556 0 639 18 q 382 -18 472 -18 q 215 6 286 -18 q 103 84 143 29 q 64 232 64 139 l 64 706 l 269 706 l 269 258 q 285 191 269 215 q 326 157 300 167 q 386 147 353 147 q 437 151 408 147 q 483 160 465 154 l 483 706 m 251 801 l 117 854 q 169 955 132 913 q 272 997 207 997 q 339 983 308 997 q 394 953 369 968 q 438 939 418 939 q 475 957 465 939 q 493 1001 485 975 l 629 951 q 568 843 606 885 q 469 801 531 801 q 405 817 435 801 q 351 848 375 832 q 308 864 326 864 q 269 844 281 864 q 251 801 258 824 z "},"ẃ":{"ha":1103,"x_min":17,"x_max":1074,"o":"m 660 706 l 790 208 q 847 425 825 307 q 878 706 868 543 l 1074 706 q 1045 470 1065 588 q 992 236 1025 353 q 907 0 958 119 l 679 0 l 556 490 l 431 0 l 185 0 l 17 706 l 243 706 l 333 210 l 454 706 l 660 706 m 558 1014 l 779 1014 l 597 790 l 442 790 l 558 1014 z "},"ŵ":{"ha":1103,"x_min":17,"x_max":1074,"o":"m 660 706 l 790 208 q 847 425 825 307 q 878 706 868 543 l 1074 706 q 1045 470 1065 588 q 992 236 1025 353 q 907 0 958 119 l 679 0 l 556 490 l 431 0 l 185 0 l 17 706 l 243 706 l 333 210 l 454 706 l 660 706 m 469 1014 l 646 1014 l 797 790 l 622 790 l 558 907 l 493 790 l 318 790 l 469 1014 z "},"ẅ":{"ha":1103,"x_min":17,"x_max":1074,"o":"m 660 706 l 790 208 q 847 425 825 307 q 878 706 868 543 l 1074 706 q 1045 470 1065 588 q 992 236 1025 353 q 907 0 958 119 l 679 0 l 556 490 l 431 0 l 185 0 l 17 706 l 243 706 l 333 210 l 454 706 l 660 706 m 531 908 q 502 831 531 857 q 428 804 474 804 q 353 831 381 804 q 325 908 325 857 q 353 986 325 960 q 426 1013 381 1013 q 502 986 474 1013 q 531 908 531 960 m 792 908 q 763 831 792 857 q 688 804 735 804 q 614 831 642 804 q 586 908 586 857 q 614 986 586 960 q 688 1013 642 1013 q 763 986 735 1013 q 792 908 792 960 z "},"ẁ":{"ha":1103,"x_min":17,"x_max":1074,"o":"m 660 706 l 790 208 q 847 425 825 307 q 878 706 868 543 l 1074 706 q 1045 470 1065 588 q 992 236 1025 353 q 907 0 958 119 l 679 0 l 556 490 l 431 0 l 185 0 l 17 706 l 243 706 l 333 210 l 454 706 l 660 706 m 326 1014 l 549 1014 l 663 790 l 510 790 l 326 1014 z "},"ý":{"ha":761,"x_min":63,"x_max":688,"o":"m 483 -6 l 483 7 q 433 1 458 3 q 381 -1 407 -1 q 213 22 285 -1 q 102 100 142 46 q 63 247 63 154 l 63 706 l 268 706 l 268 275 q 283 208 268 232 q 325 174 299 183 q 385 164 351 164 q 436 167 408 164 q 482 176 464 171 l 482 706 l 688 706 l 688 25 q 641 -162 688 -96 q 514 -253 594 -228 q 328 -278 433 -278 q 237 -273 283 -278 q 151 -260 190 -268 q 89 -244 113 -251 l 107 -92 q 167 -106 131 -99 q 243 -119 203 -114 q 319 -124 283 -124 q 441 -98 399 -124 q 483 -6 483 -72 m 385 1014 l 606 1014 l 424 790 l 268 790 l 385 1014 z "},"ÿ":{"ha":761,"x_min":63,"x_max":688,"o":"m 483 -6 l 483 7 q 433 1 458 3 q 381 -1 407 -1 q 213 22 285 -1 q 102 100 142 46 q 63 247 63 154 l 63 706 l 268 706 l 268 275 q 283 208 268 232 q 325 174 299 183 q 385 164 351 164 q 436 167 408 164 q 482 176 464 171 l 482 706 l 688 706 l 688 25 q 641 -162 688 -96 q 514 -253 594 -228 q 328 -278 433 -278 q 237 -273 283 -278 q 151 -260 190 -268 q 89 -244 113 -251 l 107 -92 q 167 -106 131 -99 q 243 -119 203 -114 q 319 -124 283 -124 q 441 -98 399 -124 q 483 -6 483 -72 m 351 908 q 323 831 351 857 q 249 804 294 804 q 174 831 201 804 q 146 908 146 857 q 174 986 146 960 q 247 1013 201 1013 q 323 986 294 1013 q 351 908 351 960 m 613 908 q 584 831 613 857 q 508 804 556 804 q 435 831 463 804 q 407 908 407 857 q 435 986 407 960 q 508 1013 463 1013 q 584 986 556 1013 q 613 908 613 960 z "},"ŷ":{"ha":761,"x_min":63,"x_max":688,"o":"m 483 -6 l 483 7 q 433 1 458 3 q 381 -1 407 -1 q 213 22 285 -1 q 102 100 142 46 q 63 247 63 154 l 63 706 l 268 706 l 268 275 q 283 208 268 232 q 325 174 299 183 q 385 164 351 164 q 436 167 408 164 q 482 176 464 171 l 482 706 l 688 706 l 688 25 q 641 -162 688 -96 q 514 -253 594 -228 q 328 -278 433 -278 q 237 -273 283 -278 q 151 -260 190 -268 q 89 -244 113 -251 l 107 -92 q 167 -106 131 -99 q 243 -119 203 -114 q 319 -124 283 -124 q 441 -98 399 -124 q 483 -6 483 -72 m 288 1014 l 464 1014 l 615 790 l 440 790 l 376 907 l 311 790 l 136 790 l 288 1014 z "},"ỳ":{"ha":761,"x_min":63,"x_max":688,"o":"m 483 -6 l 483 7 q 433 1 458 3 q 381 -1 407 -1 q 213 22 285 -1 q 102 100 142 46 q 63 247 63 154 l 63 706 l 268 706 l 268 275 q 283 208 268 232 q 325 174 299 183 q 385 164 351 164 q 436 167 408 164 q 482 176 464 171 l 482 706 l 688 706 l 688 25 q 641 -162 688 -96 q 514 -253 594 -228 q 328 -278 433 -278 q 237 -273 283 -278 q 151 -260 190 -268 q 89 -244 113 -251 l 107 -92 q 167 -106 131 -99 q 243 -119 203 -114 q 319 -124 283 -124 q 441 -98 399 -124 q 483 -6 483 -72 m 139 1014 l 361 1014 l 475 790 l 322 790 l 139 1014 z "},"ž":{"ha":672,"x_min":38,"x_max":635,"o":"m 53 706 l 619 706 l 619 560 l 307 163 l 635 163 l 635 0 l 38 0 l 38 146 l 358 543 l 53 543 l 53 706 m 253 790 l 101 1014 l 276 1014 l 342 897 l 406 1014 l 581 1014 l 429 790 l 253 790 z "},"ź":{"ha":672,"x_min":38,"x_max":635,"o":"m 53 706 l 619 706 l 619 560 l 307 163 l 635 163 l 635 0 l 38 0 l 38 146 l 358 543 l 53 543 l 53 706 m 342 1014 l 563 1014 l 381 790 l 225 790 l 342 1014 z "},"ż":{"ha":672,"x_min":38,"x_max":635,"o":"m 53 706 l 619 706 l 619 560 l 307 163 l 635 163 l 635 0 l 38 0 l 38 146 l 358 543 l 53 543 l 53 706 m 464 906 q 431 824 464 851 q 342 797 397 797 q 254 824 288 797 q 221 906 221 851 q 254 986 221 958 q 342 1014 288 1014 q 431 986 397 1014 q 464 906 464 958 z "},"´":{"ha":764,"x_min":265,"x_max":603,"o":"m 382 1014 l 603 1014 l 421 790 l 265 790 l 382 1014 z "},"`":{"ha":764,"x_min":150,"x_max":486,"o":"m 150 1014 l 372 1014 l 486 790 l 333 790 l 150 1014 z "},"ˆ":{"ha":764,"x_min":142,"x_max":621,"o":"m 293 1014 l 469 1014 l 621 790 l 446 790 l 382 907 l 317 790 l 142 790 l 293 1014 z "},"ˇ":{"ha":764,"x_min":142,"x_max":621,"o":"m 293 790 l 142 1014 l 317 1014 l 382 897 l 446 1014 l 621 1014 l 469 790 l 293 790 z "},"˜":{"ha":764,"x_min":125,"x_max":638,"o":"m 260 801 l 125 854 q 178 955 140 913 q 281 997 215 997 q 347 983 317 997 q 402 953 378 968 q 446 939 426 939 q 483 957 474 939 q 501 1001 493 975 l 638 951 q 576 843 614 885 q 478 801 539 801 q 413 817 443 801 q 359 848 383 832 q 317 864 335 864 q 278 844 289 864 q 260 801 267 824 z "},"¨":{"ha":764,"x_min":149,"x_max":615,"o":"m 354 908 q 326 831 354 857 q 251 804 297 804 q 176 831 204 804 q 149 908 149 857 q 176 986 149 960 q 250 1013 204 1013 q 326 986 297 1013 q 354 908 354 960 m 615 908 q 587 831 615 857 q 511 804 558 804 q 438 831 465 804 q 410 908 410 857 q 438 986 410 960 q 511 1013 465 1013 q 587 986 558 1013 q 615 908 615 960 z "},"˚":{"ha":764,"x_min":207,"x_max":557,"o":"m 382 956 q 345 944 360 956 q 331 908 331 933 q 345 872 331 883 q 382 861 360 861 q 419 872 406 861 q 433 908 433 883 q 419 944 433 933 q 382 956 406 956 m 382 1049 q 508 1015 458 1049 q 557 908 557 982 q 508 801 557 835 q 382 768 458 768 q 256 801 306 768 q 207 908 207 835 q 256 1015 207 982 q 382 1049 306 1049 z "},"¸":{"ha":764,"x_min":217,"x_max":513,"o":"m 326 -50 l 465 -50 q 499 -101 485 -74 q 513 -160 513 -129 q 477 -249 513 -215 q 356 -282 442 -282 q 285 -276 321 -282 q 217 -260 249 -271 l 239 -149 q 275 -157 253 -153 q 311 -161 297 -161 q 347 -151 338 -161 q 356 -122 356 -142 q 347 -87 356 -106 q 326 -50 339 -68 z "},"˝":{"ha":764,"x_min":213,"x_max":651,"o":"m 250 1014 l 419 1014 l 339 790 l 213 790 l 250 1014 m 467 1014 l 651 1014 l 538 790 l 408 790 l 467 1014 z "},"˘":{"ha":764,"x_min":153,"x_max":610,"o":"m 153 975 l 313 975 q 333 918 314 936 q 382 900 351 900 q 432 918 414 900 q 451 975 450 936 l 610 975 q 542 817 604 861 q 382 774 481 774 q 222 817 283 774 q 153 975 160 861 z "},"¯":{"ha":764,"x_min":172,"x_max":592,"o":"m 172 950 l 592 950 l 592 811 l 172 811 l 172 950 z "},"˙":{"ha":764,"x_min":261,"x_max":504,"o":"m 504 906 q 471 824 504 851 q 382 797 438 797 q 294 824 328 797 q 261 906 261 851 q 294 986 261 958 q 382 1014 328 1014 q 471 986 438 1014 q 504 906 504 958 z "},"·":{"ha":382,"x_min":69,"x_max":311,"o":"m 311 375 q 278 294 311 322 q 190 267 244 267 q 103 294 136 267 q 69 375 69 322 q 103 456 69 428 q 190 483 136 483 q 278 456 244 483 q 311 375 311 428 z "},"˛":{"ha":764,"x_min":232,"x_max":522,"o":"m 503 -136 l 522 -246 q 460 -265 493 -258 q 392 -272 426 -272 q 278 -243 325 -272 q 232 -151 232 -214 q 260 -62 232 -101 q 325 0 289 -22 l 465 0 q 413 -51 438 -22 q 388 -108 388 -81 q 400 -142 388 -132 q 435 -151 413 -151 q 468 -148 451 -151 q 503 -136 485 -144 z "},".":{"ha":382,"x_min":69,"x_max":311,"o":"m 311 92 q 278 10 311 38 q 190 -18 244 -18 q 103 10 136 -18 q 69 92 69 38 q 103 172 69 144 q 190 200 136 200 q 278 172 244 200 q 311 92 311 144 z "},",":{"ha":388,"x_min":28,"x_max":322,"o":"m 111 183 l 322 183 l 174 -201 l 28 -201 l 111 183 z "},":":{"ha":382,"x_min":69,"x_max":311,"o":"m 311 92 q 278 10 311 38 q 190 -18 244 -18 q 103 10 136 -18 q 69 92 69 38 q 103 172 69 144 q 190 200 136 200 q 278 172 244 200 q 311 92 311 144 m 311 615 q 278 534 311 561 q 190 507 244 507 q 103 534 136 507 q 69 615 69 561 q 103 696 69 668 q 190 724 136 724 q 278 696 244 724 q 311 615 311 668 z "},";":{"ha":382,"x_min":-6,"x_max":311,"o":"m 78 183 l 289 183 l 140 -201 l -6 -201 l 78 183 m 311 615 q 278 534 311 561 q 190 507 244 507 q 103 534 136 507 q 69 615 69 561 q 103 696 69 668 q 190 724 136 724 q 278 696 244 724 q 311 615 311 668 z "},"…":{"ha":1151,"x_min":69,"x_max":1081,"o":"m 311 92 q 278 10 311 38 q 190 -18 244 -18 q 103 10 136 -18 q 69 92 69 38 q 103 172 69 144 q 190 200 136 200 q 278 172 244 200 q 311 92 311 144 m 696 92 q 663 10 696 38 q 575 -18 629 -18 q 487 10 519 -18 q 454 92 454 38 q 488 172 454 144 q 575 200 521 200 q 663 172 629 200 q 696 92 696 144 m 1081 92 q 1047 10 1081 38 q 960 -18 1014 -18 q 872 10 904 -18 q 839 92 839 38 q 872 172 839 144 q 960 200 906 200 q 1047 172 1014 200 q 1081 92 1081 144 z "},"?":{"ha":628,"x_min":60,"x_max":597,"o":"m 411 92 q 378 10 411 38 q 289 -18 344 -18 q 201 10 235 -18 q 168 92 168 38 q 201 172 168 144 q 289 200 235 200 q 378 172 344 200 q 411 92 411 144 m 597 694 q 576 599 597 636 q 522 533 554 561 q 459 480 490 506 q 406 422 428 454 q 385 340 385 389 l 385 271 l 193 271 l 193 378 q 211 472 193 433 q 257 540 229 511 q 312 590 285 568 q 357 635 339 613 q 375 683 375 657 q 344 749 375 729 q 254 769 313 769 q 160 758 210 769 q 81 738 111 747 l 60 910 q 158 931 100 921 q 285 940 217 940 q 440 917 369 940 q 554 841 511 894 q 597 694 597 788 z "},"!":{"ha":421,"x_min":92,"x_max":335,"o":"m 97 924 l 328 924 l 293 274 l 133 274 l 97 924 m 335 92 q 301 10 335 38 q 213 -18 268 -18 q 125 10 158 -18 q 92 92 92 38 q 125 172 92 144 q 213 200 158 200 q 301 172 268 200 q 335 92 335 144 z "},"¿":{"ha":576,"x_min":21,"x_max":558,"o":"m 207 615 q 240 696 207 668 q 328 724 274 724 q 417 696 383 724 q 450 615 450 668 q 417 534 450 561 q 328 507 383 507 q 240 534 274 507 q 207 615 207 561 m 21 11 q 42 108 21 69 q 95 174 64 146 q 158 227 126 201 q 210 285 189 253 q 232 367 232 318 l 232 435 l 425 435 l 425 328 q 407 233 425 272 q 362 167 389 194 q 307 117 335 139 q 261 72 279 94 q 243 22 243 50 q 274 -43 243 -24 q 364 -62 306 -62 q 458 -51 408 -62 q 538 -32 507 -40 l 558 -203 q 460 -224 519 -214 q 333 -235 401 -235 q 178 -212 250 -235 q 64 -135 107 -189 q 21 11 21 -82 z "},"¡":{"ha":421,"x_min":89,"x_max":332,"o":"m 94 -218 l 131 432 l 290 432 l 325 -218 l 94 -218 m 332 615 q 299 534 332 561 q 211 507 265 507 q 122 534 156 507 q 89 615 89 561 q 122 696 89 668 q 211 724 156 724 q 299 696 265 724 q 332 615 332 668 z "},"(":{"ha":521,"x_min":106,"x_max":494,"o":"m 279 -258 q 149 58 193 -103 q 106 379 106 218 q 149 700 106 540 q 279 1014 193 860 l 494 1014 q 365 699 408 858 q 321 379 321 540 q 365 59 321 219 q 494 -258 408 -101 l 279 -258 z "},")":{"ha":521,"x_min":26,"x_max":415,"o":"m 242 -258 l 26 -258 q 156 59 113 -101 q 200 379 200 219 q 156 699 200 540 q 26 1014 113 858 l 242 1014 q 372 700 328 860 q 415 379 415 540 q 372 58 415 218 q 242 -258 328 -103 z "},"{":{"ha":536,"x_min":49,"x_max":510,"o":"m 49 281 l 49 478 q 113 492 93 479 q 132 549 132 506 q 127 624 132 582 q 117 714 122 667 q 113 807 113 761 q 177 978 113 924 q 374 1032 242 1032 q 459 1027 422 1032 q 510 1019 496 1022 l 499 854 q 456 860 485 857 q 407 863 426 863 q 337 845 358 863 q 315 778 315 828 q 322 699 315 742 q 333 615 328 657 q 339 533 339 572 q 311 431 339 467 q 222 379 283 396 q 311 328 283 364 q 339 225 339 293 q 333 144 339 188 q 322 59 328 101 q 315 -21 315 17 q 337 -87 315 -69 q 407 -106 358 -106 q 456 -101 426 -106 q 499 -96 485 -97 l 510 -261 q 459 -269 496 -265 q 374 -274 422 -274 q 177 -219 242 -274 q 113 -49 113 -165 q 117 45 113 -1 q 127 135 122 92 q 132 211 132 178 q 113 267 132 256 q 49 281 93 279 z "},"}":{"ha":538,"x_min":26,"x_max":489,"o":"m 489 281 q 424 267 444 279 q 404 211 404 256 q 409 135 404 178 q 419 45 414 92 q 424 -49 424 -1 q 359 -219 424 -165 q 163 -274 294 -274 q 78 -269 114 -274 q 26 -261 42 -264 l 39 -96 q 81 -101 53 -97 q 129 -106 110 -106 q 199 -87 178 -106 q 221 -21 221 -69 q 215 59 221 17 q 203 144 210 101 q 197 225 197 188 q 226 328 197 293 q 314 379 254 364 q 226 431 254 396 q 197 533 197 465 q 203 614 197 571 q 215 699 210 657 q 221 778 221 742 q 199 844 221 826 q 129 863 178 863 q 81 860 110 863 q 39 854 53 857 l 26 1019 q 78 1027 42 1022 q 163 1032 114 1032 q 359 978 294 1032 q 424 807 424 924 q 419 714 424 761 q 409 624 414 667 q 404 549 404 582 q 424 492 404 506 q 489 478 444 479 l 489 281 z "},"[":{"ha":496,"x_min":124,"x_max":465,"o":"m 124 1014 l 465 1014 l 465 833 l 326 833 l 326 -76 l 465 -76 l 465 -258 l 124 -258 l 124 1014 z "},"]":{"ha":496,"x_min":29,"x_max":372,"o":"m 372 1014 l 372 -258 l 29 -258 l 29 -76 l 168 -76 l 168 833 l 29 833 l 29 1014 l 372 1014 z "},"/":{"ha":665,"x_min":-31,"x_max":678,"o":"m 464 1014 l 678 1014 l 182 -74 l -31 -74 l 464 1014 z "},"\\":{"ha":665,"x_min":-14,"x_max":694,"o":"m -14 1014 l 200 1014 l 694 -74 l 482 -74 l -14 1014 z "},"_":{"ha":1003,"x_min":76,"x_max":926,"o":"m 76 -39 l 926 -39 l 926 -185 l 76 -185 l 76 -39 z "},"-":{"ha":556,"x_min":81,"x_max":475,"o":"m 81 457 l 475 457 l 475 285 l 81 285 l 81 457 z "},"­":{"ha":0,"x_min":0,"x_max":0,"o":""},"–":{"ha":835,"x_min":81,"x_max":753,"o":"m 81 457 l 753 457 l 753 285 l 81 285 l 81 457 z "},"—":{"ha":1128,"x_min":81,"x_max":1047,"o":"m 81 457 l 1047 457 l 1047 285 l 81 285 l 81 457 z "},"¦":{"ha":451,"x_min":124,"x_max":328,"o":"m 124 1111 l 328 1111 l 328 554 l 124 554 l 124 1111 m 124 279 l 328 279 l 328 -278 l 124 -278 l 124 279 z "},"|":{"ha":451,"x_min":124,"x_max":328,"o":"m 124 1111 l 328 1111 l 328 -278 l 124 -278 l 124 1111 z "},"«":{"ha":904,"x_min":54,"x_max":849,"o":"m 256 656 l 474 656 l 274 376 l 474 97 l 256 97 l 54 376 l 256 656 m 631 656 l 849 656 l 649 376 l 849 97 l 631 97 l 429 376 l 631 656 z "},"»":{"ha":904,"x_min":54,"x_max":849,"o":"m 647 656 l 849 376 l 647 97 l 429 97 l 631 376 l 429 656 l 647 656 m 272 656 l 474 376 l 272 97 l 54 97 l 256 376 l 54 656 l 272 656 z "},"‹":{"ha":529,"x_min":54,"x_max":474,"o":"m 256 656 l 474 656 l 274 376 l 474 97 l 256 97 l 54 376 l 256 656 z "},"›":{"ha":529,"x_min":54,"x_max":474,"o":"m 272 656 l 474 376 l 272 97 l 54 97 l 256 376 l 54 656 l 272 656 z "},"‚":{"ha":388,"x_min":28,"x_max":322,"o":"m 111 183 l 322 183 l 174 -201 l 28 -201 l 111 183 z "},"„":{"ha":682,"x_min":28,"x_max":618,"o":"m 111 183 l 322 183 l 172 -201 l 28 -201 l 111 183 m 407 183 l 618 183 l 468 -201 l 324 -201 l 407 183 z "},"‘":{"ha":388,"x_min":64,"x_max":358,"o":"m 275 539 l 64 539 l 214 924 l 358 924 l 275 539 z "},"“":{"ha":682,"x_min":64,"x_max":654,"o":"m 571 539 l 360 539 l 508 924 l 654 924 l 571 539 m 275 539 l 64 539 l 213 924 l 358 924 l 275 539 z "},"’":{"ha":388,"x_min":28,"x_max":322,"o":"m 111 924 l 322 924 l 174 539 l 28 539 l 111 924 z "},"”":{"ha":682,"x_min":28,"x_max":618,"o":"m 111 924 l 322 924 l 172 539 l 28 539 l 111 924 m 407 924 l 618 924 l 468 539 l 324 539 l 407 924 z "},"'":{"ha":357,"x_min":71,"x_max":286,"o":"m 71 924 l 286 924 l 246 538 l 110 538 l 71 924 z "},"\"":{"ha":649,"x_min":71,"x_max":578,"o":"m 71 924 l 286 924 l 246 538 l 110 538 l 71 924 m 363 924 l 578 924 l 538 538 l 401 538 l 363 924 z "},"•":{"ha":535,"x_min":76,"x_max":458,"o":"m 458 374 q 405 247 458 289 q 264 206 351 206 q 128 247 179 206 q 76 374 76 289 q 128 502 76 458 q 264 546 179 546 q 405 502 351 546 q 458 374 458 458 z "},"№":{"ha":1456,"x_min":97,"x_max":1403,"o":"m 1403 685 q 1349 497 1403 558 q 1183 435 1296 435 q 1019 496 1071 435 q 967 683 967 557 q 1019 876 967 813 q 1183 939 1071 939 q 1349 876 1296 939 q 1403 685 1403 813 m 1243 685 q 1229 769 1243 744 q 1183 794 1215 794 q 1140 769 1153 794 q 1126 683 1126 744 q 1140 601 1126 625 q 1183 578 1153 578 q 1229 601 1215 578 q 1243 685 1243 625 m 1007 399 l 1360 399 l 1360 256 l 1007 256 l 1007 399 m 97 924 l 265 924 l 690 447 l 690 924 l 903 924 l 903 0 l 690 0 l 690 164 l 307 597 l 307 0 l 97 0 l 97 924 z "},"&":{"ha":989,"x_min":47,"x_max":956,"o":"m 532 489 l 667 331 q 703 399 686 356 q 731 492 721 443 l 904 460 q 877 365 896 417 q 835 267 858 314 q 785 192 811 221 l 956 0 l 690 0 l 636 61 q 523 3 589 24 q 375 -17 457 -17 q 200 12 274 -17 q 87 99 126 40 q 47 251 47 158 q 72 360 47 313 q 137 445 96 407 q 229 514 178 483 q 177 579 201 546 q 139 649 153 613 q 125 725 125 686 q 198 886 125 832 q 408 940 271 940 q 615 887 540 940 q 690 729 690 833 q 647 595 690 653 q 532 489 603 538 m 533 183 l 354 385 q 304 349 325 368 q 272 306 283 331 q 260 247 260 282 q 297 160 260 189 q 392 132 333 132 q 469 145 432 132 q 533 183 507 158 m 407 600 q 469 659 443 628 q 494 732 494 690 q 469 790 494 772 q 408 808 444 808 q 352 790 375 808 q 329 732 329 772 q 340 684 329 706 q 369 642 351 663 q 407 600 388 622 z "},"¶":{"ha":989,"x_min":51,"x_max":892,"o":"m 744 924 l 892 924 l 892 -219 l 744 -219 l 744 924 m 422 307 q 144 376 238 307 q 51 615 51 444 q 92 797 51 729 q 216 894 133 864 q 422 924 299 924 l 631 924 l 631 -219 l 483 -219 l 483 308 q 462 308 476 308 q 422 307 447 307 z "},"†":{"ha":642,"x_min":46,"x_max":596,"o":"m 218 924 l 421 924 l 421 700 l 596 700 l 596 540 l 421 540 l 421 206 l 218 206 l 218 540 l 46 540 l 46 700 l 218 700 l 218 924 z "},"‡":{"ha":669,"x_min":60,"x_max":610,"o":"m 60 776 l 232 776 l 232 924 l 435 924 l 435 776 l 610 776 l 610 618 l 435 618 l 435 513 l 610 513 l 610 353 l 435 353 l 435 206 l 232 206 l 232 353 l 60 353 l 60 513 l 232 513 l 232 618 l 60 618 l 60 776 z "},"§":{"ha":750,"x_min":38,"x_max":703,"o":"m 56 361 q 86 477 56 431 q 168 543 117 524 q 105 619 128 574 q 82 732 82 664 q 108 833 82 793 q 180 897 133 874 q 290 931 226 921 q 429 940 354 940 q 545 934 486 940 q 653 918 604 928 l 638 751 q 564 763 601 758 q 490 770 526 768 q 422 772 454 772 q 349 766 381 772 q 301 745 318 760 q 285 706 285 731 q 315 647 285 671 q 392 604 344 624 q 494 563 440 585 q 595 508 547 540 q 673 428 643 476 q 703 307 703 381 q 659 178 703 226 q 557 107 615 129 q 607 39 588 81 q 626 -44 626 -3 q 592 -176 626 -125 q 488 -252 557 -228 q 315 -276 418 -276 q 158 -264 231 -276 q 38 -239 86 -251 l 58 -82 q 169 -106 103 -94 q 303 -118 236 -118 q 390 -103 358 -118 q 422 -47 422 -89 q 396 16 422 -10 q 328 63 369 42 q 239 108 286 85 q 150 163 192 131 q 82 242 108 194 q 56 361 56 290 m 242 378 q 260 331 242 351 q 309 291 279 310 q 373 255 339 272 q 436 218 407 238 q 489 244 469 229 q 508 290 508 260 q 492 344 508 322 q 448 381 475 365 q 388 412 421 397 q 324 443 356 426 q 263 426 285 442 q 242 378 242 410 z "},"*":{"ha":626,"x_min":38,"x_max":589,"o":"m 85 836 l 260 765 l 228 924 l 399 924 l 367 765 l 540 836 l 589 707 l 397 676 l 536 564 l 415 468 l 313 613 l 211 468 l 92 564 l 231 676 l 38 707 l 85 836 z "},"™":{"ha":1014,"x_min":39,"x_max":951,"o":"m 39 924 l 435 924 l 435 811 l 314 811 l 314 508 l 163 508 l 163 811 l 39 811 l 39 924 m 761 596 l 664 596 l 617 721 l 617 508 l 488 508 l 488 924 l 642 924 l 719 739 l 797 924 l 951 924 l 951 508 l 822 508 l 822 721 l 761 596 z "},"®":{"ha":893,"x_min":53,"x_max":840,"o":"m 403 708 l 403 614 q 419 612 410 613 q 438 611 428 611 q 488 620 469 611 q 506 660 506 629 q 490 698 506 688 q 440 708 474 708 l 403 708 m 292 789 l 465 789 q 578 760 539 789 q 617 671 617 732 q 598 607 617 632 q 543 571 579 582 q 583 541 571 561 q 603 497 594 521 l 639 396 l 522 396 l 492 483 q 472 520 483 508 q 433 532 461 532 q 412 532 419 532 q 403 532 404 532 l 403 396 l 292 396 l 292 789 m 840 581 q 737 313 840 406 q 447 221 633 221 q 157 313 261 221 q 53 581 53 406 q 157 849 53 757 q 447 940 261 940 q 737 849 633 940 q 840 581 840 757 m 747 581 q 672 794 747 726 q 447 861 597 861 q 221 794 296 861 q 146 581 146 726 q 221 368 146 436 q 447 300 296 300 q 672 368 597 300 q 747 581 747 436 z "},"©":{"ha":1054,"x_min":58,"x_max":996,"o":"m 996 463 q 876 106 996 228 q 528 -15 756 -15 q 178 106 299 -15 q 58 463 58 228 q 178 819 58 697 q 528 940 299 940 q 876 819 756 940 q 996 463 996 697 m 903 463 q 810 754 903 657 q 528 851 718 851 q 244 754 336 851 q 151 463 151 657 q 244 172 151 269 q 528 75 336 75 q 810 172 718 75 q 903 463 903 269 m 693 717 l 678 593 q 641 600 665 596 q 582 604 617 604 q 522 592 549 604 q 478 549 494 581 q 463 460 463 518 q 494 352 463 383 q 583 321 525 321 q 645 326 621 321 q 688 336 669 331 l 696 215 q 640 201 681 208 q 553 193 600 193 q 424 218 483 193 q 330 302 365 243 q 294 463 294 361 q 332 626 294 568 q 431 706 369 683 q 565 728 493 728 q 642 724 608 728 q 693 717 676 719 z "},"@":{"ha":1243,"x_min":63,"x_max":1185,"o":"m 690 443 q 658 447 675 446 q 626 449 642 449 q 560 420 581 449 q 540 314 540 392 q 549 229 540 258 q 576 189 558 200 q 619 178 594 178 q 660 183 642 178 q 692 194 678 188 q 690 218 690 206 q 690 243 690 231 l 690 443 m 633 -139 q 818 -128 728 -139 q 981 -101 908 -118 l 996 -214 q 835 -246 932 -233 q 632 -258 739 -258 q 365 -217 474 -258 q 189 -97 256 -175 q 92 88 122 -19 q 63 325 63 194 q 94 542 63 442 q 194 717 126 642 q 370 833 263 792 q 629 875 478 875 q 896 836 789 875 q 1066 730 1003 797 q 1157 575 1129 663 q 1185 389 1185 488 q 1162 201 1185 283 q 1085 72 1139 119 q 940 25 1032 25 q 822 46 867 25 q 756 89 778 67 q 684 47 731 67 q 576 26 638 26 q 468 54 518 26 q 388 147 418 82 q 358 319 358 211 q 427 524 358 457 q 611 592 496 592 q 745 582 678 592 q 865 553 813 572 l 865 249 q 884 179 865 204 q 942 154 903 154 q 1003 176 981 154 q 1036 251 1026 199 q 1046 394 1046 303 q 1022 551 1046 482 q 949 666 999 619 q 819 737 899 713 q 629 761 740 761 q 382 709 476 761 q 244 559 288 657 q 200 325 200 461 q 222 121 200 208 q 294 -24 244 33 q 428 -110 344 -82 q 633 -139 511 -139 z "},"ª":{"ha":481,"x_min":43,"x_max":426,"o":"m 286 599 l 286 665 q 267 669 279 668 q 240 669 254 669 q 197 661 214 669 q 181 632 181 653 q 196 602 181 611 q 235 593 211 593 q 263 594 250 593 q 286 599 276 596 m 88 800 l 74 918 q 152 935 110 929 q 249 942 194 942 q 378 901 331 942 q 426 785 426 861 l 426 517 q 346 497 403 510 q 225 485 289 485 q 128 499 169 485 q 65 544 88 513 q 43 632 43 576 q 71 717 43 689 q 140 756 99 746 q 222 765 182 765 q 259 764 243 765 q 286 761 275 763 l 286 778 q 280 802 286 793 q 260 815 274 811 q 224 819 246 819 q 150 815 183 819 q 88 800 117 810 z "},"º":{"ha":528,"x_min":49,"x_max":479,"o":"m 479 713 q 424 540 479 594 q 264 485 369 485 q 103 540 158 485 q 49 713 49 594 q 103 885 49 831 q 264 940 158 940 q 424 885 369 940 q 479 713 479 831 m 333 713 q 315 789 333 771 q 264 807 297 807 q 213 789 231 807 q 194 713 194 771 q 213 636 194 654 q 264 618 231 618 q 315 636 297 618 q 333 713 333 654 z "},"#":{"ha":1026,"x_min":42,"x_max":988,"o":"m 315 924 l 517 924 l 475 706 l 651 706 l 693 924 l 894 924 l 853 706 l 988 706 l 954 535 l 821 535 l 790 378 l 925 378 l 892 207 l 757 207 l 717 0 l 517 0 l 556 207 l 378 207 l 340 0 l 139 0 l 178 207 l 42 207 l 74 378 l 210 378 l 242 535 l 104 535 l 138 706 l 274 706 l 315 924 m 442 535 l 411 378 l 589 378 l 618 535 l 442 535 z "},"€":{"ha":865,"x_min":53,"x_max":813,"o":"m 808 913 q 713 931 772 922 q 593 940 654 940 q 356 893 453 940 q 210 742 260 846 q 161 465 161 638 q 211 180 161 286 q 357 28 261 74 q 590 -18 453 -18 q 712 -6 653 -18 q 813 18 771 6 l 797 192 q 704 172 756 182 q 601 163 653 163 q 474 185 524 163 q 400 274 424 208 q 376 465 376 339 q 400 644 376 578 q 470 738 424 710 q 583 765 517 765 q 692 757 636 765 q 788 738 747 749 l 808 913 m 53 503 l 714 503 l 750 617 l 53 617 l 53 503 m 53 310 l 669 310 l 704 424 l 53 424 l 53 310 z "},"$":{"ha":767,"x_min":61,"x_max":715,"o":"m 340 -18 q 187 -1 256 -15 q 64 26 118 13 l 82 197 q 209 167 146 179 q 353 154 272 154 q 453 172 414 154 q 493 243 493 189 q 469 306 493 281 q 408 352 446 332 q 324 391 369 372 q 231 432 278 410 q 147 485 185 454 q 85 561 108 517 q 61 669 61 606 q 130 858 61 799 q 319 932 199 917 l 319 1032 l 476 1032 l 476 939 q 581 930 529 938 q 672 915 633 922 l 657 744 q 551 760 611 753 q 444 768 492 768 q 324 749 365 768 q 283 679 283 731 q 307 626 283 647 q 369 589 331 606 q 453 555 407 572 q 546 515 500 538 q 630 458 592 492 q 692 376 668 425 q 715 256 715 326 q 660 82 715 146 q 497 -4 604 18 l 497 -119 l 340 -119 l 340 -18 z "},"¥":{"ha":917,"x_min":29,"x_max":885,"o":"m 240 589 l 310 475 l 108 475 l 108 589 l 240 589 m 885 924 l 594 396 l 821 396 l 821 282 l 582 282 l 582 0 l 363 0 l 363 282 l 108 282 l 108 396 l 349 396 l 29 924 l 274 924 l 471 556 l 665 924 l 885 924 m 631 475 l 694 589 l 821 589 l 821 475 l 631 475 z "},"£":{"ha":831,"x_min":57,"x_max":774,"o":"m 182 324 l 190 397 l 57 397 l 57 549 l 206 549 l 217 661 q 269 831 228 769 q 381 916 311 892 q 547 940 451 940 q 674 933 615 940 q 774 918 732 925 l 757 744 q 663 760 713 753 q 572 767 613 767 q 506 758 533 767 q 464 728 479 750 q 443 668 449 707 l 431 549 l 714 549 l 714 397 l 413 397 l 404 318 q 390 253 400 283 q 362 201 379 224 q 318 160 344 178 l 767 160 l 767 0 l 57 0 l 57 135 q 126 168 101 149 q 164 224 151 188 q 182 324 176 261 z "},"¢":{"ha":617,"x_min":40,"x_max":582,"o":"m 575 817 l 554 651 q 490 663 522 658 q 422 668 458 668 q 326 651 365 668 q 266 588 286 633 q 246 461 246 543 q 287 305 246 353 q 429 257 328 257 q 498 264 465 257 q 564 279 531 271 l 582 117 q 523 103 557 108 q 453 94 489 97 l 453 -58 l 294 -58 l 294 101 q 109 213 178 125 q 40 464 40 300 q 108 711 40 628 q 286 821 175 794 l 286 983 l 443 983 l 443 832 q 514 826 479 831 q 575 817 549 822 z "},"₡":{"ha":797,"x_min":63,"x_max":743,"o":"m 297 1076 l 260 828 l 415 828 l 453 1076 l 297 1076 m 547 1076 l 513 847 l 668 847 l 703 1076 l 547 1076 m 554 72 l 399 72 l 371 -111 l 526 -111 l 554 72 m 325 215 l 169 215 l 121 -111 l 276 -111 l 325 215 m 739 913 q 638 931 700 922 q 510 940 575 940 q 264 893 364 940 q 113 742 164 846 q 63 465 63 638 q 114 180 63 286 q 265 28 165 74 q 507 -18 364 -18 q 637 -7 574 -18 q 743 18 700 4 l 728 196 q 626 176 682 186 q 518 165 571 165 q 388 191 439 165 q 313 282 338 217 q 289 465 289 347 q 343 692 289 622 q 500 761 397 761 q 614 753 554 761 q 717 733 674 746 l 739 913 z "},"₮":{"ha":867,"x_min":44,"x_max":822,"o":"m 136 535 l 731 646 l 731 529 l 136 418 l 136 535 m 136 338 l 731 449 l 731 332 l 136 221 l 136 338 m 44 924 l 822 924 l 822 749 l 542 749 l 542 0 l 325 0 l 325 749 l 44 749 l 44 924 z "},"₴":{"ha":836,"x_min":56,"x_max":771,"o":"m 56 500 l 56 614 l 769 614 l 769 500 l 56 500 m 57 307 l 57 421 l 771 421 l 771 307 l 57 307 m 135 915 q 244 931 179 924 q 379 939 308 939 q 567 918 488 939 q 689 849 646 897 q 732 717 732 800 q 707 610 732 657 q 641 523 682 563 q 552 450 600 483 q 458 385 504 417 q 376 322 413 354 q 341 278 353 300 q 329 225 329 257 q 362 168 329 182 q 454 154 394 154 q 598 167 535 154 q 725 197 661 179 l 743 26 q 610 -3 686 11 q 435 -18 533 -18 q 190 42 272 -18 q 107 229 107 103 q 139 352 107 300 q 221 445 171 404 q 326 519 271 486 q 426 582 381 551 q 488 634 465 608 q 510 701 510 660 q 476 754 510 740 q 363 768 442 768 q 256 760 315 768 q 150 744 196 753 l 135 915 z "},"₺":{"ha":865,"x_min":54,"x_max":819,"o":"m 54 590 l 649 701 l 649 585 l 54 474 l 54 590 m 54 393 l 649 504 l 649 388 l 54 276 l 54 393 m 539 0 l 168 0 l 168 924 l 385 924 l 385 175 l 539 175 q 602 185 581 175 q 631 217 624 196 q 639 268 639 238 l 639 310 l 819 310 l 819 268 q 794 121 819 181 q 708 31 769 61 q 539 0 647 0 z "},"₹":{"ha":817,"x_min":71,"x_max":765,"o":"m 651 622 q 621 495 651 547 q 542 411 590 443 q 439 364 493 379 q 338 347 385 349 l 264 331 l 72 331 l 72 497 l 276 497 q 398 525 360 497 q 436 622 436 553 q 398 723 436 697 q 279 749 360 749 l 71 749 l 71 868 l 279 868 q 487 848 404 868 q 610 775 569 828 q 651 622 651 722 m 765 565 l 71 565 l 71 679 l 765 679 l 765 565 m 765 810 l 71 810 l 71 924 l 765 924 l 765 810 m 97 331 l 331 369 q 381 349 360 360 q 421 325 403 339 q 457 292 439 311 q 497 247 475 274 l 703 0 l 476 0 l 321 200 q 259 271 286 244 q 208 310 232 297 q 157 326 183 322 q 97 331 131 331 z "},"₫":{"ha":879,"x_min":56,"x_max":838,"o":"m 85 -81 l 721 -81 l 721 -214 l 85 -214 l 85 -81 m 722 1014 l 722 36 q 570 -2 657 14 q 401 -18 483 -18 q 221 18 299 -18 q 99 133 143 54 q 56 343 56 213 q 97 568 56 485 q 212 688 139 651 q 378 724 285 724 q 449 719 410 724 q 518 708 488 715 l 518 1014 l 722 1014 m 518 160 l 518 542 q 459 553 486 549 q 401 558 432 558 q 294 511 328 558 q 261 346 261 464 q 278 225 261 268 q 326 165 294 182 q 406 149 358 149 q 464 151 433 149 q 518 160 494 154 m 313 790 l 313 924 l 838 924 l 838 790 l 313 790 z "},"₩":{"ha":1385,"x_min":60,"x_max":1328,"o":"m 60 503 l 60 617 l 249 617 l 249 503 l 60 503 m 60 310 l 60 424 l 288 424 l 288 310 l 60 310 m 1111 503 l 1111 617 l 1328 617 l 1328 503 l 1111 503 m 1100 310 l 1100 424 l 1328 424 l 1328 310 l 1100 310 m 507 0 l 297 0 l 75 924 l 300 924 l 433 278 l 597 758 l 776 758 l 949 267 q 1028 555 994 392 q 1086 924 1063 718 l 1290 924 q 1250 661 1274 786 q 1197 422 1226 536 q 1133 202 1168 307 q 1057 0 1097 97 l 856 0 l 688 518 l 507 0 z "},"₪":{"ha":974,"x_min":82,"x_max":899,"o":"m 274 0 l 82 0 l 82 669 q 210 705 131 686 q 375 724 290 724 q 528 700 463 724 q 628 622 593 676 q 664 474 664 568 l 664 250 l 514 250 l 514 447 q 496 515 514 490 q 445 549 478 539 q 371 558 413 558 q 320 555 349 558 q 274 546 292 551 l 274 0 m 474 456 l 474 160 q 524 151 493 154 q 576 147 554 147 q 644 157 615 147 q 690 191 674 167 q 707 258 707 215 l 707 706 l 899 706 l 899 232 q 859 84 899 139 q 749 6 819 29 q 581 -18 678 -18 q 436 1 506 -18 q 324 36 367 21 l 324 456 l 474 456 z "},"₭":{"ha":1003,"x_min":42,"x_max":964,"o":"m 42 435 l 42 549 l 231 549 l 231 435 l 42 435 m 463 438 l 488 549 l 904 549 l 904 438 l 463 438 m 156 924 l 372 924 l 372 493 l 726 924 l 964 924 l 642 536 q 769 447 715 514 q 869 253 824 381 l 963 0 l 719 0 l 657 196 q 609 312 633 271 q 556 370 585 353 q 490 389 528 388 l 372 251 l 372 0 l 156 0 l 156 924 z "},"₱":{"ha":1015,"x_min":53,"x_max":963,"o":"m 53 661 l 53 775 l 275 775 l 275 661 l 53 661 m 53 468 l 53 582 l 276 582 l 276 468 l 53 468 m 738 661 l 738 775 l 963 775 l 963 661 l 738 661 m 735 468 l 735 582 l 963 582 l 963 468 l 735 468 m 383 749 l 383 488 q 433 481 410 483 q 476 479 456 479 q 598 512 560 479 q 636 617 636 544 q 598 722 636 694 q 479 749 560 749 l 383 749 m 167 924 l 479 924 q 687 894 604 924 q 810 798 769 865 q 851 617 851 731 q 808 429 851 499 q 688 330 764 360 q 511 300 611 300 q 449 303 481 300 q 383 311 417 306 l 383 0 l 167 0 l 167 924 z "},"₵":{"ha":797,"x_min":63,"x_max":743,"o":"m 551 829 l 394 829 l 394 1032 l 551 1032 l 551 829 m 394 107 l 551 107 l 551 -119 l 394 -119 l 394 107 m 739 913 l 717 733 q 614 753 674 746 q 500 761 554 761 q 343 692 397 761 q 289 465 289 622 q 313 282 289 347 q 388 191 338 217 q 518 165 439 165 q 626 176 571 165 q 728 196 682 186 l 743 18 q 637 -7 700 4 q 507 -18 574 -18 q 265 28 364 -18 q 114 180 165 74 q 63 465 63 286 q 113 742 63 638 q 264 893 164 846 q 510 940 364 940 q 638 931 575 940 q 739 913 700 922 z "},"₸":{"ha":900,"x_min":61,"x_max":839,"o":"m 61 650 l 839 650 l 839 475 l 558 475 l 558 0 l 342 0 l 342 475 l 61 475 l 61 650 m 839 749 l 61 749 l 61 924 l 839 924 l 839 749 z "},"₼":{"ha":922,"x_min":71,"x_max":851,"o":"m 463 724 q 690 685 604 724 q 813 573 775 646 q 851 397 851 500 l 851 -18 l 633 -18 l 633 386 q 613 476 633 440 q 555 528 593 511 q 461 544 517 544 q 367 528 406 544 q 309 476 329 511 q 289 386 289 440 l 289 -18 l 71 -18 l 71 397 q 110 573 71 500 q 235 685 149 646 q 463 724 321 724 m 383 924 l 540 924 l 540 688 l 540 635 l 540 139 l 383 139 l 383 633 l 383 676 l 383 924 z "},"₽":{"ha":907,"x_min":57,"x_max":856,"o":"m 279 481 l 279 329 l 57 329 l 57 481 l 279 481 m 586 250 l 586 136 l 57 136 l 57 250 l 586 250 m 388 749 l 388 479 l 481 479 q 602 512 564 479 q 640 617 640 544 q 602 722 640 694 q 483 749 564 749 l 388 749 m 171 924 l 483 924 q 691 894 608 924 q 815 798 774 865 q 856 617 856 731 q 812 436 856 499 q 692 351 768 374 q 515 328 615 328 l 388 328 l 388 0 l 171 0 l 171 924 z "},"¤":{"ha":711,"x_min":42,"x_max":669,"o":"m 603 449 q 542 271 603 329 q 356 213 482 213 q 169 271 229 213 q 110 447 110 329 q 169 630 110 571 q 356 689 229 689 q 542 630 482 689 q 603 449 603 571 m 439 449 q 419 522 439 500 q 356 543 399 543 q 293 522 313 543 q 274 447 274 500 q 282 395 274 415 q 308 367 290 375 q 356 358 326 358 q 419 378 399 358 q 439 449 439 399 m 511 764 l 669 764 l 563 607 l 406 607 l 511 764 m 200 764 l 306 607 l 149 607 l 42 764 l 200 764 m 511 138 l 406 294 l 563 294 l 669 138 l 511 138 m 200 138 l 42 138 l 149 294 l 306 294 l 200 138 z "},"°":{"ha":535,"x_min":29,"x_max":506,"o":"m 268 799 q 209 771 224 799 q 194 699 194 743 q 209 627 194 654 q 268 600 224 600 q 326 627 311 600 q 340 699 340 654 q 326 771 340 743 q 268 799 311 799 m 268 939 q 447 874 389 939 q 506 699 506 810 q 447 524 506 588 q 268 460 389 460 q 88 524 147 460 q 29 699 29 588 q 88 874 29 810 q 268 939 147 939 z "},"%":{"ha":1194,"x_min":47,"x_max":1146,"o":"m 358 693 q 350 765 358 739 q 325 803 342 792 q 281 814 308 814 q 236 803 254 814 q 209 766 218 792 q 200 694 200 740 q 209 622 200 649 q 236 585 218 596 q 281 574 254 574 q 325 585 308 574 q 350 622 342 596 q 358 693 358 649 m 514 693 q 452 505 514 563 q 281 447 390 447 q 110 506 172 447 q 47 694 47 564 q 110 883 47 828 q 281 939 172 939 q 452 883 390 939 q 514 693 514 828 m 990 228 q 982 300 990 274 q 957 338 974 326 q 913 349 940 349 q 869 338 888 349 q 842 301 851 326 q 832 229 832 275 q 842 158 832 185 q 869 119 851 131 q 913 108 888 108 q 957 119 940 108 q 982 157 974 131 q 990 228 990 183 m 1146 228 q 1084 40 1146 97 q 913 -18 1022 -18 q 742 40 804 -18 q 679 229 679 99 q 742 418 679 363 q 913 474 804 474 q 1084 418 1022 474 q 1146 228 1146 363 m 810 924 l 981 924 l 382 0 l 213 0 l 810 924 z "},"‰":{"ha":1724,"x_min":47,"x_max":1674,"o":"m 358 693 q 350 765 358 739 q 325 803 342 792 q 281 814 308 814 q 238 803 256 814 q 210 766 219 792 q 200 694 200 740 q 210 623 200 650 q 238 585 219 596 q 281 574 256 574 q 325 585 308 574 q 350 622 342 596 q 358 693 358 649 m 514 693 q 452 505 514 563 q 281 447 390 447 q 110 506 172 447 q 47 694 47 564 q 110 883 47 828 q 281 939 172 939 q 452 883 390 939 q 514 693 514 828 m 990 228 q 982 300 990 274 q 957 338 974 326 q 913 349 940 349 q 869 338 888 349 q 842 301 851 326 q 832 229 832 275 q 842 158 832 185 q 869 119 851 131 q 913 108 888 108 q 957 119 940 108 q 982 157 974 131 q 990 228 990 183 m 1146 228 q 1084 40 1146 97 q 913 -18 1022 -18 q 742 40 804 -18 q 679 229 679 99 q 742 418 679 363 q 913 474 804 474 q 1084 418 1022 474 q 1146 228 1146 363 m 1518 228 q 1510 300 1518 274 q 1485 338 1501 326 q 1440 349 1468 349 q 1397 338 1415 349 q 1369 301 1379 326 q 1360 229 1360 275 q 1369 158 1360 185 q 1397 119 1379 131 q 1440 108 1415 108 q 1485 119 1468 108 q 1510 157 1501 131 q 1518 228 1518 183 m 1674 228 q 1612 40 1674 97 q 1440 -18 1550 -18 q 1269 40 1332 -18 q 1207 229 1207 99 q 1269 418 1207 363 q 1440 474 1332 474 q 1612 418 1550 474 q 1674 228 1674 363 m 810 924 l 981 924 l 382 0 l 213 0 l 810 924 z "},"⁄":{"ha":349,"x_min":-211,"x_max":563,"o":"m 385 924 l 563 924 l -33 0 l -211 0 l 385 924 z "},"½":{"ha":1061,"x_min":15,"x_max":1033,"o":"m 15 896 l 149 929 l 268 929 l 268 444 l 126 444 l 126 796 l 15 769 l 15 896 m 689 924 l 867 924 l 271 0 l 93 0 l 689 924 m 701 354 l 689 476 q 751 489 714 483 q 831 494 788 494 q 928 480 883 494 q 999 433 972 465 q 1026 349 1026 401 q 1013 279 1026 311 q 969 215 999 247 q 890 140 939 182 l 871 124 l 1033 124 l 1033 0 l 676 0 l 676 118 l 714 150 q 815 239 779 206 q 865 293 850 272 q 879 332 879 314 q 863 361 879 353 q 815 369 846 369 q 753 365 786 369 q 701 354 721 360 z "},"¼":{"ha":1021,"x_min":15,"x_max":1001,"o":"m 15 896 l 149 929 l 268 929 l 268 444 l 126 444 l 126 796 l 15 769 l 15 896 m 689 924 l 867 924 l 271 0 l 93 0 l 689 924 m 792 485 l 949 485 l 949 186 l 1001 186 l 1001 74 l 949 74 l 949 0 l 815 0 l 815 74 l 588 74 l 586 181 l 792 485 m 711 168 l 644 186 l 815 186 l 815 415 l 861 390 l 711 168 z "},"¾":{"ha":1119,"x_min":25,"x_max":1100,"o":"m 29 929 l 350 929 l 350 815 l 261 732 l 268 731 q 322 710 296 725 q 365 668 347 696 q 382 594 382 640 q 325 473 382 511 q 174 435 268 435 q 92 441 128 435 q 25 456 56 447 l 33 572 q 97 558 65 565 q 164 551 129 551 q 217 560 196 551 q 238 592 238 569 q 217 624 238 615 q 163 633 197 633 l 106 633 l 106 726 l 183 808 l 29 808 l 29 929 m 788 924 l 965 924 l 369 0 l 192 0 l 788 924 m 890 485 l 1047 485 l 1047 186 l 1100 186 l 1100 74 l 1047 74 l 1047 0 l 914 0 l 914 74 l 686 74 l 685 181 l 890 485 m 810 168 l 743 186 l 914 186 l 914 415 l 960 390 l 810 168 z "},"+":{"ha":767,"x_min":46,"x_max":721,"o":"m 46 525 l 289 525 l 289 731 l 478 731 l 478 525 l 721 525 l 721 361 l 478 361 l 478 154 l 289 154 l 289 361 l 46 361 l 46 525 z "},"−":{"ha":767,"x_min":46,"x_max":721,"o":"m 46 525 l 721 525 l 721 361 l 46 361 l 46 525 z "},"×":{"ha":672,"x_min":39,"x_max":633,"o":"m 517 147 l 336 328 l 156 147 l 39 263 l 219 443 l 39 624 l 156 740 l 336 560 l 517 740 l 633 624 l 453 443 l 633 263 l 517 147 z "},"÷":{"ha":767,"x_min":46,"x_max":721,"o":"m 46 525 l 721 525 l 721 361 l 46 361 l 46 525 m 504 189 q 471 107 504 135 q 383 79 438 79 q 296 107 329 79 q 263 189 263 135 q 296 269 263 242 q 383 297 329 297 q 471 269 438 297 q 504 189 504 242 m 504 699 q 471 617 504 644 q 383 589 438 589 q 296 617 329 589 q 263 699 263 644 q 296 779 263 751 q 383 807 329 807 q 471 779 438 807 q 504 699 504 751 z "},"=":{"ha":797,"x_min":61,"x_max":736,"o":"m 61 665 l 736 665 l 736 501 l 61 501 l 61 665 m 61 385 l 736 385 l 736 221 l 61 221 l 61 385 z "},"¬":{"ha":786,"x_min":46,"x_max":721,"o":"m 46 678 l 721 678 l 721 238 l 543 238 l 543 514 l 46 514 l 46 678 z "},"~":{"ha":789,"x_min":36,"x_max":756,"o":"m 613 561 l 756 497 q 710 402 736 444 q 644 336 683 360 q 543 313 604 313 q 463 328 504 314 q 385 362 422 343 q 315 395 347 381 q 258 410 282 410 q 212 388 226 410 q 179 324 197 367 l 36 386 q 78 479 54 438 q 138 546 101 521 q 233 571 175 571 q 313 556 271 571 q 394 522 354 542 q 471 488 435 503 q 533 474 507 474 q 580 496 565 474 q 613 561 594 518 z "},"<":{"ha":785,"x_min":46,"x_max":721,"o":"m 46 361 l 46 522 l 721 743 l 721 568 l 197 411 l 207 468 l 721 315 l 721 140 l 46 361 z "},">":{"ha":785,"x_min":64,"x_max":739,"o":"m 739 361 l 64 140 l 64 315 l 578 468 l 588 411 l 64 568 l 64 743 l 739 522 l 739 361 z "},"±":{"ha":794,"x_min":60,"x_max":735,"o":"m 60 164 l 735 164 l 735 0 l 60 0 l 60 164 m 60 539 l 303 539 l 303 731 l 492 731 l 492 539 l 735 539 l 735 375 l 492 375 l 492 207 l 303 207 l 303 375 l 60 375 l 60 539 z "},"^":{"ha":719,"x_min":29,"x_max":690,"o":"m 272 924 l 447 924 l 690 501 l 501 501 l 326 819 l 397 831 l 218 501 l 29 501 l 272 924 z "},"≠":{"ha":797,"x_min":61,"x_max":736,"o":"m 61 385 l 736 385 l 736 221 l 61 221 l 61 385 m 61 665 l 736 665 l 736 501 l 61 501 l 61 665 m 494 806 l 668 806 l 303 81 l 129 81 l 494 806 z "},"≈":{"ha":803,"x_min":42,"x_max":761,"o":"m 618 696 l 761 632 q 715 537 742 579 q 649 471 689 494 q 549 447 610 447 q 469 463 510 449 q 390 497 428 478 q 320 530 353 515 q 264 544 288 544 q 217 523 232 544 q 185 458 203 501 l 42 521 q 83 614 60 572 q 144 681 107 656 q 239 706 181 706 q 318 691 276 706 q 400 657 360 676 q 476 623 440 638 q 539 608 513 608 q 585 631 571 608 q 618 696 600 653 m 618 418 l 761 354 q 715 259 742 301 q 649 193 689 217 q 549 169 610 169 q 469 185 510 171 q 390 219 428 200 q 320 252 353 238 q 264 267 288 267 q 217 245 232 267 q 185 181 203 224 l 42 243 q 83 336 60 294 q 144 403 107 378 q 239 428 181 428 q 318 413 276 428 q 400 379 360 399 q 476 345 440 360 q 539 331 513 331 q 585 353 571 331 q 618 418 600 375 z "},"≤":{"ha":810,"x_min":60,"x_max":735,"o":"m 60 371 l 60 532 l 735 739 l 735 564 l 211 421 l 221 478 l 735 339 l 735 164 l 60 371 m 735 164 l 735 0 l 60 0 l 60 164 l 735 164 z "},"≥":{"ha":810,"x_min":75,"x_max":750,"o":"m 750 371 l 75 164 l 75 339 l 589 478 l 599 421 l 75 564 l 75 739 l 750 532 l 750 371 m 75 164 l 750 164 l 750 0 l 75 0 l 75 164 z "},"∞":{"ha":953,"x_min":29,"x_max":924,"o":"m 396 443 q 352 483 372 467 q 312 508 332 499 q 267 517 292 517 q 213 500 235 517 q 190 443 190 483 q 213 386 190 403 q 267 369 235 369 q 312 378 292 369 q 352 403 332 386 q 396 443 372 419 m 557 443 q 602 403 582 419 q 642 378 622 386 q 688 369 663 369 q 740 386 719 369 q 761 443 761 403 q 740 500 761 483 q 688 517 719 517 q 642 508 663 517 q 602 483 622 500 q 557 443 582 467 m 476 565 q 544 617 513 596 q 614 651 575 639 q 707 663 653 663 q 863 608 801 663 q 924 443 924 553 q 863 278 924 333 q 707 224 801 224 q 614 235 653 224 q 544 268 575 246 q 476 322 513 290 q 410 268 442 290 q 339 235 378 246 q 244 224 300 224 q 90 278 151 224 q 29 443 29 333 q 90 608 29 553 q 246 663 151 663 q 340 651 301 663 q 410 617 378 639 q 476 565 442 596 z "},"◊":{"ha":753,"x_min":14,"x_max":739,"o":"m 303 0 l 14 463 l 303 925 l 450 925 l 739 463 l 450 0 l 303 0 m 376 194 l 544 463 l 376 732 l 208 463 l 376 194 z "},"√":{"ha":840,"x_min":19,"x_max":901,"o":"m 19 706 l 331 706 l 481 181 l 714 924 l 901 924 l 593 0 l 347 0 l 154 574 l 19 574 l 19 706 z "},"∫":{"ha":358,"x_min":-71,"x_max":429,"o":"m -71 -278 l -71 -111 l -57 -111 q 11 -101 -18 -111 q 57 -63 40 -90 q 74 11 74 -36 l 74 743 q 113 907 74 843 q 222 1001 151 971 q 389 1032 293 1032 l 429 1032 l 429 865 l 415 865 q 347 855 376 865 q 301 818 318 844 q 285 743 285 792 l 285 10 q 246 -153 285 -90 q 136 -247 207 -217 q -31 -278 65 -278 l -71 -278 z "},"∂":{"ha":779,"x_min":32,"x_max":743,"o":"m 200 735 l 181 896 q 296 928 238 917 q 421 940 354 940 q 592 911 519 940 q 703 817 664 882 q 743 643 743 751 q 729 468 743 560 q 684 290 715 376 q 602 135 653 204 q 478 24 551 65 q 307 -17 406 -17 q 106 53 181 -17 q 32 242 32 124 q 68 407 32 336 q 176 517 104 478 q 356 557 247 557 q 463 547 413 557 q 544 522 514 538 q 549 588 547 551 q 551 642 551 624 q 517 744 551 714 q 406 774 482 774 q 299 763 350 774 q 200 735 249 753 m 508 378 q 447 397 483 389 q 371 406 411 406 q 296 392 331 406 q 240 344 261 378 q 219 251 219 311 q 246 178 219 206 q 318 150 272 150 q 410 182 372 150 q 472 266 447 214 q 508 378 496 318 z "},"∏":{"ha":1013,"x_min":44,"x_max":968,"o":"m 44 924 l 968 924 l 968 740 l 864 740 l 864 0 l 647 0 l 647 740 l 365 740 l 365 0 l 149 0 l 149 740 l 44 740 l 44 924 z "},"∑":{"ha":800,"x_min":60,"x_max":747,"o":"m 342 749 l 604 482 l 335 176 l 747 176 l 747 0 l 60 0 l 60 169 l 335 482 l 60 756 l 60 924 l 717 924 l 717 749 l 342 749 z "},"π":{"ha":890,"x_min":24,"x_max":867,"o":"m 24 706 l 867 706 l 867 529 l 739 529 l 739 0 l 532 0 l 532 529 l 358 529 l 358 0 l 151 0 l 151 529 l 24 529 l 24 706 z "},"Δ":{"ha":890,"x_min":38,"x_max":853,"o":"m 38 0 l 333 925 l 556 925 l 853 0 l 38 0 m 624 79 l 397 832 l 493 829 l 264 75 l 176 175 l 713 175 l 624 79 z "},"Ω":{"ha":993,"x_min":64,"x_max":929,"o":"m 496 940 q 719 896 626 940 q 863 756 813 851 q 914 504 914 660 q 894 356 914 417 q 840 252 874 294 q 764 175 806 210 l 929 175 l 929 0 l 550 0 l 550 178 q 617 231 589 201 q 665 301 646 261 q 692 391 683 340 q 701 508 701 442 q 679 658 701 603 q 611 736 657 713 q 496 760 565 760 q 382 736 428 760 q 314 658 336 713 q 292 508 292 603 q 301 391 292 442 q 328 301 310 340 q 376 231 347 261 q 443 178 404 201 l 443 0 l 64 0 l 64 175 l 228 175 q 153 252 188 210 q 99 356 119 294 q 79 504 79 417 q 129 756 79 660 q 273 896 179 851 q 496 940 367 940 z "},"ℓ":{"ha":599,"x_min":64,"x_max":575,"o":"m 269 276 l 269 260 q 294 176 269 197 q 350 156 318 156 q 420 162 385 156 q 485 175 456 168 l 490 11 q 397 -12 443 -6 q 303 -18 350 -18 q 128 50 192 -18 q 64 253 64 118 l 64 636 q 102 812 64 744 q 201 910 140 879 q 329 940 261 940 q 452 911 396 940 q 542 819 508 882 q 575 656 575 756 q 549 510 575 572 q 478 404 522 449 q 381 328 435 360 q 269 276 326 297 m 269 433 q 356 526 324 468 q 389 646 389 585 q 373 731 389 700 q 329 761 357 761 q 284 727 299 761 q 269 632 269 693 l 269 433 z "},"µ":{"ha":771,"x_min":74,"x_max":699,"o":"m 493 706 l 699 706 l 699 36 q 565 0 649 18 q 392 -18 482 -18 q 247 6 315 -18 q 139 86 178 29 q 97 150 121 114 q 74 232 74 186 l 74 706 l 279 706 l 279 231 q 294 179 279 197 q 336 154 310 161 q 396 147 363 147 q 447 151 418 147 q 493 160 475 154 l 493 706 m 271 -261 l 74 -261 l 74 239 l 271 239 l 271 -261 z "},"ſ":{"ha":411,"x_min":22,"x_max":556,"o":"m 338 768 l 338 0 l 126 0 l 126 543 l 22 543 l 22 706 l 126 706 l 126 768 q 162 916 126 858 q 262 1001 197 974 q 414 1029 326 1029 q 488 1026 450 1029 q 556 1015 526 1022 l 538 854 q 489 860 514 858 q 440 863 464 863 q 366 843 394 863 q 338 768 338 824 z "},"ƒ":{"ha":717,"x_min":28,"x_max":714,"o":"m 28 614 l 188 614 l 188 679 q 228 827 188 769 q 342 913 268 885 q 517 940 417 940 q 619 933 565 940 q 714 918 672 926 l 696 757 q 619 769 657 764 q 543 774 581 774 q 439 754 479 774 q 399 679 399 735 l 399 614 l 689 614 l 689 451 l 399 451 l 399 0 l 188 0 l 188 451 l 28 451 l 28 614 z "},"ﬁ":{"ha":860,"x_min":22,"x_max":786,"o":"m 22 706 l 126 706 l 126 747 q 170 909 126 846 q 294 1002 214 972 q 481 1032 374 1032 q 568 1028 519 1032 q 664 1019 617 1025 q 746 1006 711 1014 l 728 844 q 614 860 672 854 q 507 865 556 865 q 419 855 457 865 q 359 819 381 844 q 338 747 338 793 l 338 706 l 786 706 l 786 0 l 581 0 l 581 543 l 338 543 l 338 0 l 126 0 l 126 543 l 22 543 l 22 706 z "},"ﬂ":{"ha":863,"x_min":22,"x_max":789,"o":"m 22 706 l 126 706 l 126 747 q 170 909 126 846 q 294 1002 214 972 q 481 1032 374 1032 q 582 1027 526 1032 q 693 1015 638 1022 q 789 999 749 1008 l 771 838 q 634 857 703 849 q 507 865 565 865 q 419 855 457 865 q 359 819 381 844 q 338 747 338 793 l 338 706 l 463 706 l 463 543 l 338 543 l 338 0 l 126 0 l 126 543 l 22 543 l 22 706 m 583 999 l 789 999 l 789 0 l 583 0 l 583 999 z "},"⁰":{"ha":481,"x_min":25,"x_max":456,"o":"m 456 836 q 403 648 456 710 q 239 586 350 586 q 77 647 129 586 q 25 835 25 708 q 77 1027 25 964 q 239 1090 129 1090 q 403 1027 350 1090 q 456 836 456 964 m 313 836 q 295 936 313 907 q 239 965 278 965 q 185 936 201 965 q 168 835 168 907 q 185 738 168 767 q 239 710 201 710 q 295 738 278 710 q 313 836 313 767 z "},"¹":{"ha":304,"x_min":15,"x_max":268,"o":"m 15 1047 l 149 1081 l 268 1081 l 268 596 l 126 596 l 126 947 l 15 921 l 15 1047 z "},"²":{"ha":408,"x_min":24,"x_max":381,"o":"m 49 950 l 36 1072 q 98 1085 61 1079 q 178 1090 135 1090 q 275 1076 231 1090 q 347 1029 319 1061 q 374 944 374 997 q 360 875 374 907 q 316 810 346 843 q 238 736 286 778 l 218 719 l 381 719 l 381 596 l 24 596 l 24 714 l 61 746 q 162 835 126 801 q 212 889 197 868 q 226 928 226 910 q 210 957 226 949 q 163 965 193 965 q 101 960 133 965 q 49 950 68 956 z "},"³":{"ha":403,"x_min":25,"x_max":382,"o":"m 29 1081 l 350 1081 l 350 967 l 261 883 l 268 882 q 322 862 296 876 q 365 819 347 847 q 382 746 382 792 q 325 624 382 663 q 174 586 268 586 q 92 592 128 586 q 25 607 56 599 l 33 724 q 97 710 65 717 q 164 703 129 703 q 217 712 196 703 q 238 743 238 721 q 217 776 238 767 q 163 785 197 785 l 106 785 l 106 878 l 183 960 l 29 960 l 29 1081 z "},"⁴":{"ha":451,"x_min":17,"x_max":432,"o":"m 222 1081 l 379 1081 l 379 782 l 432 782 l 432 669 l 379 669 l 379 596 l 246 596 l 246 669 l 18 669 l 17 776 l 222 1081 m 142 764 l 75 782 l 246 782 l 246 1011 l 292 986 l 142 764 z "},"⁵":{"ha":399,"x_min":31,"x_max":378,"o":"m 378 749 q 324 625 378 664 q 174 586 269 586 q 99 592 135 586 q 31 607 64 597 l 39 722 q 106 707 75 713 q 164 701 136 701 q 235 744 235 701 q 216 778 235 768 q 157 789 197 789 q 124 787 147 789 q 60 781 100 785 l 39 803 l 63 1081 l 346 1081 l 346 960 l 174 960 l 168 899 q 179 899 171 899 q 197 900 188 900 q 328 865 278 900 q 378 749 378 829 z "},"⁶":{"ha":438,"x_min":24,"x_max":418,"o":"m 165 782 q 169 742 165 760 q 186 713 174 724 q 225 703 199 703 q 272 716 256 703 q 289 749 289 729 q 272 785 289 774 q 224 797 256 797 q 192 793 208 797 q 165 782 176 789 m 376 1076 l 367 963 q 311 971 342 968 q 254 974 281 974 q 187 956 210 974 q 164 890 164 938 q 201 900 179 896 q 243 906 222 904 q 371 868 324 906 q 418 751 418 831 q 369 635 418 683 q 225 586 319 586 q 116 613 161 586 q 47 695 71 640 q 24 833 24 750 q 52 985 24 929 q 131 1066 81 1042 q 250 1090 182 1090 q 317 1086 281 1090 q 376 1076 353 1082 z "},"⁷":{"ha":385,"x_min":19,"x_max":369,"o":"m 19 1081 l 369 1081 l 369 967 l 176 596 l 26 596 l 214 954 l 19 954 l 19 1081 z "},"⁸":{"ha":447,"x_min":24,"x_max":424,"o":"m 224 796 q 161 743 161 796 q 224 690 161 690 q 285 743 285 690 q 224 796 285 796 m 349 842 q 405 798 386 825 q 424 733 424 771 q 373 626 424 665 q 224 586 322 586 q 74 626 125 586 q 24 733 24 665 q 42 797 24 771 q 99 842 61 824 q 51 883 68 857 q 35 949 35 910 q 83 1051 35 1013 q 224 1090 131 1090 q 364 1051 317 1090 q 411 949 411 1013 q 396 883 411 910 q 349 842 381 857 m 224 988 q 172 942 172 988 q 224 890 172 890 q 275 942 275 890 q 224 988 275 988 z "},"⁹":{"ha":438,"x_min":19,"x_max":414,"o":"m 272 894 q 268 935 272 917 q 251 965 264 954 q 213 976 239 976 q 167 963 182 976 q 151 928 151 949 q 167 891 151 903 q 214 879 182 879 q 243 883 228 879 q 272 894 258 888 m 60 600 l 71 714 q 126 706 96 708 q 183 703 157 703 q 251 721 228 703 q 274 786 274 739 q 237 776 258 781 q 194 771 215 772 q 67 808 114 771 q 19 925 19 846 q 68 1042 19 994 q 213 1090 117 1090 q 322 1063 276 1090 q 390 982 367 1036 q 414 843 414 928 q 385 691 414 747 q 306 610 357 635 q 188 586 256 586 q 121 590 157 586 q 60 600 85 594 z "},"←":{"ha":914,"x_min":36,"x_max":868,"o":"m 353 696 l 56 394 q 36 349 36 375 q 56 303 36 322 l 349 13 l 468 133 l 207 360 l 207 342 l 472 576 l 353 696 m 193 278 l 868 278 l 868 433 l 193 433 l 193 278 z "},"↑":{"ha":746,"x_min":33,"x_max":717,"o":"m 33 515 l 153 396 l 388 661 l 369 661 l 596 400 l 717 519 l 426 813 q 381 832 407 832 q 335 813 354 832 l 33 515 m 451 675 l 296 675 l 296 0 l 451 0 l 451 675 z "},"→":{"ha":915,"x_min":46,"x_max":878,"o":"m 561 696 l 442 576 l 707 342 l 707 360 l 446 133 l 565 13 l 858 303 q 878 349 878 322 q 858 394 878 375 l 561 696 m 721 278 l 721 433 l 46 433 l 46 278 l 721 278 z "},"↓":{"ha":743,"x_min":28,"x_max":711,"o":"m 28 299 l 329 1 q 375 -18 349 -18 q 421 1 401 -18 l 711 294 l 590 414 l 364 153 l 382 153 l 147 418 l 28 299 m 446 139 l 446 814 l 290 814 l 290 139 l 446 139 z "},"↔":{"ha":1204,"x_min":36,"x_max":1167,"o":"m 353 696 l 56 394 q 36 349 36 375 q 56 303 36 322 l 349 13 l 468 133 l 207 360 l 207 342 l 472 576 l 353 696 m 193 278 l 799 278 l 799 433 l 193 433 l 193 278 m 850 696 l 731 576 l 996 342 l 996 360 l 735 133 l 854 13 l 1147 303 q 1167 349 1167 322 q 1147 394 1167 375 l 850 696 m 1010 278 l 1010 433 l 404 433 l 404 278 l 1010 278 z "},"↕":{"ha":758,"x_min":36,"x_max":719,"o":"m 36 299 l 338 1 q 383 -18 357 -18 q 429 1 410 -18 l 719 294 l 599 414 l 372 153 l 390 153 l 156 418 l 36 299 m 454 139 l 454 665 l 299 665 l 299 139 l 454 139 m 36 717 l 156 597 l 390 863 l 372 863 l 599 601 l 719 721 l 429 1014 q 383 1033 410 1033 q 338 1014 357 1033 l 36 717 m 454 876 l 299 876 l 299 350 l 454 350 l 454 876 z "},"↖":{"ha":754,"x_min":65,"x_max":725,"o":"m 65 185 l 235 185 l 213 539 l 200 526 l 544 501 l 546 671 l 133 674 q 87 655 106 674 q 68 608 68 636 l 65 185 m 139 483 l 615 6 l 725 117 l 249 593 l 139 483 z "},"↗":{"ha":754,"x_min":29,"x_max":689,"o":"m 689 185 l 686 608 q 667 655 686 636 q 621 674 649 674 l 208 671 l 210 501 l 554 526 l 542 539 l 519 185 l 689 185 m 615 483 l 506 593 l 29 117 l 139 6 l 615 483 z "},"↘":{"ha":757,"x_min":31,"x_max":690,"o":"m 690 547 l 521 547 l 543 193 l 556 206 l 211 231 l 210 61 l 622 58 q 669 77 650 58 q 688 124 688 96 l 690 547 m 617 249 l 140 726 l 31 615 l 507 139 l 617 249 z "},"↙":{"ha":757,"x_min":67,"x_max":726,"o":"m 67 547 l 69 124 q 88 77 69 96 q 135 58 107 58 l 547 61 l 546 231 l 201 206 l 214 193 l 236 547 l 67 547 m 140 249 l 250 139 l 726 615 l 617 726 l 140 249 z "},"℮":{"ha":1003,"x_min":76,"x_max":926,"o":"m 926 357 l 238 357 q 232 353 232 357 l 232 144 q 235 131 232 138 q 242 119 238 125 q 358 38 290 68 q 503 8 426 8 q 656 42 586 8 q 776 133 726 76 l 838 133 q 692 26 781 67 q 501 -15 604 -15 q 337 15 414 -15 q 201 97 260 44 q 110 218 143 149 q 76 367 76 288 q 110 516 76 446 q 201 639 143 586 q 337 722 260 692 q 501 751 414 751 q 666 722 589 751 q 801 639 743 692 q 893 516 860 586 q 926 367 926 446 l 926 357 m 771 383 l 771 593 q 760 619 771 608 q 645 699 711 669 q 503 728 579 728 q 359 698 426 728 q 243 615 292 668 q 232 589 232 607 l 232 383 q 238 378 232 378 l 767 378 q 771 383 771 378 z "}}}
